<?xml version="1.0" encoding="UTF-8"?>
<svg xmlns="http://www.w3.org/2000/svg" viewBox="0 0 522.15 227.11">
  <defs>
    <style>
      .e {
        fill: #b274de;
        opacity: .8;
        stroke: #8046b2;
      }

      .e, .f, .g, .h {
        stroke-miterlimit: 10;
      }

      .e, .h {
        stroke-width: 2px;
      }

      .i, .j, .k, .l, .f, .g, .h, .m {
        fill: none;
      }

      .i, .j, .k, .l, .f, .g, .m {
        stroke-width: .5px;
      }

      .i, .j, .k, .l, .m {
        stroke-linejoin: round;
      }

      .i, .m {
        stroke: #bd9279;
      }

      .n {
        fill: #fffbe5;
      }

      .o {
        fill: #e09e97;
      }

      .p {
        fill: #e0d8cb;
      }

      .q {
        fill: #db9081;
      }

      .j, .l, .f {
        stroke: #b56e60;
      }

      .k {
        stroke: #6e685e;
      }

      .r {
        fill: #dfb2ae;
      }

      .l, .g, .m {
        stroke-linecap: round;
      }

      .s {
        fill: #b56e60;
      }

      .g {
        stroke: #36322d;
      }

      .t {
        fill: #36322d;
      }

      .u {
        fill: #6e685e;
      }

      .h {
        stroke: #000;
      }

      .v {
        fill: #e1d4bd;
      }

      .w {
        fill: #524d46;
      }

      .x {
        fill: #c37a6b;
      }
    </style>
  </defs>
  <g id="a" data-name="Layer 1">
    <g>
      <path class="o" d="M104.8,26.05s1.55.45,1.93,1.93l1.03-1.03s-1.05-1.3-2.95-.9Z"/>
      <path class="o" d="M96.35,28.16s1.57.36,2.03,1.82l.97-1.08s-1.12-1.24-3-.73Z"/>
      <path class="o" d="M94.54,35.07s1.6-.2,2.53,1.01l.54-1.35s-1.48-.78-3.07.33Z"/>
      <path class="o" d="M96.79,42.19s1.43-.75,2.73.06l.03-1.45s-1.66-.21-2.76,1.39Z"/>
      <path class="x" d="M124.1,42.24s-8.22-4.06-9.6-5.7-2.04-3.47-1.97-4.57-4.92-6.6-6.1-5.45,3.24,4.93,1.62,6.55c-1.05,1.05-8.91-6.05-10.21-4.74-1.43,1.43,6.82,6.19,6.62,7.16s-7.97-2.02-8.57-.66c-.72,1.63,8.26,3.97,8.06,5.07s-6.24-.26-6.31,1.5c-.07,1.86,10.27,2.21,10.4,3.25s16.06-2.41,16.06-2.41Z"/>
      <path class="o" d="M116.5,39.4c-.93-.65-1.75-1.45-2.44-2.35-1.01-1.32-2.17-2.81-1.81-3.98.12-.4.17-.92.18-1.46-.65-1.61-4.93-6.14-6.01-5.08-.67.65.46,2.15,1.27,3.62h0s2.65,3.15,1.87,3.93-5.63-2.86-5.63-2.86h0c-2.52-1.65-5.37-3.61-6.11-2.88-.86.86,1.76,2.9,3.95,4.62l.25.16s5.27,2.51,4.92,3.51c-.35,1-6.76-1.63-6.79-1.64-2-.44-3.99-.82-4.29-.15-.37.84,1.86,1.87,4.06,2.83.02,0,5.62,1.45,5.66,2.45.03,1-4.88.3-4.88.3h0c-1.54.02-3.05.12-3.08.99-.07,1.86,10.27,2.21,10.4,3.25.07.58,5.01-.23,9.39-1.06l2.31-1.91-3.24-2.27Z"/>
      <path class="o" d="M90.07,130.37s1.62.04,2.42-1.26l.67,1.29s-1.39.92-3.09-.03Z"/>
      <path class="o" d="M82.66,125.81s1.61.13,2.49-1.12l.6,1.32s-1.44.84-3.08-.2Z"/>
      <path class="o" d="M83.01,118.68s1.47.67,2.72-.2l.11,1.45s-1.65.3-2.83-1.24Z"/>
      <path class="x" d="M113.35,120.75s-9.06,1.39-10.87,2.54-2.99,2.69-3.26,3.76-6.68,4.81-7.46,3.35,4.58-3.72,3.52-5.76c-.68-1.32-10.31,3.08-11.16,1.45-.93-1.79,8.36-3.84,8.47-4.83s-8.21-.48-8.37-1.95c-.19-1.77,9.07-1.29,9.22-2.4s-6.03-1.63-5.56-3.33c.5-1.79,10.46.99,10.9.04s14.59,7.13,14.59,7.13Z"/>
      <path class="o" d="M105.25,121.17c-1.09.34-2.11.85-3.04,1.5-1.36.95-2.91,2.02-2.92,3.25,0,.42-.11.93-.27,1.45-1.1,1.34-6.55,4.37-7.26,3.03-.44-.83,1.09-1.91,2.3-3.07h0s3.48-2.21,2.97-3.18-6.23,1.03-6.23,1.03h0c-2.9.81-6.21,1.83-6.69.9-.56-1.07,2.55-2.24,5.16-3.21l.29-.08s5.78-.8,5.75-1.86c-.04-1.06-6.94-.49-6.96-.49-2.04-.18-4.05-.43-4.13-1.15-.1-.91,2.33-1.23,4.73-1.47.02,0,5.8.31,6.13-.63.33-.94-4.56-1.75-4.56-1.75h0c-1.46-.48-2.87-1.03-2.64-1.87.5-1.79,10.46.99,10.9.04.24-.53,4.71,1.73,8.64,3.84l1.63,2.52-3.77,1.19Z"/>
      <path class="o" d="M87.3,112.57s1.14,1.14,2.62.76l-.41,1.39s-1.65-.3-2.21-2.16Z"/>
      <path class="o" d="M269.86,183.87s-13.34-19.02,6.37-13.01c19.71,6.02,74.99,18.11,96.05,20.57,18.34,2.14,39.02-.86,53.33-7.71,14.32-6.85,30.29-27.8,39.21-38.8,8.92-11,24.28-37.97,26.76-40.87s3.94-.62,4.15,1.24-21.58,40.25-36.93,61.83c-15.35,21.58-37.55,35.06-66.6,37.97-29.05,2.9-55.81-6.85-76.77-10.37-20.96-3.53-44.18-9.45-44.18-9.45l-1.41-1.41Z"/>
      <path class="r" d="M445.68,176.51c-14.16,14.16-32.29,22.44-53.87,24.59-20.54,2.05-40.06-2.46-57.27-6.44-6.5-1.5-12.65-2.92-18.43-3.9-18.03-3.04-38.02-7.92-42.79-9.11l-.36-.36c-1.82-2.69-3.34-6.02-3.5-7.58.73-.06,2.39,0,5.6.98,19.73,6.02,75.06,18.18,96.76,20.72,19.15,2.24,40.43-.85,55.53-8.08,5.54-2.65,11.56-7.27,18.41-14.12,6.72-6.72,13.09-14.48,18.04-20.62-2.81,4.34-5.61,8.48-8.25,12.2-3.02,4.24-6.34,8.18-9.86,11.71Z"/>
      <g>
        <path class="v" d="M30.08,92.01c1.89,7.96,1.15,16.39-1.26,24.15,2.32-7.75,2.97-16.18,1.02-24.08-.05-.15.2-.24.24-.07h0Z"/>
        <path class="v" d="M32.88,96.27c4.2,7.46,5.68,16.16,6.41,24.6-.56-6.34-1.69-12.73-3.91-18.71-.76-1.99-1.6-3.96-2.71-5.76-.09-.13.13-.28.21-.13h0Z"/>
        <path class="v" d="M37.64,95.26c10.52,10.81,22.02,20.7,34.28,29.5-6.16-4.36-12.12-9.01-17.86-13.91-5.74-4.9-11.31-10.01-16.6-15.42-.11-.11.07-.3.18-.17h0Z"/>
        <path class="v" d="M34.85,96.42c3.52,6.78,6.83,13.84,11.73,19.75-2.58-2.85-4.51-6.22-6.47-9.51-1.93-3.32-3.75-6.7-5.49-10.13-.07-.14.15-.26.22-.11h0Z"/>
        <path class="v" d="M37.82,97.42c2.3,3.73,4.5,7.51,6.57,11.37,1.93,3.88,4.34,7.74,4.97,12.08-.68-4.33-3.12-8.17-5.08-12.02-2.11-3.83-4.35-7.59-6.67-11.29-.09-.13.13-.28.21-.13h0Z"/>
        <path class="v" d="M38.45,97.08c8.16,8.83,16.73,17.47,23.37,27.54-6.7-10.01-15.33-18.6-23.55-27.37-.11-.11.06-.3.18-.17h0Z"/>
        <path class="v" d="M32.85,71.17c3.72-11.12,6.67-22.5,9.02-33.99-1.13,5.76-2.42,11.48-3.89,17.16-1.47,5.68-3.06,11.33-4.9,16.91-.05.15-.3.08-.24-.08h0Z"/>
        <path class="v" d="M29.12,73.23c-.88-10.03-2.72-20.01-5.59-29.66,2.96,9.64,4.88,19.6,5.84,29.64.02.16-.24.19-.25.02h0Z"/>
        <path class="v" d="M30.84,72.33c.81-9.75,1.82-19.77-.13-29.43,1.15,4.8,1.19,9.79,1.18,14.7-.05,4.93-.35,9.85-.8,14.76-.01.16-.27.14-.25-.03h0Z"/>
        <path class="v" d="M31.51,71.38c.77-9.78,3.08-19.36,5.41-28.86-2.25,9.5-4.47,19.11-5.16,28.87,0,.16-.26.16-.25,0h0Z"/>
        <path class="v" d="M25.92,73.76c-.39-4.04-.98-8.15-2.56-11.93,1.66,3.75,2.34,7.85,2.81,11.91.02.16-.24.19-.25.02h0Z"/>
        <path class="v" d="M24.99,74.15c-1.45-6.64-6.14-12.26-11.86-15.76,5.81,3.45,10.57,9.04,12.11,15.71.03.16-.23.21-.25.04h0Z"/>
        <path class="v" d="M31.99,96.64c.87,5.65,1.79,11.89-.65,17.27,2.36-5.39,1.34-11.6.4-17.22-.04-.16.22-.22.24-.05h0Z"/>
        <path class="v" d="M29.21,96.18c-.49,2.2-.84,4.44-1.02,6.7.1-2.26.37-4.52.78-6.75.03-.16.29-.11.24.05h0Z"/>
        <path class="v" d="M23.7,75.05c-1.47-3.41-3.05-6.92-5.67-9.6,2.68,2.64,4.35,6.12,5.9,9.51.07.15-.17.25-.23.09h0Z"/>
        <path class="v" d="M34.26,70.29c4.37-9.58,10.23-18.7,18.18-25.7-5.94,5.26-10.6,11.8-14.44,18.71-1.27,2.31-2.46,4.67-3.5,7.09-.05.15-.3.06-.23-.1h0Z"/>
      </g>
      <path class="j" d="M269.86,183.87s-13.34-19.02,6.37-13.01c19.71,6.02,74.99,18.11,96.05,20.57,18.34,2.14,39.02-.86,53.33-7.71,14.32-6.85,30.29-27.8,39.21-38.8,8.92-11,24.28-37.97,26.76-40.87s3.94-.62,4.15,1.24-21.58,40.25-36.93,61.83c-15.35,21.58-37.55,35.06-66.6,37.97-29.05,2.9-55.81-6.85-76.77-10.37-20.96-3.53-44.18-9.45-44.18-9.45l-1.41-1.41Z"/>
      <path class="s" d="M105.51,25.97c.64,0,1.15.2,1.53.42,0,0,0,0,0,0,0,0,0,0,0,0,.98.18,2.61,1.63,3.83,3.03.12.12.22.23.32.37.59.71,1.06,1.38,1.23,1.82v.02c.07.15.1.27.09.36-.07,1.1.58,2.92,1.97,4.57,1.39,1.64,9.6,5.7,9.6,5.7,0,0-3.15.68-6.66,1.34-1.83.35-3.78.69-5.4.93-.39.06-.76.11-1.12.15-.83.11-1.54.17-2.04.17-.17,0-.32,0-.45-.02-.09,0-.17-.02-.23-.04-.1-.03-.16-.07-.17-.13-.12-.93-8.57-1.32-10.15-2.75-.64.06-1.1.3-1.1.3.27-.38.56-.66.86-.86,0,0,0,0,0,0h0c0-.16.08-.28.18-.38.14-.14.35-.25.62-.32.08-.03.15-.05.25-.07.09-.03.19-.04.28-.05.12-.02.22-.03.34-.04.36-.04.74-.06,1.14-.06.08,0,.17,0,.25,0,0,0,.02,0,.04,0,1.53-.03,3.08.03,3.18-.52.09-.53-1.92-1.35-3.96-2.23-.02,0-.05-.02-.05-.02-.2-.08-.39-.18-.58-.25-.35-.17-.7-.32-1.03-.48-1.22-.58-2.21-1.16-2.43-1.68-.44-.16-.85-.19-1.1-.19-.15,0-.24.01-.24.01.65-.45,1.28-.59,1.8-.59.09,0,.17,0,.25.01,0,0,.02,0,.03,0,.02,0,.04,0,.06,0h.02c.09,0,.21,0,.33,0,.16,0,.34.02.53.04.76.07,1.69.26,2.62.47,0,0,0,0,.03,0,1.5.33,2.99.7,3.75.7.3,0,.49-.06.52-.2.08-.39-1.2-1.38-2.65-2.53h-.03c-.33-.27-.67-.53-1-.79-.12-.11-.25-.2-.38-.31-.13-.1-.25-.2-.37-.3-.23-.19-.44-.38-.65-.55-.02-.02-.04-.02-.05-.05-.86-.76-1.5-1.47-1.64-2.01,0,0,0-.03,0-.04-.61-.58-1.33-.73-1.33-.73.32-.09.61-.12.88-.12.33,0,.63.05.89.14h.02c.05-.01.11-.02.17-.02.05,0,.1,0,.16.01.09,0,.18.03.28.06.13.03.28.08.43.14.2.07.42.17.65.28h0c.23.12.45.24.68.38l.85.5c.13.08.27.17.4.25l2.18,1.42s.04.03.13.09c1.57,1.01,2.98,1.88,3.67,1.88.13,0,.24-.03.31-.11.7-.7.28-1.8-.33-2.92,0,0-.02-.02-.02-.02-.4-.73-.89-1.48-1.19-2.13-.06-.11-.1-.22-.13-.33-.1-.25-.15-.48-.15-.68-.59-.71-1.42-.95-1.42-.95.25-.05.49-.08.72-.08M105.51,25.47c-.27,0-.54.03-.82.09-.22.05-.39.24-.4.47,0,.23.14.43.36.5,0,0,.6.19,1.07.67.02.2.08.42.17.64.04.15.1.28.17.41.18.39.44.83.71,1.29.16.28.33.56.48.83.01.02.03.05.05.07.64,1.16.77,1.84.43,2.23-.64-.03-2.4-1.16-3.37-1.79-.11-.08-.16-.11-.16-.11l-2.17-1.41-.21-.13-.2-.13-.86-.51c-.23-.13-.46-.26-.68-.37-.01,0-.03-.02-.04-.03-.3-.15-.52-.24-.72-.31-.15-.07-.33-.12-.46-.15-.11-.03-.23-.06-.35-.07-.05,0-.13-.01-.2-.01-.05,0-.1,0-.15,0-.3-.08-.61-.13-.92-.13s-.67.05-1.01.14c-.22.06-.37.26-.37.49,0,.23.17.43.39.48,0,0,.53.12,1,.52.19.57.75,1.25,1.74,2.13.03.03.06.06.09.09h0c.22.19.42.36.63.54.13.11.25.21.39.32.04.04.11.09.17.14.06.05.12.09.17.14.19.16.38.3.56.44.16.12.31.24.46.36.03.02.05.04.08.05l.12.09c.69.54,1.56,1.24,2.01,1.69-.62-.05-1.6-.27-2.63-.5l-.73-.16s-.03,0-.05-.01c-1.13-.25-2-.41-2.68-.48-.19-.02-.38-.03-.55-.04-.03,0-.05,0-.07,0-.13,0-.23,0-.32,0,0,0,0,0,0,0,0,0,0,0,0,0-.09,0-.19-.01-.29-.01-.73,0-1.43.23-2.09.68-.19.13-.26.37-.18.59.07.2.26.32.47.32.02,0,.04,0,.06,0,0,0,.08,0,.18,0,.16,0,.45.01.76.1.34.51,1.11,1.03,2.56,1.72.2.1.4.19.62.29.14.06.28.13.42.19.14.06.24.1.35.15.08.04.17.08.26.11l.08.03.31.13c1.07.46,2.6,1.11,3.15,1.51-.43.09-1.29.11-1.9.11-.19,0-.38,0-.58,0-.03,0-.06,0-.08,0h-.25c-.45,0-.84.02-1.2.06-.09,0-.19.02-.3.04h-.06c-.09.02-.21.04-.32.06-.12.02-.21.05-.3.08-.32.08-.6.23-.81.44-.14.14-.23.29-.28.45-.31.23-.59.53-.82.87-.13.19-.12.44.04.62.1.11.23.17.37.17.08,0,.16-.02.23-.06,0,0,.3-.15.72-.22,1.09.76,3.64,1.19,6.11,1.61,1.41.24,3.32.56,3.72.82.05.14.18.31.47.41.09.04.21.05.34.07.12.02.29.02.49.02.52,0,1.24-.06,2.1-.18.35-.04.73-.09,1.12-.15,1.92-.29,4.01-.67,5.42-.94,3.47-.65,6.64-1.34,6.67-1.34.21-.05.36-.22.39-.43.03-.21-.08-.42-.27-.51-2.26-1.12-8.36-4.29-9.44-5.58-1.35-1.61-1.9-3.31-1.85-4.21.02-.19-.04-.38-.11-.53,0-.02-.01-.04-.02-.06-.24-.6-.85-1.39-1.31-1.95-.1-.14-.22-.27-.35-.4-.39-.45-2.51-2.81-4.02-3.15-.52-.29-1.09-.44-1.7-.44h0Z"/>
      <path class="s" d="M87.3,112.56s.38.38.95.62c.34-.16.87-.22,1.51-.22,2.42,0,6.47.86,8.19.86.45,0,.74-.06.8-.2,0,0,0-.02.02-.03.02-.02.05-.03.1-.03t.03,0s.03,0,.04,0c.04,0,.08,0,.12.01h0s.11,0,.17.02c.12.03.24.06.38.11.17.05.36.13.57.2.02,0,.06.03.08.03.12.06.26.11.4.17.7.3,1.53.69,2.42,1.13.22.1.42.2.63.32.03,0,.05.02.06.02.19.09.38.2.58.3.05.02.09.04.13.07.18.09.34.18.52.27.07.03.13.07.21.11.15.08.31.16.46.24.58.3,1.16.61,1.73.92,3.14,1.69,5.94,3.29,5.94,3.29,0,0-9.06,1.39-10.88,2.54-1.82,1.15-2.98,2.69-3.25,3.77-.03.09-.09.19-.19.31h0c-.13.18-.35.38-.61.58-.08.07-.17.13-.26.21-.1.07-.2.15-.3.22-.04.02-.09.06-.14.11-.28.18-.57.37-.88.56-1.47.88-3.27,1.69-4.31,1.69-.08,0-.15,0-.22-.01-.19.04-.42.07-.66.07-.46,0-1-.11-1.58-.43,0,0,0,0,.02,0,.14,0,.92-.02,1.62-.48.16-.58.89-1.23,1.67-1.92.23-.21.47-.42.68-.63l.06-.04c.9-.87,1.61-1.78,1.16-2.64-.09-.18-.34-.25-.71-.25-.78,0-2.09.33-3.51.73h0s-.08.02-.11.03c-.02,0-.05.02-.08.02-.02,0-.04,0-.05.02h-.02c-.17.05-.35.1-.52.15l-4,1c-.14.03-.28.04-.41.06l-1.51-.08s-.04-.02-.06-.03c-.04-.02-.07-.05-.1-.08.03.03.06.06.1.08.01,0,.02.01.03.02-.01,0-.03,0-.04,0-.48,0-1.05-.14-1.64-.52,0,0,.05,0,.13,0,.24,0,.8-.03,1.36-.3h0c.11-.2.31-.4.58-.59.13-.1.28-.2.46-.29.03-.03.06-.04.09-.06.15-.08.32-.17.48-.25.2-.1.42-.2.63-.3.44-.19.93-.39,1.41-.58.48-.2.98-.38,1.46-.56h0c1.74-.67,3.26-1.23,3.3-1.63.05-.5-2.07-.62-4.18-.81h-.05s0,0,0,0c0,0,0,0,0,0-.54-.04-1.08-.1-1.59-.16-.1-.02-.2-.03-.29-.04-.27-.03-.53-.08-.75-.13-.08-.02-.17-.03-.26-.06-.25-.05-.45-.12-.63-.19-.02,0-.05-.02-.06-.03-.54-.13-1.2-.45-1.75-1.17,0,0,.53.24,1.23.24.03,0,.07,0,.1,0h0c.18-.21.53-.37.97-.51.24-.07.52-.13.83-.19.12-.03.23-.05.35-.07.21-.04.42-.07.63-.1.48-.07.99-.12,1.5-.18.1,0,.2-.02.31-.02,2.22-.23,4.43-.41,4.49-.94.08-.56-1.43-.96-2.88-1.44-.02,0-.04,0-.04,0h0c-.38-.13-.76-.25-1.12-.39-.09-.04-.18-.08-.28-.13-.08-.02-.14-.06-.22-.1-.1-.05-.2-.1-.29-.16-.07-.03-.13-.07-.18-.12-.39-.26-.63-.56-.56-.91-.22-.28-.43-.64-.56-1.09M87.3,112.06c-.09,0-.18.02-.26.07-.2.12-.29.35-.22.57.12.39.29.76.53,1.1,0,.34.17.76.76,1.16.09.07.18.12.25.16.1.06.21.12.31.17.08.04.16.08.25.12l.16.07.09.04c.32.13.62.23.94.34l.22.08s.09.02.13.03l.49.16c.59.19,1.43.46,1.81.68-.61.21-2.13.36-3.29.48l-.6.06h-.11s-.1.02-.14.02c-.02,0-.04,0-.06,0-.51.06-1.03.12-1.51.18l-.2.03c-.16.02-.31.05-.47.08-.11.02-.25.04-.39.08-.25.04-.55.11-.84.19-.47.15-.79.3-1.02.49-.52-.02-.92-.2-.93-.2-.07-.03-.14-.04-.2-.04-.15,0-.3.07-.39.19-.14.18-.14.43,0,.61.65.85,1.42,1.2,1.97,1.34.03.01.05.02.07.03.19.08.43.16.69.21.07.02.16.04.26.06.2.05.45.1.79.14.1,0,.18.02.27.04.54.06,1.09.12,1.64.16.01,0,.03,0,.04,0,0,0,0,0,.01,0,0,0,0,0,0,0h.05l.7.06c.89.08,2.03.18,2.66.31-.58.3-1.7.72-2.56,1.05l-.09.03s-.04.02-.06.03c-.46.17-.95.35-1.42.55-.43.16-.91.36-1.42.58-.23.11-.45.21-.66.31-.18.09-.35.17-.5.26-.02.01-.07.04-.13.08-.16.09-.32.19-.48.31-.26.18-.48.38-.63.59-.44.18-.86.2-1.03.2-.05,0-.08,0-.09,0-.01,0-.02,0-.03,0-.21,0-.41.14-.48.34-.07.22.01.45.2.58.6.39,1.25.59,1.89.6.02,0,.04,0,.06,0l1.51.08s.02,0,.02,0c.02,0,.04,0,.06,0,.14-.02.28-.04.43-.06l4.04-1.01.27-.08.24-.07s.03,0,.04-.01h0s.04-.01.07-.02l.07-.02s0,0,0,0c.03,0,.05,0,.08-.01,1.32-.37,2.65-.71,3.38-.71.17,0,.25.02.29.03.2.47-.12,1.07-1.06,1.98l-.03.02s-.04.03-.06.05c-.14.14-.29.28-.44.41l-.23.21c-.79.7-1.47,1.31-1.74,1.95-.55.3-1.14.31-1.21.31-.23,0-.44.15-.49.37-.06.22.03.45.23.56.58.33,1.2.5,1.82.5.23,0,.46-.02.69-.07.06,0,.13,0,.19,0,1.2,0,3.15-.91,4.57-1.76.21-.13.4-.25.59-.37l.3-.19s.06-.04.09-.07c.01-.01.02-.02.05-.03.08-.05.14-.09.19-.14.04-.03.08-.06.13-.09l.29-.23c.31-.25.54-.47.69-.65h0c.17-.2.25-.35.29-.5.23-.9,1.28-2.36,3.04-3.48,1.42-.9,8.2-2.09,10.69-2.47.21-.03.38-.19.42-.4.04-.21-.06-.42-.24-.53-.03-.02-2.84-1.62-5.95-3.3-.58-.31-1.16-.62-1.74-.92-.07-.04-.15-.08-.23-.12-.07-.04-.14-.07-.21-.11-.08-.05-.15-.08-.23-.12l-.25-.13-.25-.13s-.08-.05-.17-.08c-.07-.04-.15-.08-.22-.12-.11-.06-.21-.11-.32-.16-.04-.02-.07-.04-.1-.05-.21-.11-.41-.21-.63-.31-.98-.49-1.78-.86-2.43-1.14l-.14-.06c-.09-.03-.17-.07-.25-.1-.02,0-.03-.02-.05-.02-.03-.01-.06-.03-.08-.03l-.16-.06c-.15-.06-.3-.11-.42-.15-.08-.03-.18-.06-.28-.08l-.1-.03c-.11-.03-.19-.04-.27-.04-.06,0-.11-.01-.16-.01-.02,0-.04,0-.07,0-.04,0-.08,0-.12.02-.13.02-.24.08-.33.17-.02.02-.03.04-.05.06-.06.01-.19.03-.42.03-.76,0-2.03-.18-3.38-.37-1.62-.23-3.46-.49-4.81-.49-.63,0-1.13.06-1.5.18-.37-.19-.6-.42-.61-.43-.1-.1-.22-.15-.35-.15h0Z"/>
      <path class="w" d="M21.89,78.77s-5.61,2.33-5.99,6.48,5.8,5.06,5.8,5.06c0,0,7.58,7.39,12.23,7.51,4.65.13,7.29-1.01,9.68.13s4.65,3.39,8.67,4.15c4.02.75,6.66-.63,8.42.38s3.52,5.03,6.03,6.03,10.45-1.13,16.62,2.17,5.04,7.6,8.05,8.6,11.62,6.17,16.79,8.18c5.17,2.01,8.32,4.59,17.93,14.49s16.5,12.77,18.79,17.07,3.01,10.47,11.05,17.93,24.82,11.33,40.32,12.77c15.5,1.43,23.96,3.59,32.86,1.58s8.46-6.17,18.94-5.17c10.47,1,13.92-1,18.79.14,4.88,1.15,5.88,2.44,7.32,2.15s7.89-16.21,6.6-17.79-9.76-3.73-13.49-10.9c-3.73-7.17-3.3-9.61-5.17-12.63-1.87-3.01-2.77-4.02-4.49-8.61-1.72-4.59-1.82-8.03-4.83-13.62-3.01-5.6-1.87-11.05-9.04-19.66-7.17-8.61-20.23-21.66-27.26-24.1-7.03-2.44-6.03,0-8.9-1.72s-1.72-6.31-9.18-9.76-9.04-5.31-18.79-8.46c-9.76-3.16-11.76-3.73-14.49-5.02s-5.02-4.45-10.9-6.89-7.75,0-10.33-2.3-4.73-5.02-10.47-6.74-17.11,1.04-22.9,3.1-13.11-.09-20.14.34c0,0-19.51,3.14-23.8,4.39s-6.52,2.59-11.43,3.93c-4.91,1.34-9.65,4.82-13.13,8.84-3.48,4.02-8.4,5.72-11.88,7.77s-6.89,6.6-8.28,10.17Z"/>
      <path class="t" d="M280.8,170.64c-1.29-1.58-9.76-3.73-13.49-10.9-3.73-7.17-3.3-9.61-5.17-12.63-1.14-1.84-1.92-2.93-2.74-4.55-1.37-1.25-2.99-2.99-4.42-2.56-1.29.39-.7,1.97-1.19,3.04-.59,1.29.46,1.93-.69,3.2-.61.66-.25,1.33-.16,2.73.17,2.76.71,1.92,1.11,3.97.49,2.5-2.49,2.77-3.53,4.68-1.19,2.19,1.2,3.67-.81,6.13-.64.78-2.68,1.31-3.07,2.24-.54,1.28-3.03,1.06-4.05,2.77-1.29,2.15-2.87-.16-4.52,1.67-1.73,2.08-.81,4.65-5.09,8.35.82,2.41.41,2.5.08,4.63-.35,2.28-.33,4.42.71,6.36,4.58-2.04,6.09-4.44,14.32-3.65,10.47,1,13.92-1,18.79.14,4.88,1.15,5.88,2.44,7.32,2.15,1.43-.29,7.89-16.21,6.6-17.79Z"/>
      <path class="u" d="M207.63,79.39c-2.87-1.72-1.72-6.31-9.18-9.76-7.46-3.44-9.04-5.31-18.79-8.46-9.76-3.16-11.76-3.73-14.49-5.02-2.73-1.29-5.02-4.45-10.9-6.89-5.88-2.44-7.75,0-10.33-2.3s-4.73-5.02-10.47-6.74-17.11,1.04-22.9,3.1c-4.23,1.51-9.26.77-14.41.43.44,1.51,1.16,3.03,2.29,4.53,1.74,2.33,4.29,4.04,5.97,6.42,2.14,3.03,4.36,2.14,6.84,4.21,1.3,1.09,1.4,2.92,3.24,3.81,2.3,1.12,2.12-.34,4.04-.36,3.2-.02,5.74,3.52,8.88,1.1,2.03-1.56.89-2.48,3.84-2.9,3.84-.55,4.31.97,7.02,2.05,1.5.6,2.19.37,3.72.43,3.08.11,5.46.52,8.57,2.82,1.44,1.07,2.41,2.87,3.94,3.75,1.23.71,2.95.74,4.38,1.55,1.81,1.01,2.87,2.87,4.36,4.25,1.91,1.76,4.09,2.19,6.34,3.26,2.15,1.02,3.9,2.46,5.3,4.61.88,1.35.89,3.37,1.72,4.54.98,1.37,2.63,1.35,3.76,2.42,1.85,1.75,2.19,4.04,1.92,6.48-.2,1.73-1.24,3.21-1.4,4.88-.16,1.61.79,2.43.75,4.02-.09,3.79-4.27,6.01-4.84,9.63-.25,1.55.87,2.67-.02,4.39-.85,1.65-2.49,1.54-3.73,2.52-3.17,2.49-2.55,2.63-6.65,2.47-3.26-.13-5.39-.03-8.71-1.13-2.74-.91-4.78-.08-7.52-.59-1.58-.3-2.26-.99-3.99-.5-1.69.48-.83.59-2.81.48-1.07-.06-2.76-1.25-3.98-1.49-1.47-.28-2.61.19-3.99-.56-1.42-.76-3.55-1.07-5.01-1.85-1.31-.7-2.52-.73-3.75-1.48-1.78-1.08-2.52-2.91-3.75-4.67-.88-1.26-6.81-3.27-8.25-4.01-3.43-1.77-3.59-.35-6.94-2.57-2.02-1.34-.63-3.47-4.61-5-1.55-.6-3.57-1.14-4.57-1.42-1.59-.44-4.36,3.69-6.24,3.7-1.36,0-2.23-1.18-4.1-.72-5.91,1.46-7.14,2.36-11.43,5.87-.02.07,6.67,1.92,6.65,1.99.66.41.6,1.51,1.84,3.42s3.2,4.18,6.21,5.18c3.01,1,11.62,6.17,16.79,8.18,5.17,2.01,8.32,4.59,17.93,14.49,9.61,9.9,16.5,12.77,18.79,17.07,2.3,4.3,3.01,10.47,11.05,17.93,8.03,7.46,24.82,11.33,40.32,12.77,15.5,1.43,23.96,3.59,32.86,1.58.88-.2,1.65-.42,2.37-.66.22-2.83-.49-5.72-2.52-8.06-1.83-2.1-6.09-5.21-8.65-6.03-3.33-1.07-7.35-.68-8.82-4.7-.76-2.07.27-2.49-1.53-4.63-1.02-1.21-2.95-2.34-3.07-3.98-.13-1.73,1.59-2.35,1.49-4.1-.11-1.79-2.29-2.44-3.03-3.92-1.19-2.37.46-2.5.36-4.73-.07-1.54-1.88-3.56-2.5-5.01-2.32-5.49,3.81-3.6,2.1-8.41-.57-1.59-2.76-2.63-1.51-4.44.87-1.27,3.16-.8,4.48-.78.56-2.68-4.19-2.18-2.3-5.03,1.39-2.09,5.15.59,5.82-.91.93-2.07-3.62-2.72-1.39-5.12,1.33-1.43,5.08.14,3.04-3.33,2.02-.02,3.64,1.3,5.52,2.06.58.23,2.5,1.18,3.18,1.05.85-.16.78-1.03,1.22-1.15,2.15-.57,2.83-1.08,5.53-.06,1.92.73,3.43,1.75,5.53,1.95,2.15.2,2.67-.65,5.14.51,2.3,1.07,3.94,2.57,5.8,4.25,3.03,2.72,6.38,4.71,10.24,5.75-.61-2.06-1.38-4.25-2.83-6.95-3.01-5.6-1.87-11.05-9.04-19.66-7.17-8.61-20.23-21.66-27.26-24.1-7.03-2.44-6.03,0-8.9-1.72Z"/>
      <path class="w" d="M158.21,57.22c.72.32,1.68,1.26,2.48,1.18,1.13-.11,1.88-1.44,2.78-1.9.56-.29,1.1-.38,1.63-.38-2.7-1.31-5.01-4.43-10.84-6.86-5.88-2.44-7.75,0-10.33-2.3s-4.73-5.02-10.47-6.74-17.11,1.04-22.9,3.1c-4.23,1.51-9.26.77-14.41.43.06.19.13.38.19.57.27-.04.54-.09.81-.12,2.45-.33,3.41-.22,5.63.62,2.08.79,3.5-.09,5.56.03,2.12.12,3.27,1.86,5.27,1.91,1.96.04,3.81-1.45,5.84-.76,2.03.69,2.36,2.56,4.71,1.97,2.55-.63,3.41-1.39,5.63.5,1.91,1.63,2.61,2.79,5.21,2.57,1.14-.1,2.31-.55,3.56-.19,1.45.41,1.2.79,2.35,1.91,2.22,2.16,5,.35,7.3,1.63,2.23,1.25,1.61,4.07,4.88,3.12,2.08-.6,2.93-1.26,5.12-.28Z"/>
      <path class="w" d="M83.85,111.29c.37.66.12.9,1.36,2.81,1.24,1.91,3.2,4.18,6.21,5.18,3.01,1,11.62,6.17,16.79,8.18,4.11,1.6,6.96,3.57,12.79,9.3,3.36-.37,6.83-2.93,8.48-5.53.87-1.37,1.28-3.35.1-4.63-1.46-1.58-3.38-.56-5.24-1.03-2.62-.66-3.93-4.05-6.58-4.35-2.19-.25-2.9,1.51-4.87-.2-1.87-1.62-2.78-4.35-5.63-3.92-2.58.39-2.84,1.36-5.07-.53-.81-.68-.34-.88-1.66-1.13-.79-.15-1.37.28-2.13.21-2.45-.23-2.46-2.18-3.69-3.71-1.33-1.65-10.84-.64-10.84-.64Z"/>
      <path class="n" d="M34.58,66.27c-1.57.82-3.1,1.55-4.42,2.33-3.48,2.05-6.89,6.6-8.28,10.17,0,0-5.61,2.33-5.99,6.48-.38,4.15,5.8,5.06,5.8,5.06,0,0,7.58,7.39,12.23,7.51.05,0,.08,0,.13,0,4.09-2,6.29-4.03,4.48-8.72-1.39-3.59-4.79-5.96-8.43-4.7-1.12.39-2.76-.02-3.94-.1-2.62-.17-3.21-2.64-1.87-4.89,1.34-2.25,4.49-3.56,6.76-4.88,2.27-1.32,3.62-4.42,3.68-7.04,0-.43-.05-.84-.16-1.23Z"/>
      <path class="n" d="M39.42,74.19c-.79.42-1.56.93-2.09,1.64s-.78,1.69-.46,2.53c.37.95,1.41,1.51,2.42,1.6s2.02-.18,3.01-.45c2.03-.57,4.06-1.13,6.09-1.7,1.16-.32,2.35-.66,3.31-1.38s1.66-1.92,1.45-3.1c-.59-3.19-4.36-2.26-6.38-1.54-2.46.87-5.01,1.14-7.35,2.4Z"/>
      <path class="n" d="M247.3,179.14c-1.41-1.08-1.94-3.12-3.97-3.61-2.46-.59-4.47,1.78-6.83,1.53-2.58-.28-3.17-2.83-5.24-3.93-2.48-1.31-5.08-.13-7.72-.08-3.19.07-4.24-2.35-6.82-2.79-1.55-.27-3.74,1.12-5.45,1.11-2.78-.01-4.66-1.24-6.82-2.66-3.77-2.48-8.09-2.26-10.15-6.92-2.36-5.35-4.69-7.81-10.68-5.58-2.55.95-3.44.16-5.98-.25-2.28-.37-2.89,1.07-5.05,1.2-2.41.14-3.1-1.49-4.25-3.23-1.45-2.21-1.68-2.47-4.1-3.28-2.64-.88-3.97-1.21-5.44-3.75-1.11-1.92-1.34-3.62-3.28-5.04-3.54-2.6-7.74-3.22-9.89-7.69-1.67-3.47-2.01-7.14-6.14-9.08-2.44-1.14-2.66.01-4.79.53-1.63.4-3.51-.39-5,.41-1.69.91-2.27,3.26-3.96,4.38-2.74,1.83-2.29.37-4.79-.95-1.66-.88-3.31-1.01-5-2.17-1.39-.96-2.86-2.77-4.57-3.02-2.67-.38-3.68,1.02-3.9,2.89.25.1.49.21.73.3,5.17,2.01,8.32,4.59,17.93,14.49,9.61,9.9,16.5,12.77,18.79,17.07,2.3,4.3,3.01,10.47,11.05,17.93,8.03,7.46,24.82,11.33,40.32,12.77,15.5,1.43,23.96,3.59,32.86,1.58,8.9-2.01,8.46-6.17,18.94-5.17,5.64.54,9.24.21,12.13-.04-1.38-2.51-4.91-4.87-6.9-5.46-2.2-.66-4.07,0-6.02-1.5Z"/>
      <path class="n" d="M257.66,138.5c-1.72-4.59-1.82-8.03-4.83-13.62-3.01-5.6-1.87-11.05-9.04-19.66-7.17-8.61-20.23-21.66-27.26-24.1-7.03-2.44-6.03,0-8.9-1.72-2.87-1.72-1.72-6.31-9.18-9.76-7.46-3.44-9.04-5.31-18.79-8.46-8.34-2.7-11.01-3.51-13.32-4.49-.3,1.32-.51,2.52-.25,4.26.32,2.13,1.34,6.68,2.97,8.12,1.15,1.02,2.69.8,3.95,1.62,2.13,1.39,2.35,3.73,5.08,3.04,1.35-.34,2.23-1.3,3.55-1.11,1.35.2,3.04,1.84,3.96,2.69,2.52,2.31,3.35,4.28,6.64,4.79,2.98.46,5.53,2.11,7.33,4.52.57.76.96,1.8,1.81,2.32,1.13.7,2.49.42,3.61,1.27,2.49,1.9,2.43,5.82,4.83,7.69,1.24.97,2.89.72,4.26,1.44,1.96,1.04,2.55,2.8,3.43,4.7.73,1.57,1.91,5.01,3.45,5.98.6.38,1.71.27,2.42.64,2.32,1.23,2.3,3.88,3.99,5.56.65.65,1.98,1.85,2.98,1.91,1.05.05,2.1-1.17,3.23-1.09,1.67.13,2.94,2.13,4.38,2.8,1,.47,2.18.32,3.25.86,1.32.66,1.91,2.14,2.55,3.39.89,1.74,1.41,1.89,2.83,3.04,1.02.82,1.22,1.94,1.61,3.15.77,2.38,2.91,3.76,3.84,6.23.65,1.7,1.15,2.68,2.53,3.83,1.84,1.53,1.97,1.77,1.68,4-.18,1.41-.34,3.31.23,4.68.62,1.49,1.45,2.08,1.56,3.87.09,1.56-.52,3.59.4,5,.7,1.07,1.61,1.37,2.26,2.57.84,1.53,1.47,3.91,3.75,4.12.87.08,2.04-.69,2.9-.95.33-.1.65-.17.98-.23-.36-.52-.7-1.06-1.01-1.64-3.73-7.17-3.3-9.61-5.17-12.63-1.87-3.01-2.77-4.02-4.49-8.61Z"/>
      <path class="p" d="M208.34,84.47c1.83,1.08,4.59.13,6.28,1.64,1.7,1.51,2.77,5.18,4.02,7.21"/>
      <path class="v" d="M238.44,178.97c-2.26.96-3.83-1.61-5.35-2.27-2.71-1.17-4.01-.3-6.18,1.21-2.29,1.6-4.41,1.16-6.91,2.25-4.5,1.95-7.99-3.07-12.53-3.79-5.58-.88-11.06-2.91-16.47-4.82-1.02-.36-1.77-.28-2.8-.47-1.94-.34-2.03-.8-3.83-2.22-1.86-1.46-3.7-1.49-5.93-1.75-1.25-.15-1.49.36-2.62-.25-2.24-1.21-3.79-4.68-5.33-6.59-2.6-3.25-5.61-2.85-8.96-4.64-2.07-1.11-3.23-3.49-5.78-4.07-2.54-.58-4.9.85-7.28-.57-1.5-.9-2.37-2.73-3.92-3.39-1.06-.45-2.27-.27-3.36-.56-2.92-.77-4.12-2.91-6.62-4.36-1.21-.7-.25-1.99-1.37-2.97-1.06-.92-2.36-2.11-3.51-2.99-1.19-.91-.97-2.23-2.3-3.08-1.63-1.04-1.51-3.06-4.01-4.07-1.63-.66-6.55-.98-8.29-2.97-1.14-.96-2.35-2.15-3.71-2.35-2.67-.38-3.68,1.02-3.9,2.89.25.1.49.21.73.3,5.17,2.01,8.32,4.59,17.93,14.49,9.61,9.9,16.5,12.77,18.79,17.07,2.3,4.3,3.01,10.47,11.05,17.93,8.03,7.46,24.82,11.33,40.32,12.77,15.5,1.43,23.96,3.59,32.86,1.58,8.9-2.01,8.46-6.17,18.94-5.17,5.64.54,9.24.21,12.13-.04-1.38-2.51-4.91-4.87-6.9-5.46-2.2-.66-4.07,0-6.02-1.5-.41-.31-.74-.71-1.06-1.12-3.33-.03-6.23.29-7.8.95Z"/>
      <path class="n" d="M57.42,70.36c.21-.25.47-.47.73-.67.87-.7,1.25-1.54,1.89-2.42,1.57-2.15,3.84-2.55,6.19-2.84,2.22-.27,4.08-1.77,6.25-2.11,2.38-.37,4.09-.42,6.18-1.8,1.95-1.29,4.02-1.95,5.88-3.64,2.14-1.95,5.01-2.56,7.49-4.17,2.04-1.32,3.97-3.48,6.34-4.3,2.81-.96,6.14.83,7.49,3.36,1.26,2.35,1.03,4.7.23,7.03-.35,1.01-.65,2.06-.99,3.09-.41,1.25-.42,2.98-1.08,4.19-1.22,2.24-3.75,2.18-3.01,5.21.64,2.62,3.17,4.36,2.99,7.22s-.04,4.99-1.53,7.26-2.35,5.09-5.41,6.02c-2.69.82-5.83-.16-7.45-2.65-.36-.55-.46-1.32-.84-1.89-.62-.96-1.56-1.54-2.47-2.23-1.78-1.35-3.26-3.12-4.99-4.56-1.83-1.53-4.29-2.16-6.65-2.35-1.03-.08-2.15.15-3.17,0-1.14-.17-2.1-.81-3.25-1.05-2.45-.5-4.92.38-7.03-1.15-1.13-.82-1.67-1.45-2.97-1.95-.3-.11-.67-.23-1.03-.38-.54-.22-1.04-.78-1.23-1.36-.18-.54.11-1.13.61-1.41l.83-.46Z"/>
      <path class="u" d="M63.65,102.57c1.69-1.24,2.85-2.24,3.89-4.06.57-1,1.39-2.06,1.87-3.07.67-1.43.3-3-.29-4.37-1.09-2.55-2.13-5.15-4.72-6.43-1.55-.77-3.65-1.54-5.25-.39-1.51,1.08-1.17,3.51-2.81,4.63-2.83,1.93-6.36-1.81-8.71,1.35-1.8,2.41-3.1,5.17-3.36,8.07,2.16,1.2,4.36,3.12,8.02,3.8,4.02.75,6.66-.63,8.42.38.49.28.98.8,1.49,1.42.37-.5.81-.84,1.46-1.32Z"/>
      <path class="t" d="M57.74,86.82c-.76-.09-1.56.01-2.2.42-1.09.7-1.48,2.23-1.03,3.45s1.62,2.08,2.88,2.38,2.6.08,3.81-.39c.69-.27,1.43-.73,1.53-1.46.07-.49-.17-.97-.45-1.39-1.08-1.63-2.58-2.79-4.55-3.01Z"/>
      <circle class="n" cx="59.1" cy="89.43" r="1.02"/>
      <path class="u" d="M61.25,49.94c-1.75.67-3.56,1.36-6.07,2.05-4.91,1.34-9.65,4.82-13.13,8.84-.68.78-1.42,1.46-2.19,2.08,1.64,1.15,3.54,1.99,5.53,2.55,3.79,1.06,4.29-4.06,7.71-4.27,1.98-.12,3.21,2.01,5.06,1.94,1.97-.07,3.15-1.97,3.91-3.52,1.27-2.6.49-5.29-.2-7.97-.15-.58-.35-1.16-.62-1.69Z"/>
      <path class="t" d="M54.55,62.85c-.76.09-1.56-.01-2.2-.42-1.09-.7-1.48-2.23-1.03-3.45s1.62-2.08,2.88-2.38,2.6-.08,3.81.39c.69.27,1.43.73,1.53,1.46.07.49-.17.97-.45,1.39-1.08,1.63-2.58,2.79-4.55,3.01Z"/>
      <circle class="n" cx="55.42" cy="58.79" r="1.02"/>
      <path class="v" d="M21.89,78.77s-5.61,2.33-5.99,6.48c-.38,4.15,5.8,5.06,5.8,5.06,0,0,7.58,7.39,12.23,7.51.05,0,.08,0,.13,0,2.65-1.29,4.49-2.6,4.98-4.64-.76-.83-1.94-1.44-2.86-1.72-1.17-.35-2.34-.59-3.52-.88-2.25-.55-4.12-1.2-6.29-2.16-1.98-.87-3.42-1.56-4.33-3.6-1.73-3.89,1.99-7.05,4.39-9.75,1.39-1.57,2.93-3.11,4.49-4.53.99-.9,2.89-1.92,3.8-3.23,0-.36-.06-.72-.15-1.06-1.57.82-3.1,1.55-4.42,2.33-3.48,2.05-6.89,6.6-8.28,10.17Z"/>
      <path class="o" d="M21.89,78.77s-5.67,2.38-6.05,6.53c-.26,2.91,2.01,4.08,5.86,5.1.08-.05.01.05.09,0,5.25-3.27,3.66-9.61.1-11.63Z"/>
      <path class="r" d="M24.07,80.91c-.63-.36-1.31-.57-2.02-.47-3.44.47-6.15,4.31-3.17,6.98,1.46,1.3,3.13,1.45,5.1.96,1.7-2.38,1.42-5.34.09-7.47Z"/>
      <path class="v" d="M218.64,93.32c1.54,2.5,3.56,3.37,5.33,5.33.83.92,1.49,2.25,2.61,2.99.92.61,2.03.58,2.97,1.18,2.2,1.42,3.17,3.87,4.56,5.58,1.8,2.21,4.57,2.38,6.61,4.02,2.02,1.62,3.82,4.23,4.38,6.9.58,2.8,4,2.67,5.42,5.11,1.38,2.39,2,7.15,4.12,9.06,1.99,1.8,3.06,4.88,3.52,7.81.85,5.46,3.91,7.84,1.97,13.45-.3.87-.39,1.73-.32,2.56.31.3.62.64.88,1.12.84,1.53,1.47,3.91,3.75,4.12.87.08,2.04-.69,2.9-.95.33-.1.65-.17.98-.23-.36-.52-.7-1.06-1.01-1.64-3.73-7.17-3.3-9.61-5.17-12.63-1.87-3.01-2.77-4.02-4.49-8.61-1.72-4.59-1.82-8.03-4.83-13.62-3.01-5.6-1.87-11.05-9.04-19.66-7.17-8.61-20.23-21.66-27.26-24.1-7.03-2.44-6.03,0-8.9-1.72-2.87-1.72-1.72-6.31-9.18-9.76-5.78-2.67-8.05-4.39-13.31-6.5,1.78,3.84,7.69,7.2,10.28,9.31,4.57,3.73,7.91,9.06,12.92,12.03l10.3,8.84Z"/>
      <path class="t" d="M114.73,125.72c-6.17-4.03-14.77-4.5-21.17-8.54-2.41-1.52-6.98-4.51-9.72-5.89,1.28,4.37,5,7.23,7.51,8.03,2.99.96,11.5,6.02,16.59,8.03,4.75,1.87,7.9,4.12,16,12.36-.72-5.61-4.5-10.9-9.22-13.98Z"/>
      <path class="t" d="M165.02,56.1c-2.69-1.29-4.97-4.41-10.78-6.85-5.81-2.44-7.63-.05-10.18-2.33s-4.69-4.97-10.35-6.71c-4.23-1.29-11.52-.15-17.32,1.34,1.11.55,2.26,1,3.53,1.17,6.33.87,13.63,2.83,19.75,4.77,3.4,1.08,5.47,3.28,9.2,4.2,5.33,1.31,9.65,5.02,14.84,6.65,1.46.46,4.44,1.69,5.83.53.28-.23.43-.51.52-.8-2.34-.8-3.59-1.29-5.04-1.98Z"/>
      <path class="k" d="M243.79,105.22c7.17,8.6,6.03,14.06,9.04,19.66,1.44,2.69,2.22,4.88,2.83,6.94.66,2.23,1.11,4.29,2.01,6.68.32.87.62,1.6.89,2.24.3.7.58,1.3.85,1.83.17.3.32.58.47.87.16.28.31.54.46.79.33.53.66,1.04,1.03,1.63.1.15.2.32.31.48.15.25.31.51.48.78,1.88,3.01,1.43,5.45,5.17,12.62.16.29.31.58.48.85.16.28.33.54.51.79,4.06,5.88,11.31,7.81,12.5,9.26,1.29,1.58-5.17,17.51-6.59,17.8-1.43.28-2.44-1.01-7.32-2.15-2.25-.53-4.2-.38-6.67-.18-1.98.17-4.31.38-7.4.32-.28,0-.57-.02-.86-.02-1.17-.03-2.45-.12-3.87-.25-.37-.03-.73-.06-1.07-.08-.26-.02-.52-.03-.78-.04-.56-.02-1.08-.04-1.56-.03-.21,0-.4,0-.58.02-.08,0-.16,0-.24,0-.19,0-.38.02-.56.04-.63.06-1.19.14-1.72.25-.25.05-.49.11-.73.18-.74.19-1.39.44-2.02.72-.24.11-.48.21-.7.33-.18.09-.34.18-.51.26-.52.27-1.02.55-1.55.83-.68.37-1.4.75-2.23,1.13-.03.02-.06.03-.08.03-.96.43-2.06.84-3.38,1.2-.19.06-.4.12-.61.16-.21.06-.43.11-.64.16-8.89,2.01-17.35-.14-32.85-1.58-15.49-1.43-32.28-5.32-40.31-12.77-8.04-7.47-8.75-13.64-11.04-17.93-2.29-4.31-9.19-7.19-18.8-17.08-.78-.79-1.5-1.53-2.19-2.24-1.27-1.28-2.4-2.42-3.45-3.43-.35-.35-.69-.68-1.03-.99-.28-.26-.53-.5-.79-.74-3.43-3.22-5.78-4.91-8.35-6.15-.13-.06-.26-.13-.38-.18-.25-.12-.52-.23-.78-.35-.18-.08-.37-.17-.55-.23-.22-.1-.43-.18-.66-.28-.03-.02-.06-.02-.1-.03-.12-.05-.23-.1-.36-.16-.18-.07-.36-.14-.53-.22-1.55-.67-3.32-1.53-5.11-2.46-.34-.18-.69-.36-1.03-.53-.22-.1-.41-.21-.61-.31-3.64-1.89-7.14-3.78-8.85-4.32-2.5-.8-6.23-3.66-7.51-8.03q-.1-.2-.16-.3t-.31-.31s-.02-.02-.09-.04c-.62-.22-4.08-1.19-5.71-1.68,0,0-.02,0-.04,0-4.61-.58-9.01.26-10.78-.44-1.81-.73-3.24-3.03-4.55-4.62-.1-.12-.19-.24-.3-.35-.2-.23-.4-.44-.59-.62-.2-.18-.4-.33-.59-.45-1.76-1.01-4.39.38-8.42-.38-.51-.09-.98-.22-1.43-.35-.22-.07-.44-.14-.65-.22-.23-.07-.43-.16-.63-.24-.42-.17-.81-.34-1.18-.54-.37-.18-.73-.39-1.07-.58-.34-.19-.67-.4-.99-.61-.15-.08-.28-.17-.43-.26-.28-.18-.56-.36-.83-.52-.23-.14-.44-.28-.66-.39-.28-.16-.54-.31-.82-.43-2.36-1.13-4.97-.02-9.54-.13-.05,0-.08,0-.13,0-4.64-.13-12.23-7.51-12.23-7.51,0,0-6.19-.92-5.8-5.07.38-4.14,5.99-6.47,5.99-6.47,1.38-3.58,4.78-8.12,8.28-10.18.8-.47,1.68-.93,2.61-1.39.59-.31,1.19-.61,1.81-.93,1.78-.93,3.62-1.97,5.29-3.34l-.03-.03c.78-.63,1.52-1.3,2.18-2.08,1.82-2.1,3.98-4.04,6.32-5.62.48-.33.97-.63,1.47-.92.49-.29.99-.56,1.49-.81.24-.13.5-.25.76-.36.43-.2.87-.38,1.3-.55.59-.23,1.2-.42,1.8-.58,1.26-.34,2.34-.69,3.32-1.03.25-.08.49-.18.73-.26.21-.08.41-.14.61-.23.23-.08.44-.16.66-.24.26-.09.51-.19.76-.29,1.68-.64,3.28-1.28,5.37-1.88,4.28-1.25,23.8-4.39,23.8-4.39,1.9-.12,3.83-.04,5.74.08,3.39.23,6.74.63,9.84.44.2-.02.38-.03.57-.05.38-.03.75-.07,1.11-.13,1-.13,1.97-.37,2.89-.69,1.6-.57,3.63-1.19,5.83-1.76.29-.07.58-.15.9-.22.25-.07.51-.13.77-.18.56-.14,1.13-.27,1.73-.39.48-.08.97-.18,1.44-.28.53-.1,1.08-.19,1.61-.28,4-.62,7.93-.81,10.62,0,5.74,1.73,7.9,4.45,10.48,6.74,2.26,2.01,3.97.4,8.3,1.58,0,0,0,0,.02,0,.45.13.94.29,1.47.48.18.07.36.14.53.22.73.31,1.39.63,2.03.94,0,0,.02.02.03.02,4.33,2.26,6.37,4.77,8.71,5.89,0,0,.03.02.04.03,0,0,.02,0,.04,0,.03,0,.04.03.07.03,2.73,1.29,4.73,1.86,14.49,5.02,2.67.87,4.73,1.63,6.44,2.36,2.63,1.1,4.52,2.12,6.65,3.25.11.06.23.13.33.18.38.19.76.39,1.17.6.86.46,1.8.93,2.87,1.43.43.21.87.42,1.33.63,7.46,3.44,6.31,8.04,9.18,9.76s1.87-.72,8.89,1.73c7.04,2.43,20.09,15.49,27.27,24.1Z"/>
      <path class="i" d="M260.22,186.1c-1.98.17-4.31.38-7.4.32-.28,0-.57-.02-.86-.02-1.17-.03-2.45-.12-3.87-.25-.37-.03-.73-.06-1.07-.08-.26-.02-.52-.03-.78-.04-.56-.02-1.08-.04-1.56-.03-.21,0-.4,0-.58.02-.08,0-.16,0-.24,0-.19,0-.38.02-.56.04-.63.06-1.19.14-1.72.25-.25.05-.49.11-.73.18-.74.19-1.39.44-2.02.72-.24.11-.48.21-.7.33-.18.09-.34.18-.51.26-.52.27-1.02.55-1.55.83-.68.37-1.4.75-2.23,1.13-.03.02-.06.03-.08.03-.96.43-2.06.84-3.38,1.2-.19.06-.4.12-.61.16-.21.06-.43.11-.64.16-8.89,2.01-17.35-.14-32.85-1.58-15.49-1.43-32.28-5.32-40.31-12.77-8.04-7.47-8.75-13.64-11.04-17.93-2.29-4.31-9.19-7.19-18.8-17.08-.78-.79-1.5-1.53-2.19-2.24"/>
      <path class="i" d="M170.06,58.06c2.05.69,4.94,1.6,9.59,3.11,2.67.87,4.73,1.63,6.44,2.36,2.63,1.1,4.52,2.12,6.65,3.25.11.06.23.13.33.18.38.19.76.39,1.17.6.86.46,1.8.93,2.87,1.43.43.21.87.42,1.33.63,7.46,3.44,6.31,8.04,9.18,9.76s1.87-.72,8.89,1.73c7.04,2.43,20.09,15.49,27.27,24.1,7.17,8.6,6.03,14.06,9.04,19.66,1.44,2.69,2.22,4.88,2.83,6.94.66,2.23,1.11,4.29,2.01,6.68.32.87.62,1.6.89,2.24.3.7.58,1.3.85,1.83.17.3.32.58.47.87.16.28.31.54.46.79.33.53.66,1.04,1.03,1.63.1.15.2.32.31.48.15.25.31.51.48.78,1.88,3.01,1.43,5.45,5.17,12.62.16.29.31.58.48.85.16.28.33.54.51.79"/>
      <path class="m" d="M34.07,97.82c-.05,0-.08,0-.13,0-4.64-.13-12.23-7.51-12.23-7.51"/>
      <path class="m" d="M21.89,78.77c1.38-3.58,4.78-8.12,8.28-10.18.8-.47,1.68-.93,2.61-1.39.59-.31,1.19-.61,1.81-.93"/>
      <path class="l" d="M21.71,90.31s-6.19-.92-5.8-5.07c.38-4.14,5.99-6.47,5.99-6.47"/>
      <path class="g" d="M123.95,139.7c-1.27-1.28-2.4-2.42-3.45-3.43-.35-.35-.69-.68-1.03-.99-.28-.26-.53-.5-.79-.74-3.43-3.22-5.78-4.91-8.35-6.15-.13-.06-.26-.13-.38-.18-.25-.12-.52-.23-.78-.35-.18-.08-.37-.17-.55-.23-.22-.1-.43-.18-.66-.28-.03-.02-.06-.02-.1-.03-.12-.05-.23-.1-.36-.16-.18-.07-.36-.14-.53-.22-1.55-.67-3.32-1.53-5.11-2.46-.34-.18-.69-.36-1.03-.53-.22-.1-.41-.21-.61-.31-3.64-1.89-7.14-3.78-8.85-4.32-2.5-.8-6.23-3.66-7.51-8.03q-.1-.2-.16-.3t-.31-.31s-.02-.02-.09-.04c-.62-.22-4.08-1.19-5.71-1.68,0,0-.02,0-.04,0-4.61-.58-9.01.26-10.78-.44-1.81-.73-3.24-3.03-4.55-4.62-.1-.12-.19-.24-.3-.35-.2-.23-.4-.44-.59-.62-.2-.18-.4-.33-.59-.45-1.76-1.01-4.39.38-8.42-.38-.51-.09-.98-.22-1.43-.35-.22-.07-.44-.14-.65-.22-.23-.07-.43-.16-.63-.24-.42-.17-.81-.34-1.18-.54-.37-.18-.73-.39-1.07-.58-.34-.19-.67-.4-.99-.61-.15-.08-.28-.17-.43-.26-.28-.18-.56-.36-.83-.52-.23-.14-.44-.28-.66-.39-.28-.16-.54-.31-.82-.43-2.36-1.13-4.97-.02-9.54-.13"/>
      <path class="g" d="M268.31,161.37c4.06,5.88,11.31,7.81,12.5,9.26,1.29,1.58-5.17,17.51-6.59,17.8-1.43.28-2.44-1.01-7.32-2.15-2.25-.53-4.2-.38-6.67-.18"/>
      <path class="g" d="M34.59,66.28c1.78-.93,3.62-1.97,5.29-3.34l-.03-.03c.78-.63,1.52-1.3,2.18-2.08,1.82-2.1,3.98-4.04,6.32-5.62.48-.33.97-.63,1.47-.92.49-.29.99-.56,1.49-.81.24-.13.5-.25.76-.36.43-.2.87-.38,1.3-.55.59-.23,1.2-.42,1.8-.58,1.26-.34,2.34-.69,3.32-1.03.25-.08.49-.18.73-.26.21-.08.41-.14.61-.23.23-.08.44-.16.66-.24.26-.09.51-.19.76-.29,1.68-.64,3.28-1.28,5.37-1.88,4.28-1.25,23.8-4.39,23.8-4.39,1.9-.12,3.83-.04,5.74.08,3.39.23,6.74.63,9.84.44.2-.02.38-.03.57-.05.38-.03.75-.07,1.11-.13,1-.13,1.97-.37,2.89-.69,1.6-.57,3.63-1.19,5.83-1.76.29-.07.58-.15.9-.22.25-.07.51-.13.77-.18.56-.14,1.13-.27,1.73-.39.48-.08.97-.18,1.44-.28.53-.1,1.08-.19,1.61-.28,4-.62,7.93-.81,10.62,0,5.74,1.73,7.9,4.45,10.48,6.74,2.26,2.01,3.97.4,8.3,1.58,0,0,0,0,.02,0,.45.13.94.29,1.47.48.18.07.36.14.53.22.73.31,1.39.63,2.03.94,0,0,.02.02.03.02,4.33,2.26,6.37,4.77,8.71,5.89,0,0,.03.02.04.03,0,0,.02,0,.04,0,.03,0,.04.03.07.03,1.43.68,2.65,1.15,4.9,1.91"/>
      <path class="r" d="M94.59,54.01c1.61.11,3.1-.01,4.66-.45s3.59-.75,4.91-1.8c.98-.78,2.11-1.76,1.71-3.07-.52-1.7-2.51-2.33-.66-4.01.61-.55,1.47-.82,2.21-1.15,1.09-.48,1.87-1.06,2.77-1.78,1.61-1.3,3.26-2.69,1.6-4.61-1.43-1.65-3.53-2.25-5.63-2.62-3.53-.62-6.89-.6-10.39.36-2.27.63-4.87,1.81-6.64,3.36-1.13.99-1.69,2.41-2.75,3.41-1.29,1.22-5.31,1.03-5.73,3.09-.28,1.36,1.94,3.58,2.76,4.36.49.46,2.18,1.86,4.36,2.88,2.48,1.16,5.5,1.93,6.83,2.03Z"/>
      <path class="q" d="M86.98,47.24c1.79-1.53,2.3-3.79,4.69-4.75,2.11-.86,4.35-.62,6.55-.24,3.7.63,9.6.85,12.06-2.52,2.66-3.64-4.62-5.04-6.98-5.49-4.73-.9-10.8-1-14.55,2.64-1.78,1.73-1.96,3.77-2.44,6.07-.16.75-2.21,5.86.69,4.29Z"/>
      <path class="o" d="M105.44,48.02c.11.12.21.25.31.37-.64-1.47-2.28-2.13-.54-3.7.35-.32.79-.54,1.24-.74-2.83.72-5.78.45-8.74.3-1.95-.1-4.11-.65-5.91.38-.88.5-1.82,1.43-1.98,2.42-.19,1.27.51,2.4,1.65,2.77,1.95.63,3.32.74,5.11-.26,1.89-1.06,3.98-2.15,6.15-2.52,1.15-.2,1.93.1,2.7.97Z"/>
      <path class="x" d="M107.08,41.95c-.09-.62-1.01-1.26-1.45-1.7-1.38-1.39-3.03-1.89-4.94-2.05-4.73-.41-11.07-.29-14.12,3.36-.09.45-.18.92-.28,1.4-.16.75-2.21,5.86.69,4.29,1.79-1.53,2.3-3.79,4.69-4.75,2.11-.86,4.35-.62,6.55-.24,2.53.43,6.09.67,8.87-.3Z"/>
      <path class="f" d="M111.78,37.15c1.67,1.92,0,3.31-1.6,4.6-.9.73-1.69,1.31-2.78,1.79-.31.14-.63.27-.96.41h-.02c-.26.13-.51.24-.76.39-.07.05-.15.1-.23.16-.08.05-.17.12-.24.19-.52.47-.73.85-.77,1.2-.02.07,0,.13,0,.19.05.52.48.98.87,1.53.06.07.11.16.17.25.06.08.11.18.16.26.05.08.08.17.13.26.03.1.08.21.11.31.41,1.31-.73,2.29-1.71,3.08-1.31,1.04-3.3,1.35-4.9,1.8-1.56.43-3.05.55-4.66.44-1.33-.09-4.35-.87-6.83-2.03-2.18-1.03-3.87-2.42-4.35-2.88-.83-.78-3.04-2.99-2.77-4.35.42-2.07,4.44-1.88,5.74-3.1.07-.07.15-.15.22-.23.34-1.68.76-3.19,2.13-4.53,3.59-3.48,9.29-3.54,13.92-2.75,1.16.04,2.33.18,3.51.39,2.09.38,4.19.98,5.63,2.63Z"/>
      <g>
        <path class="r" d="M92.33,83.62c1.61-.11,3.1.01,4.66.45s3.59.75,4.91,1.8c.98.78,2.11,1.76,1.71,3.07-.52,1.7-2.51,2.33-.66,4.01.61.55,1.47.82,2.21,1.15,1.09.48,1.87,1.06,2.77,1.78,1.61,1.3,3.26,2.69,1.6,4.61-1.43,1.65-3.53,2.25-5.63,2.62-3.53.62-6.89.6-10.39-.36-2.27-.63-4.87-1.81-6.64-3.36-1.13-.99-1.69-2.41-2.75-3.41-1.29-1.22-5.31-1.03-5.73-3.09-.28-1.36,1.94-3.58,2.76-4.36.49-.46,2.18-1.86,4.36-2.88,2.48-1.16,5.5-1.93,6.83-2.03Z"/>
        <path class="q" d="M84.72,90.38c1.79,1.53,2.3,3.79,4.69,4.75,2.11.86,4.35.62,6.55.24,3.7-.63,9.6-.85,12.06,2.52,2.66,3.64-4.62,5.04-6.98,5.49-4.73.9-10.8,1-14.55-2.64-1.78-1.73-1.96-3.77-2.44-6.07-.16-.75-2.21-5.86.69-4.29Z"/>
        <path class="o" d="M103.18,89.61c.11-.12.21-.25.31-.37-.64,1.47-2.28,2.13-.54,3.7.35.32.79.54,1.24.74-2.83-.72-5.78-.45-8.74-.3-1.95.1-4.11.65-5.91-.38-.88-.5-1.82-1.43-1.98-2.42-.19-1.27.51-2.4,1.65-2.77,1.95-.63,3.32-.74,5.11.26,1.89,1.06,3.98,2.15,6.15,2.52,1.15.2,1.93-.1,2.7-.97Z"/>
        <path class="x" d="M104.82,95.68c-.09.62-1.01,1.26-1.45,1.7-1.38,1.39-3.03,1.89-4.94,2.05-4.73.41-11.07.29-14.12-3.36-.09-.45-.18-.92-.28-1.4-.16-.75-2.21-5.86.69-4.29,1.79,1.53,2.3,3.79,4.69,4.75,2.11.86,4.35.62,6.55.24,2.53-.43,6.09-.67,8.87.3Z"/>
        <path class="f" d="M109.52,100.48c1.67-1.92,0-3.31-1.6-4.6-.9-.73-1.69-1.31-2.78-1.79-.31-.14-.63-.27-.96-.41h-.02c-.26-.13-.51-.24-.76-.39-.07-.05-.15-.1-.23-.16-.08-.05-.17-.12-.24-.19-.52-.47-.73-.85-.77-1.2-.02-.07,0-.13,0-.19.05-.52.48-.98.87-1.53.06-.07.11-.16.17-.25.06-.08.11-.18.16-.26.05-.08.08-.17.13-.26.03-.1.08-.21.11-.31.41-1.31-.73-2.29-1.71-3.08-1.31-1.04-3.3-1.35-4.9-1.8-1.56-.43-3.05-.55-4.66-.44-1.33.09-4.35.87-6.83,2.03-2.18,1.03-3.87,2.42-4.35,2.88-.83.78-3.04,2.99-2.77,4.35.42,2.07,4.44,1.88,5.74,3.1.07.07.15.15.22.23.34,1.68.76,3.19,2.13,4.53,3.59,3.48,9.29,3.54,13.92,2.75,1.16-.04,2.33-.18,3.51-.39,2.09-.38,4.19-.98,5.63-2.63Z"/>
      </g>
    </g>
  </g>
  <g id="b" data-name="Layer 4">
    <line class="h" x1="96.15" y1="34.57" x2="96.15" y2="18.67"/>
    <line class="h" x1="213.49" y1="75.54" x2="260.22" y2="48.56"/>
    <line class="h" x1="18.89" y1="124.32" x2="18.89" y2="92.89"/>
    <line class="h" x1="94" y1="140.89" x2="94" y2="102.76"/>
    <line class="h" x1="144.16" y1="206.7" x2="144.16" y2="165.91"/>
    <line class="h" x1="279.6" y1="206.7" x2="279.6" y2="187.81"/>
    <line class="h" x1="179.06" y1="109.72" x2="179.06" y2="29.98"/>
    <line class="h" x1="493.16" y1="165.8" x2="493.16" y2="113.65"/>
  </g>
  <g id="c" data-name="Layer 3">
    <g>
      <path d="M1.14,123.87h2.11l5.22,8.42h.03v-8.42h1.9v11.42h-2.11l-5.2-8.4h-.05v8.4h-1.9v-11.42Z"/>
      <path d="M16.3,135.52c-.66,0-1.25-.11-1.77-.33-.52-.22-.95-.52-1.31-.9-.36-.38-.63-.84-.82-1.38-.19-.53-.28-1.12-.28-1.76s.09-1.21.28-1.74c.19-.53.46-.99.82-1.38.36-.38.79-.68,1.31-.9s1.11-.33,1.77-.33,1.25.11,1.77.33c.52.22.95.52,1.31.9.36.38.63.84.82,1.38.19.53.28,1.12.28,1.74s-.09,1.23-.28,1.76c-.19.53-.46.99-.82,1.38-.36.38-.79.69-1.31.9-.52.22-1.11.33-1.77.33ZM16.3,134.08c.41,0,.76-.09,1.06-.26.3-.17.54-.39.74-.67s.33-.59.42-.94c.09-.35.14-.7.14-1.06s-.05-.7-.14-1.06c-.09-.35-.23-.66-.42-.94-.19-.27-.44-.49-.74-.66-.3-.17-.65-.26-1.06-.26s-.76.09-1.06.26c-.3.17-.54.39-.74.66-.19.27-.33.58-.42.94-.09.35-.14.7-.14,1.06s.05.72.14,1.06c.09.35.23.66.42.94s.44.5.74.67c.3.17.65.26,1.06.26Z"/>
      <path d="M23.38,132.64c.05.53.26.91.61,1.12.35.21.77.32,1.26.32.17,0,.37-.01.58-.04.22-.03.42-.08.62-.15.19-.07.35-.18.47-.33.12-.14.18-.33.17-.57-.01-.23-.1-.43-.26-.58s-.37-.27-.62-.36-.54-.17-.86-.23c-.32-.06-.65-.13-.98-.21-.34-.07-.67-.17-.98-.27s-.6-.25-.85-.43c-.25-.18-.45-.41-.6-.7-.15-.28-.22-.63-.22-1.05,0-.45.11-.82.33-1.13.22-.3.5-.55.83-.74s.71-.32,1.12-.39c.41-.08.8-.11,1.18-.11.43,0,.83.04,1.22.14.39.09.74.24,1.06.44.31.2.58.47.78.79s.34.72.39,1.18h-1.9c-.09-.44-.29-.73-.6-.88-.31-.15-.67-.22-1.08-.22-.13,0-.28.01-.46.03-.18.02-.34.06-.5.12-.15.06-.29.14-.39.26-.11.11-.16.26-.16.44,0,.22.08.41.23.54.15.14.36.25.61.34.25.09.54.17.86.23.32.06.65.13.99.21.33.07.66.17.98.27.32.11.61.25.86.43.25.18.45.41.61.69.15.28.23.62.23,1.02,0,.49-.11.91-.34,1.25-.22.34-.51.62-.87.83-.36.21-.75.37-1.19.46-.44.1-.87.14-1.3.14-.52,0-1.01-.06-1.45-.18-.44-.12-.83-.3-1.15-.54-.33-.24-.58-.54-.77-.9-.19-.36-.29-.78-.3-1.27h1.82Z"/>
      <path d="M31.73,131.63c0,.32.05.63.14.93.09.3.23.56.41.78.18.22.41.4.69.54.28.13.61.2.99.2.53,0,.96-.12,1.29-.34.33-.23.57-.57.73-1.03h1.73c-.1.45-.26.85-.5,1.2-.23.35-.52.65-.85.89-.33.24-.7.42-1.11.54-.41.12-.84.18-1.29.18-.65,0-1.23-.11-1.73-.32-.5-.21-.93-.51-1.27-.9s-.61-.84-.78-1.38c-.18-.53-.26-1.12-.26-1.76,0-.59.09-1.14.28-1.67.19-.53.45-.99.8-1.39.35-.4.77-.72,1.26-.95.49-.23,1.05-.35,1.66-.35.65,0,1.23.14,1.75.41.52.27.95.63,1.29,1.08.34.45.59.96.74,1.54.15.58.19,1.18.12,1.8h-6.08ZM35.98,130.43c-.02-.29-.08-.57-.18-.83-.1-.27-.24-.5-.42-.7-.18-.2-.39-.36-.64-.48s-.53-.18-.84-.18-.61.06-.87.17c-.26.11-.49.27-.67.46-.19.2-.34.43-.45.7-.11.27-.17.55-.18.86h4.26Z"/>
    </g>
    <g>
      <path d="M66.47,144.66h2v9.7h5.81v1.73h-7.81v-11.42Z"/>
      <path d="M76.82,152.42c0,.32.05.63.14.93.09.3.23.56.41.78.18.22.41.4.69.54.28.13.61.2.99.2.53,0,.96-.12,1.29-.34.33-.23.57-.57.73-1.03h1.73c-.1.45-.26.85-.5,1.2-.23.35-.52.65-.85.89-.33.24-.7.42-1.11.54-.41.12-.84.18-1.29.18-.65,0-1.23-.11-1.73-.32-.5-.21-.93-.51-1.27-.9s-.61-.84-.78-1.38c-.18-.53-.26-1.12-.26-1.76,0-.59.09-1.14.28-1.67.19-.53.45-.99.8-1.39.35-.4.77-.72,1.26-.95.49-.23,1.05-.35,1.66-.35.65,0,1.23.14,1.75.41.52.27.95.63,1.29,1.08.34.45.59.96.74,1.54.15.58.19,1.18.12,1.8h-6.08ZM81.07,151.22c-.02-.29-.08-.57-.18-.83-.1-.27-.24-.5-.42-.7-.18-.2-.39-.36-.64-.48s-.53-.18-.84-.18-.61.06-.87.17c-.26.11-.49.27-.67.46-.19.2-.34.43-.45.7-.11.27-.17.55-.18.86h4.26Z"/>
      <path d="M83.47,147.81h1.36v-.69c0-.52.06-.95.19-1.27.13-.33.3-.58.51-.75s.46-.29.73-.35.56-.09.86-.09c.59,0,1.01.04,1.28.11v1.42c-.12-.03-.24-.06-.38-.07-.13-.02-.29-.02-.47-.02-.25,0-.46.06-.63.18-.18.12-.26.35-.26.69v.85h1.55v1.36h-1.55v6.91h-1.82v-6.91h-1.36v-1.36Z"/>
      <path d="M88.5,147.81h1.38v-2.48h1.82v2.48h1.65v1.36h-1.65v4.42c0,.19,0,.36.02.5s.05.26.11.35c.06.1.15.17.26.22.12.05.28.07.48.07.13,0,.26,0,.38,0,.13,0,.26-.02.38-.06v1.41c-.2.02-.4.04-.59.06-.19.02-.39.03-.59.03-.48,0-.87-.05-1.16-.14-.29-.09-.52-.22-.69-.4s-.28-.4-.34-.66-.09-.57-.1-.91v-4.88h-1.38v-1.36Z"/>
      <path d="M99.36,144.66h8.22v1.73h-6.22v2.99h5.76v1.63h-5.76v3.34h6.34v1.73h-8.34v-11.42Z"/>
      <path d="M116.11,154.25c0,.22.03.38.09.48s.17.14.34.14h.19c.07,0,.16-.01.26-.03v1.26c-.06.02-.15.04-.25.07-.1.03-.21.05-.31.07-.11.02-.21.04-.32.05-.11,0-.2.02-.27.02-.37,0-.68-.07-.93-.22-.25-.15-.41-.41-.48-.78-.36.35-.81.61-1.34.77-.53.16-1.04.24-1.53.24-.37,0-.73-.05-1.07-.15-.34-.1-.64-.25-.9-.45-.26-.2-.47-.45-.62-.75-.15-.3-.23-.66-.23-1.06,0-.51.09-.93.28-1.25.19-.32.43-.57.74-.75.3-.18.65-.31,1.02-.39.38-.08.76-.14,1.14-.18.33-.06.65-.11.94-.14.3-.03.56-.07.79-.14.23-.06.41-.16.54-.3.13-.13.2-.33.2-.6,0-.23-.06-.43-.17-.58-.11-.15-.25-.26-.42-.34s-.35-.13-.55-.16c-.2-.03-.4-.04-.58-.04-.51,0-.93.11-1.26.32-.33.21-.52.54-.56.99h-1.82c.03-.53.16-.98.38-1.33.22-.35.51-.63.86-.85.35-.21.74-.36,1.18-.45s.89-.13,1.34-.13c.41,0,.81.04,1.2.13s.75.22,1.06.42.57.44.76.74c.19.3.29.67.29,1.11v4.26ZM114.29,151.94c-.28.18-.62.29-1.02.33-.41.04-.81.09-1.22.17-.19.03-.38.08-.56.14-.18.06-.34.14-.48.24-.14.1-.25.24-.33.4s-.12.37-.12.6c0,.2.06.37.18.51.12.14.26.25.42.33.17.08.35.14.54.17.2.03.38.05.54.05.2,0,.42-.03.66-.08.23-.05.46-.14.66-.27s.38-.29.52-.49c.14-.2.21-.44.21-.73v-1.36Z"/>
      <path d="M118.08,147.81h1.71v1.6h.03c.05-.22.16-.44.31-.66.15-.21.34-.41.56-.58.22-.18.46-.32.73-.42.27-.11.54-.16.82-.16.21,0,.36,0,.44.02s.16.02.25.03v1.76c-.13-.02-.26-.04-.39-.06s-.26-.02-.39-.02c-.31,0-.6.06-.87.18-.27.12-.51.3-.71.54s-.36.54-.48.89c-.12.35-.18.76-.18,1.22v3.94h-1.82v-8.27Z"/>
    </g>
    <g>
      <path d="M103.58,211.09h2v9.7h5.81v1.73h-7.81v-11.42Z"/>
      <path d="M113.93,218.85c0,.32.05.63.14.93.09.3.23.56.41.78.18.22.41.4.69.54.28.13.61.2.99.2.53,0,.96-.12,1.29-.34.33-.23.57-.57.73-1.03h1.73c-.1.45-.26.85-.5,1.2-.23.35-.52.65-.85.89-.33.24-.7.42-1.11.54-.41.12-.84.18-1.29.18-.65,0-1.23-.11-1.73-.32-.5-.21-.93-.51-1.27-.9s-.61-.84-.78-1.38c-.18-.53-.26-1.12-.26-1.76,0-.59.09-1.14.28-1.67.19-.53.45-.99.8-1.39.35-.4.77-.72,1.26-.95.49-.23,1.05-.35,1.66-.35.65,0,1.23.14,1.75.41.52.27.95.63,1.29,1.08.34.45.59.96.74,1.54.15.58.19,1.18.12,1.8h-6.08ZM118.19,217.65c-.02-.29-.08-.57-.18-.83-.1-.27-.24-.5-.42-.7-.18-.2-.39-.36-.64-.48s-.53-.18-.84-.18-.61.06-.87.17c-.26.11-.49.27-.67.46-.19.2-.34.43-.45.7-.11.27-.17.55-.18.86h4.26Z"/>
      <path d="M120.59,214.24h1.36v-.69c0-.52.06-.95.19-1.27.13-.33.3-.58.51-.75s.46-.29.73-.35.56-.09.86-.09c.59,0,1.01.04,1.28.11v1.42c-.12-.03-.24-.06-.38-.07-.13-.02-.29-.02-.47-.02-.25,0-.46.06-.63.18-.18.12-.26.35-.26.69v.85h1.55v1.36h-1.55v6.91h-1.82v-6.91h-1.36v-1.36Z"/>
      <path d="M125.61,214.24h1.38v-2.48h1.82v2.48h1.65v1.36h-1.65v4.42c0,.19,0,.36.02.5s.05.26.11.35c.06.1.15.17.26.22.12.05.28.07.48.07.13,0,.26,0,.38,0,.13,0,.26-.02.38-.06v1.41c-.2.02-.4.04-.59.06-.19.02-.39.03-.59.03-.48,0-.87-.05-1.16-.14-.29-.09-.52-.22-.69-.4s-.28-.4-.34-.66-.09-.57-.1-.91v-4.88h-1.38v-1.36Z"/>
      <path d="M136.48,211.09h2v9.7h5.81v1.73h-7.81v-11.42Z"/>
      <path d="M152.33,220.67c0,.22.03.38.09.48s.17.14.34.14h.19c.07,0,.16-.01.26-.03v1.26c-.06.02-.15.04-.25.07-.1.03-.21.05-.31.07-.11.02-.21.04-.32.05-.11,0-.2.02-.27.02-.37,0-.68-.07-.93-.22-.25-.15-.41-.41-.48-.78-.36.35-.81.61-1.34.77-.53.16-1.04.24-1.53.24-.37,0-.73-.05-1.07-.15-.34-.1-.64-.25-.9-.45-.26-.2-.47-.45-.62-.75-.15-.3-.23-.66-.23-1.06,0-.51.09-.93.28-1.25.19-.32.43-.57.74-.75.3-.18.65-.31,1.02-.39.38-.08.76-.14,1.14-.18.33-.06.65-.11.94-.14.3-.03.56-.07.79-.14.23-.06.41-.16.54-.3.13-.13.2-.33.2-.6,0-.23-.06-.43-.17-.58-.11-.15-.25-.26-.42-.34s-.35-.13-.55-.16c-.2-.03-.4-.04-.58-.04-.51,0-.93.11-1.26.32-.33.21-.52.54-.56.99h-1.82c.03-.53.16-.98.38-1.33.22-.35.51-.63.86-.85.35-.21.74-.36,1.18-.45s.89-.13,1.34-.13c.41,0,.81.04,1.2.13s.75.22,1.06.42.57.44.76.74c.19.3.29.67.29,1.11v4.26ZM150.51,218.37c-.28.18-.62.29-1.02.33-.41.04-.81.09-1.22.17-.19.03-.38.08-.56.14-.18.06-.34.14-.48.24-.14.1-.25.24-.33.4s-.12.37-.12.6c0,.2.06.37.18.51.12.14.26.25.42.33.17.08.35.14.54.17.2.03.38.05.54.05.2,0,.42-.03.66-.08.23-.05.46-.14.66-.27s.38-.29.52-.49c.14-.2.21-.44.21-.73v-1.36Z"/>
      <path d="M153.47,214.24h1.38v-2.48h1.82v2.48h1.65v1.36h-1.65v4.42c0,.19,0,.36.02.5s.05.26.11.35c.06.1.15.17.26.22.12.05.28.07.48.07.13,0,.26,0,.38,0,.13,0,.26-.02.38-.06v1.41c-.2.02-.4.04-.59.06-.19.02-.39.03-.59.03-.48,0-.87-.05-1.16-.14-.29-.09-.52-.22-.69-.4s-.28-.4-.34-.66-.09-.57-.1-.91v-4.88h-1.38v-1.36Z"/>
      <path d="M161.05,218.85c0,.32.05.63.14.93.09.3.23.56.41.78.18.22.41.4.69.54.28.13.61.2.99.2.53,0,.96-.12,1.29-.34.33-.23.57-.57.73-1.03h1.73c-.1.45-.26.85-.5,1.2-.23.35-.52.65-.85.89-.33.24-.7.42-1.11.54-.41.12-.84.18-1.29.18-.65,0-1.23-.11-1.73-.32-.5-.21-.93-.51-1.27-.9s-.61-.84-.78-1.38c-.18-.53-.26-1.12-.26-1.76,0-.59.09-1.14.28-1.67.19-.53.45-.99.8-1.39.35-.4.77-.72,1.26-.95.49-.23,1.05-.35,1.66-.35.65,0,1.23.14,1.75.41.52.27.95.63,1.29,1.08.34.45.59.96.74,1.54.15.58.19,1.18.12,1.8h-6.08ZM165.31,217.65c-.02-.29-.08-.57-.18-.83-.1-.27-.24-.5-.42-.7-.18-.2-.39-.36-.64-.48s-.53-.18-.84-.18-.61.06-.87.17c-.26.11-.49.27-.67.46-.19.2-.34.43-.45.7-.11.27-.17.55-.18.86h4.26Z"/>
      <path d="M168.52,214.24h1.71v1.6h.03c.05-.22.16-.44.31-.66.15-.21.34-.41.56-.58.22-.18.46-.32.73-.42.27-.11.54-.16.82-.16.21,0,.36,0,.44.02s.16.02.25.03v1.76c-.13-.02-.26-.04-.39-.06s-.26-.02-.39-.02c-.31,0-.6.06-.87.18-.27.12-.51.3-.71.54s-.36.54-.48.89c-.12.35-.18.76-.18,1.22v3.94h-1.82v-8.27Z"/>
      <path d="M181.08,220.67c0,.22.03.38.09.48s.17.14.34.14h.19c.07,0,.16-.01.26-.03v1.26c-.06.02-.15.04-.25.07-.1.03-.21.05-.31.07-.11.02-.21.04-.32.05-.11,0-.2.02-.27.02-.37,0-.68-.07-.93-.22-.25-.15-.41-.41-.48-.78-.36.35-.81.61-1.34.77-.53.16-1.04.24-1.53.24-.37,0-.73-.05-1.07-.15-.34-.1-.64-.25-.9-.45-.26-.2-.47-.45-.62-.75-.15-.3-.23-.66-.23-1.06,0-.51.09-.93.28-1.25.19-.32.43-.57.74-.75.3-.18.65-.31,1.02-.39.38-.08.76-.14,1.14-.18.33-.06.65-.11.94-.14.3-.03.56-.07.79-.14.23-.06.41-.16.54-.3.13-.13.2-.33.2-.6,0-.23-.06-.43-.17-.58-.11-.15-.25-.26-.42-.34s-.35-.13-.55-.16c-.2-.03-.4-.04-.58-.04-.51,0-.93.11-1.26.32-.33.21-.52.54-.56.99h-1.82c.03-.53.16-.98.38-1.33.22-.35.51-.63.86-.85.35-.21.74-.36,1.18-.45s.89-.13,1.34-.13c.41,0,.81.04,1.2.13s.75.22,1.06.42.57.44.76.74c.19.3.29.67.29,1.11v4.26ZM179.26,218.37c-.28.18-.62.29-1.02.33-.41.04-.81.09-1.22.17-.19.03-.38.08-.56.14-.18.06-.34.14-.48.24-.14.1-.25.24-.33.4s-.12.37-.12.6c0,.2.06.37.18.51.12.14.26.25.42.33.17.08.35.14.54.17.2.03.38.05.54.05.2,0,.42-.03.66-.08.23-.05.46-.14.66-.27s.38-.29.52-.49c.14-.2.21-.44.21-.73v-1.36Z"/>
      <path d="M183.1,211.09h1.82v11.42h-1.82v-11.42Z"/>
    </g>
    <g>
      <path d="M246.57,211.09h9.25v1.73h-3.63v9.7h-2v-9.7h-3.62v-1.73Z"/>
      <path d="M262.22,220.67c0,.22.03.38.09.48s.17.14.34.14h.19c.07,0,.16-.01.26-.03v1.26c-.06.02-.15.04-.25.07-.1.03-.21.05-.31.07-.11.02-.21.04-.32.05-.11,0-.2.02-.27.02-.37,0-.68-.07-.93-.22-.25-.15-.41-.41-.48-.78-.36.35-.81.61-1.34.77-.53.16-1.04.24-1.53.24-.37,0-.73-.05-1.07-.15-.34-.1-.64-.25-.9-.45s-.47-.45-.62-.75c-.15-.3-.23-.66-.23-1.06,0-.51.09-.93.28-1.25.19-.32.43-.57.74-.75.3-.18.65-.31,1.02-.39.38-.08.76-.14,1.14-.18.33-.06.65-.11.94-.14.3-.03.56-.07.79-.14.23-.06.41-.16.54-.3.13-.13.2-.33.2-.6,0-.23-.06-.43-.17-.58-.11-.15-.25-.26-.42-.34-.17-.08-.35-.13-.55-.16-.2-.03-.39-.04-.58-.04-.51,0-.93.11-1.26.32-.33.21-.52.54-.56.99h-1.82c.03-.53.16-.98.38-1.33s.51-.63.86-.85c.35-.21.74-.36,1.18-.45s.88-.13,1.34-.13c.41,0,.81.04,1.2.13s.75.22,1.06.42.57.44.76.74c.19.3.29.67.29,1.11v4.26ZM260.4,218.37c-.28.18-.62.29-1.02.33-.41.04-.81.09-1.22.17-.19.03-.38.08-.56.14-.18.06-.34.14-.48.24-.14.1-.25.24-.33.4s-.12.37-.12.6c0,.2.06.37.18.51.12.14.26.25.42.33.17.08.35.14.54.17.2.03.38.05.54.05.2,0,.42-.03.66-.08.24-.05.46-.14.66-.27s.38-.29.52-.49c.14-.2.21-.44.21-.73v-1.36Z"/>
      <path d="M264.24,211.09h1.82v1.73h-1.82v-1.73ZM264.24,214.24h1.82v8.27h-1.82v-8.27Z"/>
      <path d="M268.09,211.09h1.82v11.42h-1.82v-11.42Z"/>
      <path d="M276.6,211.09h5.55c1.02,0,1.85.23,2.46.7.62.47.93,1.18.93,2.13,0,.58-.14,1.07-.42,1.48-.28.41-.69.73-1.21.95v.03c.7.15,1.24.48,1.6,1,.36.52.54,1.17.54,1.94,0,.45-.08.87-.24,1.26-.16.39-.41.73-.75,1.01-.34.28-.78.51-1.31.67-.53.17-1.17.25-1.9.25h-5.25v-11.42ZM278.6,215.87h3.26c.48,0,.88-.14,1.2-.41.32-.27.48-.66.48-1.18,0-.58-.14-.98-.43-1.22-.29-.23-.7-.35-1.25-.35h-3.26v3.15ZM278.6,220.88h3.54c.61,0,1.08-.16,1.42-.47.34-.31.5-.76.5-1.34s-.17-1-.5-1.3-.81-.46-1.42-.46h-3.54v3.57Z"/>
      <path d="M294.54,220.67c0,.22.03.38.09.48s.17.14.34.14h.19c.07,0,.16-.01.26-.03v1.26c-.06.02-.15.04-.25.07-.1.03-.21.05-.31.07-.11.02-.21.04-.32.05-.11,0-.2.02-.27.02-.37,0-.68-.07-.93-.22-.25-.15-.41-.41-.48-.78-.36.35-.81.61-1.34.77-.53.16-1.04.24-1.53.24-.37,0-.73-.05-1.07-.15-.34-.1-.64-.25-.9-.45s-.47-.45-.62-.75c-.15-.3-.23-.66-.23-1.06,0-.51.09-.93.28-1.25.19-.32.43-.57.74-.75.3-.18.65-.31,1.02-.39.38-.08.76-.14,1.14-.18.33-.06.65-.11.94-.14.3-.03.56-.07.79-.14.23-.06.41-.16.54-.3.13-.13.2-.33.2-.6,0-.23-.06-.43-.17-.58-.11-.15-.25-.26-.42-.34-.17-.08-.35-.13-.55-.16-.2-.03-.39-.04-.58-.04-.51,0-.93.11-1.26.32-.33.21-.52.54-.56.99h-1.82c.03-.53.16-.98.38-1.33s.51-.63.86-.85c.35-.21.74-.36,1.18-.45s.88-.13,1.34-.13c.41,0,.81.04,1.2.13s.75.22,1.06.42.57.44.76.74c.19.3.29.67.29,1.11v4.26ZM292.72,218.37c-.28.18-.62.29-1.02.33-.41.04-.81.09-1.22.17-.19.03-.38.08-.56.14-.18.06-.34.14-.48.24-.14.1-.25.24-.33.4s-.12.37-.12.6c0,.2.06.37.18.51.12.14.26.25.42.33.17.08.35.14.54.17.2.03.38.05.54.05.2,0,.42-.03.66-.08.24-.05.46-.14.66-.27s.38-.29.52-.49c.14-.2.21-.44.21-.73v-1.36Z"/>
      <path d="M297.88,219.86c.05.53.26.91.61,1.12.35.21.77.32,1.26.32.17,0,.37-.01.58-.04.22-.03.42-.08.62-.15.19-.07.35-.18.47-.33.12-.14.18-.33.17-.57-.01-.23-.1-.43-.26-.58s-.37-.27-.62-.36c-.25-.09-.54-.17-.86-.23-.32-.06-.65-.13-.98-.21-.34-.07-.67-.17-.98-.27s-.6-.25-.85-.43c-.25-.18-.45-.41-.6-.7s-.22-.63-.22-1.05c0-.45.11-.82.33-1.13.22-.3.5-.55.83-.74s.71-.32,1.12-.39c.41-.08.8-.11,1.18-.11.43,0,.83.04,1.22.14s.74.24,1.06.44c.31.2.58.47.78.79s.34.72.39,1.18h-1.9c-.09-.44-.29-.73-.6-.88-.32-.15-.67-.22-1.08-.22-.13,0-.28.01-.46.03-.18.02-.34.06-.5.12-.16.06-.29.14-.39.26-.11.11-.16.26-.16.44,0,.22.08.41.23.54s.36.25.61.34c.25.09.54.17.86.23.32.06.65.13.99.21.33.07.66.17.98.27.32.11.61.25.86.43.25.18.45.41.61.69.15.28.23.62.23,1.02,0,.49-.11.91-.34,1.25-.22.34-.51.62-.87.83-.36.21-.75.37-1.19.46-.44.1-.87.14-1.3.14-.52,0-1-.06-1.45-.18-.44-.12-.83-.3-1.15-.54s-.58-.54-.77-.9c-.19-.36-.29-.78-.3-1.27h1.82Z"/>
      <path d="M306.24,218.85c0,.32.04.63.14.93s.23.56.41.78.41.4.69.54c.28.13.61.2.99.2.53,0,.96-.12,1.29-.34.33-.23.57-.57.73-1.03h1.73c-.1.45-.26.85-.5,1.2-.23.35-.52.65-.85.89-.33.24-.7.42-1.11.54-.41.12-.84.18-1.29.18-.65,0-1.23-.11-1.73-.32-.5-.21-.93-.51-1.27-.9s-.61-.84-.78-1.38c-.18-.53-.26-1.12-.26-1.76,0-.59.09-1.14.28-1.67.19-.53.45-.99.8-1.39.35-.4.77-.72,1.26-.95.49-.23,1.05-.35,1.66-.35.65,0,1.23.14,1.75.41.52.27.95.63,1.29,1.08.34.45.59.96.74,1.54.15.58.19,1.18.12,1.8h-6.08ZM310.49,217.65c-.02-.29-.08-.57-.18-.83-.1-.27-.24-.5-.42-.7-.18-.2-.39-.36-.64-.48-.25-.12-.53-.18-.84-.18s-.61.06-.87.17c-.26.11-.49.27-.67.46s-.34.43-.45.7c-.11.27-.17.55-.18.86h4.26Z"/>
    </g>
    <g>
      <path d="M464.3,169.12h9.25v1.73h-3.63v9.7h-2v-9.7h-3.62v-1.73Z"/>
      <path d="M479.95,178.7c0,.22.03.38.09.48s.17.14.34.14h.19c.07,0,.16-.01.26-.03v1.26c-.06.02-.15.04-.25.07-.1.03-.21.05-.31.07-.11.02-.21.04-.32.05-.11,0-.2.02-.27.02-.37,0-.68-.07-.93-.22-.25-.15-.41-.41-.48-.78-.36.35-.81.61-1.34.77-.53.16-1.04.24-1.53.24-.37,0-.73-.05-1.07-.15-.34-.1-.64-.25-.9-.45s-.47-.45-.62-.75c-.15-.3-.23-.66-.23-1.06,0-.51.09-.93.28-1.25.19-.32.43-.57.74-.75.3-.18.65-.31,1.02-.39.38-.08.76-.14,1.14-.18.33-.06.65-.11.94-.14.3-.03.56-.07.79-.14.23-.06.41-.16.54-.3.13-.13.2-.33.2-.6,0-.23-.06-.43-.17-.58-.11-.15-.25-.26-.42-.34-.17-.08-.35-.13-.55-.16-.2-.03-.39-.04-.58-.04-.51,0-.93.11-1.26.32-.33.21-.52.54-.56.99h-1.82c.03-.53.16-.98.38-1.33s.51-.63.86-.85c.35-.21.74-.36,1.18-.45s.88-.13,1.34-.13c.41,0,.81.04,1.2.13s.75.22,1.06.42.57.44.76.74c.19.3.29.67.29,1.11v4.26ZM478.12,176.4c-.28.18-.62.29-1.02.33-.41.04-.81.09-1.22.17-.19.03-.38.08-.56.14-.18.06-.34.14-.48.24-.14.1-.25.24-.33.4s-.12.37-.12.6c0,.2.06.37.18.51.12.14.26.25.42.33.17.08.35.14.54.17.2.03.38.05.54.05.2,0,.42-.03.66-.08.24-.05.46-.14.66-.27s.38-.29.52-.49c.14-.2.21-.44.21-.73v-1.36Z"/>
      <path d="M481.96,169.12h1.82v1.73h-1.82v-1.73ZM481.96,172.27h1.82v8.27h-1.82v-8.27Z"/>
      <path d="M485.82,169.12h1.82v11.42h-1.82v-11.42Z"/>
      <path d="M494.33,169.12h8.22v1.73h-6.22v2.99h5.76v1.63h-5.76v3.34h6.34v1.73h-8.34v-11.42Z"/>
      <path d="M504.15,172.27h1.73v1.22l.03.03c.28-.46.64-.82,1.09-1.08.45-.26.94-.39,1.49-.39.91,0,1.62.23,2.14.7s.78,1.17.78,2.11v5.68h-1.82v-5.2c-.02-.65-.16-1.12-.42-1.42-.26-.29-.66-.44-1.2-.44-.31,0-.59.06-.83.17-.25.11-.45.27-.62.46s-.3.43-.4.7c-.1.27-.14.55-.14.85v4.88h-1.82v-8.27Z"/>
      <path d="M521.13,180.54h-1.73v-1.12h-.03c-.25.48-.6.82-1.07,1.03-.47.21-.97.31-1.49.31-.65,0-1.22-.11-1.7-.34s-.89-.54-1.21-.94c-.32-.39-.56-.86-.72-1.4-.16-.54-.24-1.12-.24-1.74,0-.75.1-1.39.3-1.94.2-.54.47-.99.81-1.34.34-.35.72-.61,1.15-.78.43-.17.87-.25,1.32-.25.26,0,.52.02.78.07.27.05.52.12.77.23.25.11.47.24.68.41s.38.36.52.58h.03v-4.22h1.82v11.42ZM514.76,176.49c0,.35.04.7.14,1.04.09.34.23.65.42.91.19.27.42.48.71.64s.63.24,1.02.24.75-.09,1.05-.26c.29-.17.53-.39.72-.67s.33-.59.42-.94.14-.7.14-1.06c0-.92-.21-1.63-.62-2.14-.41-.51-.97-.77-1.67-.77-.43,0-.79.09-1.08.26-.29.18-.53.41-.72.69-.19.28-.32.6-.4.96s-.12.72-.12,1.1Z"/>
    </g>
    <g>
      <path d="M163.39,18.18c-.09-.33-.2-.63-.35-.91-.15-.28-.34-.52-.58-.72-.23-.2-.51-.36-.82-.47-.31-.11-.68-.17-1.1-.17-.61,0-1.13.12-1.58.37-.44.25-.8.57-1.08.98s-.48.88-.62,1.4c-.13.52-.2,1.06-.2,1.6s.07,1.08.2,1.6c.13.52.34.99.62,1.4s.64.74,1.08.98c.44.25.97.37,1.58.37.45,0,.84-.08,1.18-.23.34-.15.63-.37.88-.64.25-.27.44-.59.58-.95.14-.36.23-.75.27-1.17h1.95c-.04.68-.19,1.31-.44,1.87s-.59,1.05-1.02,1.46c-.43.41-.93.73-1.5.95-.58.22-1.21.34-1.9.34-.85,0-1.62-.16-2.3-.47-.68-.31-1.25-.74-1.72-1.29-.47-.54-.83-1.18-1.08-1.9-.25-.73-.38-1.5-.38-2.32s.13-1.58.38-2.3c.25-.73.61-1.36,1.08-1.9s1.04-.98,1.72-1.3c.68-.32,1.44-.48,2.3-.48.64,0,1.24.09,1.81.26.56.18,1.06.43,1.5.77.43.34.78.74,1.05,1.22.27.48.43,1.03.5,1.65h-2Z"/>
      <path d="M168.4,22.31c0,.32.05.63.14.93.09.3.23.56.41.78.18.22.41.4.69.54.28.13.61.2.99.2.53,0,.96-.11,1.29-.34.33-.23.57-.57.73-1.03h1.73c-.1.45-.26.85-.5,1.2-.23.35-.52.65-.85.89-.33.24-.7.42-1.11.54s-.84.18-1.29.18c-.65,0-1.23-.11-1.73-.32-.5-.21-.93-.51-1.27-.9-.35-.38-.61-.84-.78-1.38-.18-.53-.26-1.12-.26-1.76,0-.59.09-1.14.28-1.67.19-.53.45-.99.8-1.39.35-.4.77-.72,1.26-.95.49-.23,1.05-.35,1.66-.35.65,0,1.23.14,1.75.41.52.27.95.63,1.29,1.08.34.45.59.96.74,1.54.15.58.19,1.18.12,1.8h-6.08ZM172.66,21.11c-.02-.29-.08-.57-.18-.83-.1-.27-.24-.5-.42-.7-.18-.2-.39-.36-.64-.48-.25-.12-.53-.18-.84-.18s-.61.06-.87.17c-.26.11-.49.27-.67.46-.19.2-.34.43-.45.7-.11.27-.17.55-.18.86h4.26Z"/>
      <path d="M175.87,17.7h1.73v1.22l.03.03c.28-.46.64-.82,1.09-1.08.45-.26.94-.39,1.49-.39.91,0,1.62.23,2.14.7.52.47.78,1.17.78,2.11v5.68h-1.82v-5.2c-.02-.65-.16-1.12-.42-1.42-.26-.29-.66-.44-1.2-.44-.31,0-.59.06-.83.17-.25.11-.45.27-.62.46-.17.2-.3.43-.4.7-.1.27-.14.55-.14.85v4.88h-1.82v-8.27Z"/>
      <path d="M184.22,17.7h1.38v-2.48h1.82v2.48h1.65v1.36h-1.65v4.42c0,.19,0,.36.02.5s.05.26.11.35.15.17.26.22c.12.05.28.07.48.07.13,0,.26,0,.38,0,.13,0,.26-.02.38-.06v1.41c-.2.02-.4.04-.59.06-.19.02-.39.03-.59.03-.48,0-.87-.05-1.16-.14-.29-.09-.52-.22-.69-.4-.17-.18-.28-.4-.34-.66-.06-.27-.09-.57-.1-.91v-4.88h-1.38v-1.36Z"/>
      <path d="M190.38,17.7h1.71v1.6h.03c.05-.22.16-.44.31-.66.15-.21.34-.41.56-.58.22-.18.46-.32.73-.42.27-.11.54-.16.82-.16.21,0,.36,0,.44.02s.16.02.25.03v1.76c-.13-.02-.26-.04-.39-.06-.13-.02-.26-.02-.39-.02-.31,0-.6.06-.87.18s-.51.3-.71.54c-.2.24-.36.54-.48.89-.12.35-.18.76-.18,1.22v3.94h-1.82v-8.27Z"/>
      <path d="M197.15,22.31c0,.32.05.63.14.93.09.3.23.56.41.78.18.22.41.4.69.54.28.13.61.2.99.2.53,0,.96-.11,1.29-.34.33-.23.57-.57.73-1.03h1.73c-.1.45-.26.85-.5,1.2-.23.35-.52.65-.85.89-.33.24-.7.42-1.11.54s-.84.18-1.29.18c-.65,0-1.23-.11-1.73-.32-.5-.21-.93-.51-1.27-.9-.35-.38-.61-.84-.78-1.38-.18-.53-.26-1.12-.26-1.76,0-.59.09-1.14.28-1.67.19-.53.45-.99.8-1.39.35-.4.77-.72,1.26-.95.49-.23,1.05-.35,1.66-.35.65,0,1.23.14,1.75.41.52.27.95.63,1.29,1.08.34.45.59.96.74,1.54.15.58.19,1.18.12,1.8h-6.08ZM201.41,21.11c-.02-.29-.08-.57-.18-.83-.1-.27-.24-.5-.42-.7-.18-.2-.39-.36-.64-.48-.25-.12-.53-.18-.84-.18s-.61.06-.87.17c-.26.11-.49.27-.67.46-.19.2-.34.43-.45.7-.11.27-.17.55-.18.86h4.26Z"/>
    </g>
    <g>
      <path d="M238.24,29.2h5.46c1.26,0,2.2.27,2.83.82.63.54.94,1.3.94,2.27,0,.54-.08.99-.24,1.35s-.35.65-.56.86c-.21.22-.42.38-.63.47s-.36.16-.46.19v.03c.17.02.35.07.55.16.2.09.38.22.55.41s.31.43.42.73c.11.3.17.67.17,1.12,0,.67.05,1.28.15,1.83s.26.94.47,1.18h-2.14c-.15-.25-.24-.52-.26-.82-.03-.3-.04-.59-.04-.86,0-.52-.03-.97-.1-1.35-.06-.38-.18-.69-.35-.94-.17-.25-.4-.43-.7-.55s-.67-.18-1.13-.18h-2.94v4.7h-2v-11.42ZM240.24,34.4h3.28c.64,0,1.12-.15,1.46-.46.33-.3.5-.76.5-1.37,0-.36-.05-.66-.16-.89-.11-.23-.25-.41-.44-.54-.19-.13-.4-.21-.64-.26-.24-.04-.49-.06-.74-.06h-3.25v3.57Z"/>
      <path d="M249.3,29.2h1.82v1.73h-1.82v-1.73ZM249.3,32.36h1.82v8.27h-1.82v-8.27Z"/>
      <path d="M260.76,40.2c0,1.25-.35,2.18-1.05,2.79-.7.61-1.7.92-3.02.92-.42,0-.83-.04-1.26-.13-.42-.09-.81-.23-1.15-.43-.35-.2-.64-.47-.87-.8-.24-.33-.37-.74-.42-1.22h1.82c.05.26.14.46.27.62.13.16.28.29.46.38.18.09.37.15.58.18.21.03.44.04.67.04.74,0,1.27-.18,1.62-.54.34-.36.51-.89.51-1.57v-1.26h-.03c-.26.46-.61.82-1.05,1.07-.44.26-.92.38-1.43.38-.66,0-1.22-.11-1.69-.34-.46-.23-.85-.54-1.15-.94-.3-.4-.53-.86-.66-1.38s-.21-1.08-.21-1.68c0-.55.08-1.08.26-1.58.17-.5.42-.94.74-1.32.32-.38.71-.68,1.18-.9.46-.22.99-.34,1.58-.34.52,0,1,.11,1.44.33s.77.56,1.01,1.03h.03v-1.14h1.82v7.84ZM256.71,39.19c.41,0,.75-.08,1.03-.25.28-.17.51-.38.69-.66.18-.27.3-.58.38-.93s.12-.7.12-1.05-.04-.69-.13-1.02c-.09-.33-.22-.62-.39-.88-.18-.26-.41-.46-.69-.61s-.62-.22-1.02-.22-.75.09-1.02.26c-.28.17-.5.39-.67.66-.17.27-.29.58-.37.93s-.11.69-.11,1.03.04.67.13,1c.08.33.22.62.39.87.18.26.4.46.67.62.27.16.6.24.98.24Z"/>
      <path d="M262.59,29.2h1.82v4.24h.03c.22-.37.56-.69,1-.94.44-.25.94-.38,1.48-.38.91,0,1.62.23,2.14.7.52.47.78,1.17.78,2.11v5.68h-1.82v-5.2c-.02-.65-.16-1.12-.42-1.42-.26-.29-.66-.44-1.2-.44-.31,0-.59.06-.83.17-.25.11-.45.27-.62.46s-.3.43-.4.7c-.1.27-.14.55-.14.85v4.88h-1.82v-11.42Z"/>
      <path d="M270.95,32.36h1.38v-2.48h1.82v2.48h1.65v1.36h-1.65v4.42c0,.19,0,.36.02.5.02.14.05.26.11.35s.15.17.26.22c.12.05.28.07.48.07.13,0,.26,0,.38,0,.13,0,.26-.02.38-.06v1.41c-.2.02-.4.04-.59.06s-.39.03-.59.03c-.48,0-.87-.05-1.16-.14-.29-.09-.52-.22-.69-.4-.17-.18-.28-.4-.34-.66-.06-.27-.09-.57-.1-.91v-4.88h-1.38v-1.36Z"/>
      <path d="M281.81,29.2h2v9.7h5.81v1.73h-7.81v-11.42Z"/>
      <path d="M297.67,38.79c0,.22.03.38.09.48.06.1.17.14.34.14h.19c.07,0,.16-.01.26-.03v1.26c-.06.02-.15.04-.25.07-.1.03-.21.05-.31.07-.11.02-.21.04-.32.05-.11.01-.2.02-.27.02-.37,0-.68-.07-.93-.22-.25-.15-.41-.41-.48-.78-.36.35-.81.61-1.34.77-.53.16-1.04.24-1.53.24-.37,0-.73-.05-1.07-.15-.34-.1-.64-.25-.9-.45s-.47-.45-.62-.75c-.15-.3-.23-.66-.23-1.06,0-.51.09-.93.28-1.25s.43-.57.74-.75.65-.31,1.02-.39c.38-.08.76-.14,1.14-.18.33-.06.65-.11.94-.14.3-.03.56-.07.79-.14.23-.06.41-.16.54-.3.13-.13.2-.33.2-.6,0-.23-.06-.43-.17-.58-.11-.15-.25-.26-.42-.34-.17-.08-.35-.13-.55-.16-.2-.03-.39-.04-.58-.04-.51,0-.93.11-1.26.32-.33.21-.52.54-.56.99h-1.82c.03-.53.16-.98.38-1.33.22-.35.51-.63.86-.85.35-.21.74-.36,1.18-.45.44-.08.88-.13,1.34-.13.41,0,.81.04,1.2.13.39.09.75.22,1.06.42.31.19.57.44.76.74.19.3.29.67.29,1.11v4.26ZM295.84,36.48c-.28.18-.62.29-1.02.33-.41.04-.81.09-1.22.17-.19.03-.38.08-.56.14-.18.06-.34.14-.48.24-.14.1-.25.23-.33.4-.08.17-.12.37-.12.6,0,.2.06.37.18.51.12.14.26.25.42.33.17.08.35.14.54.17.2.03.38.05.54.05.2,0,.42-.03.66-.08.24-.05.46-.14.66-.27s.38-.29.52-.49c.14-.2.21-.44.21-.73v-1.36Z"/>
      <path d="M298.8,32.36h1.38v-2.48h1.82v2.48h1.65v1.36h-1.65v4.42c0,.19,0,.36.02.5.02.14.05.26.11.35s.15.17.26.22c.12.05.28.07.48.07.13,0,.26,0,.38,0,.13,0,.26-.02.38-.06v1.41c-.2.02-.4.04-.59.06-.19.02-.39.03-.59.03-.48,0-.87-.05-1.16-.14-.29-.09-.52-.22-.69-.4-.17-.18-.28-.4-.34-.66-.06-.27-.09-.57-.1-.91v-4.88h-1.38v-1.36Z"/>
      <path d="M306.39,36.96c0,.32.04.63.14.93s.23.56.41.78c.18.22.41.4.69.54.28.13.61.2.99.2.53,0,.96-.11,1.29-.34.33-.23.57-.57.73-1.03h1.73c-.1.45-.26.85-.5,1.2s-.52.65-.85.89c-.33.24-.7.42-1.11.54-.41.12-.84.18-1.29.18-.65,0-1.23-.11-1.73-.32-.5-.21-.93-.51-1.27-.9-.35-.38-.61-.84-.78-1.38-.18-.53-.26-1.12-.26-1.76,0-.59.09-1.14.28-1.67.19-.53.45-.99.8-1.39s.77-.72,1.26-.95c.49-.23,1.05-.35,1.66-.35.65,0,1.23.14,1.75.41s.95.63,1.29,1.08c.34.45.59.96.74,1.54s.19,1.18.12,1.8h-6.08ZM310.64,35.76c-.02-.29-.08-.57-.18-.83-.1-.27-.24-.5-.42-.7-.18-.2-.39-.36-.64-.48-.25-.12-.53-.18-.84-.18s-.61.06-.87.17c-.26.11-.49.27-.67.46s-.34.43-.45.7c-.11.27-.17.55-.18.86h4.26Z"/>
      <path d="M313.86,32.36h1.71v1.6h.03c.05-.22.16-.44.31-.66.15-.21.34-.41.56-.58.22-.18.46-.32.73-.42.27-.11.54-.16.82-.16.21,0,.36,0,.44.02s.16.02.25.03v1.76c-.13-.02-.26-.04-.39-.06-.13-.02-.26-.02-.39-.02-.31,0-.6.06-.87.18-.27.12-.51.3-.71.54-.2.24-.36.54-.48.89s-.18.76-.18,1.22v3.94h-1.82v-8.27Z"/>
      <path d="M326.42,38.79c0,.22.03.38.09.48.06.1.17.14.34.14h.19c.07,0,.16-.01.26-.03v1.26c-.06.02-.15.04-.25.07-.1.03-.21.05-.31.07-.11.02-.21.04-.32.05-.11.01-.2.02-.27.02-.37,0-.68-.07-.93-.22-.25-.15-.41-.41-.48-.78-.36.35-.81.61-1.34.77-.53.16-1.04.24-1.53.24-.37,0-.73-.05-1.07-.15-.34-.1-.64-.25-.9-.45s-.47-.45-.62-.75c-.15-.3-.23-.66-.23-1.06,0-.51.09-.93.28-1.25s.43-.57.74-.75.65-.31,1.02-.39c.38-.08.76-.14,1.14-.18.33-.06.65-.11.94-.14.3-.03.56-.07.79-.14.23-.06.41-.16.54-.3.13-.13.2-.33.2-.6,0-.23-.06-.43-.17-.58-.11-.15-.25-.26-.42-.34-.17-.08-.35-.13-.55-.16-.2-.03-.39-.04-.58-.04-.51,0-.93.11-1.26.32-.33.21-.52.54-.56.99h-1.82c.03-.53.16-.98.38-1.33.22-.35.51-.63.86-.85.35-.21.74-.36,1.18-.45.44-.08.88-.13,1.34-.13.41,0,.81.04,1.2.13.39.09.75.22,1.06.42.31.19.57.44.76.74.19.3.29.67.29,1.11v4.26ZM324.59,36.48c-.28.18-.62.29-1.02.33-.41.04-.81.09-1.22.17-.19.03-.38.08-.56.14-.18.06-.34.14-.48.24-.14.1-.25.23-.33.4-.08.17-.12.37-.12.6,0,.2.06.37.18.51.12.14.26.25.42.33.17.08.35.14.54.17.2.03.38.05.54.05.2,0,.42-.03.66-.08.24-.05.46-.14.66-.27s.38-.29.52-.49c.14-.2.21-.44.21-.73v-1.36Z"/>
      <path d="M328.43,29.2h1.82v11.42h-1.82v-11.42Z"/>
    </g>
    <g>
      <path d="M62.97,2.29h5.46c1.26,0,2.2.27,2.83.82s.94,1.3.94,2.27c0,.54-.08.99-.24,1.35s-.35.65-.56.86c-.21.22-.42.38-.63.47s-.36.16-.46.19v.03c.17.02.35.07.55.16.2.09.38.22.55.41.17.19.31.43.42.73.11.3.17.67.17,1.12,0,.67.05,1.28.15,1.83.1.55.26.94.47,1.18h-2.14c-.15-.25-.24-.52-.26-.82-.03-.3-.04-.59-.04-.86,0-.52-.03-.97-.1-1.35-.06-.38-.18-.69-.35-.94-.17-.25-.4-.43-.7-.55-.29-.12-.67-.18-1.13-.18h-2.94v4.7h-2V2.29ZM64.97,7.49h3.28c.64,0,1.12-.15,1.46-.46.33-.3.5-.76.5-1.37,0-.36-.05-.66-.16-.89-.11-.23-.25-.41-.44-.54-.19-.13-.4-.21-.64-.26-.24-.04-.49-.06-.74-.06h-3.25v3.57Z"/>
      <path d="M74.02,2.29h1.82v1.73h-1.82v-1.73ZM74.02,5.44h1.82v8.27h-1.82V5.44Z"/>
      <path d="M85.48,13.28c0,1.25-.35,2.18-1.05,2.79-.7.61-1.7.92-3.02.92-.42,0-.83-.04-1.26-.13s-.81-.23-1.15-.43c-.35-.2-.64-.47-.87-.8-.23-.33-.37-.74-.42-1.22h1.82c.05.26.14.46.27.62.13.16.28.29.46.38.18.09.37.15.58.18s.44.04.67.04c.74,0,1.27-.18,1.62-.54.34-.36.51-.89.51-1.57v-1.26h-.03c-.26.46-.61.82-1.05,1.07-.44.26-.92.38-1.43.38-.66,0-1.22-.11-1.69-.34-.46-.23-.85-.54-1.15-.94-.3-.4-.53-.86-.66-1.38s-.21-1.08-.21-1.68c0-.55.08-1.08.26-1.58.17-.5.42-.94.74-1.32.32-.38.71-.68,1.18-.9.46-.22.99-.34,1.58-.34.52,0,1,.11,1.44.33.44.22.77.56,1.01,1.03h.03v-1.14h1.82v7.84ZM81.43,12.27c.41,0,.75-.08,1.03-.25.28-.17.51-.38.69-.66.18-.27.3-.58.38-.93s.12-.7.12-1.05-.04-.69-.13-1.02c-.09-.33-.22-.62-.39-.88-.18-.26-.41-.46-.69-.61-.28-.15-.62-.22-1.02-.22s-.75.09-1.02.26c-.28.17-.5.39-.67.66-.17.27-.29.58-.37.93-.07.35-.11.69-.11,1.03s.04.67.13,1c.08.33.22.62.39.87.18.26.4.46.67.62.27.16.6.24.98.24Z"/>
      <path d="M87.32,2.29h1.82v4.24h.03c.22-.37.56-.69,1-.94.44-.25.94-.38,1.48-.38.91,0,1.62.23,2.14.7.52.47.78,1.17.78,2.11v5.68h-1.82v-5.2c-.02-.65-.16-1.12-.42-1.42-.26-.29-.66-.44-1.2-.44-.31,0-.59.06-.83.17-.25.11-.45.27-.62.46-.17.2-.3.43-.4.7-.1.27-.14.55-.14.85v4.88h-1.82V2.29Z"/>
      <path d="M95.67,5.44h1.38v-2.48h1.82v2.48h1.65v1.36h-1.65v4.42c0,.19,0,.36.02.5s.05.26.11.35.15.17.26.22c.12.05.28.07.48.07.13,0,.26,0,.38,0,.13,0,.26-.02.38-.06v1.41c-.2.02-.4.04-.59.06-.19.02-.39.03-.59.03-.48,0-.87-.05-1.16-.14-.29-.09-.52-.22-.69-.4-.17-.18-.28-.4-.34-.66-.06-.27-.09-.57-.1-.91v-4.88h-1.38v-1.36Z"/>
      <path d="M106.54,2.29h8.22v1.73h-6.22v2.99h5.76v1.63h-5.76v3.34h6.34v1.73h-8.34V2.29Z"/>
      <path d="M123.29,11.87c0,.22.03.38.09.48.06.1.17.14.34.14h.19c.07,0,.16-.01.26-.03v1.26c-.06.02-.15.04-.25.07-.1.03-.21.05-.31.07-.11.02-.21.04-.32.05-.11.01-.2.02-.27.02-.37,0-.68-.07-.93-.22-.25-.15-.41-.41-.48-.78-.36.35-.81.61-1.34.77-.53.16-1.04.24-1.53.24-.37,0-.73-.05-1.07-.15-.34-.1-.64-.25-.9-.45-.26-.2-.47-.45-.62-.75-.15-.3-.23-.66-.23-1.06,0-.51.09-.93.28-1.25s.43-.57.74-.75c.3-.18.65-.31,1.02-.39.38-.08.76-.14,1.14-.18.33-.06.65-.11.94-.14.3-.03.56-.07.79-.14.23-.06.41-.16.54-.3.13-.13.2-.33.2-.6,0-.23-.06-.43-.17-.58-.11-.15-.25-.26-.42-.34s-.35-.13-.55-.16c-.2-.03-.4-.04-.58-.04-.51,0-.93.11-1.26.32-.33.21-.52.54-.56.99h-1.82c.03-.53.16-.98.38-1.33.22-.35.51-.63.86-.85.35-.21.74-.36,1.18-.45.44-.08.89-.13,1.34-.13.41,0,.81.04,1.2.13.39.09.75.22,1.06.42.31.19.57.44.76.74s.29.67.29,1.11v4.26ZM121.46,9.57c-.28.18-.62.29-1.02.33-.41.04-.81.09-1.22.17-.19.03-.38.08-.56.14-.18.06-.34.14-.48.24-.14.1-.25.23-.33.4-.08.17-.12.37-.12.6,0,.2.06.37.18.51.12.14.26.25.42.33.17.08.35.14.54.17.2.03.38.05.54.05.2,0,.42-.03.66-.08s.46-.14.66-.27.38-.29.52-.49c.14-.2.21-.44.21-.73v-1.36Z"/>
      <path d="M125.26,5.44h1.71v1.6h.03c.05-.22.16-.44.31-.66.15-.21.34-.41.56-.58.22-.18.46-.32.73-.42.27-.11.54-.16.82-.16.21,0,.36,0,.44.02s.16.02.25.03v1.76c-.13-.02-.26-.04-.39-.06-.13-.02-.26-.02-.39-.02-.31,0-.6.06-.87.18s-.51.3-.71.54c-.2.24-.36.54-.48.89-.12.35-.18.76-.18,1.22v3.94h-1.82V5.44Z"/>
    </g>
  </g>
  <g id="d" data-name="Layer 2">
    <circle class="e" cx="19.12" cy="84.59" r="9"/>
    <circle class="e" cx="96.15" cy="43.57" r="9"/>
    <circle class="e" cx="94" cy="94.07" r="9"/>
    <circle class="e" cx="144.16" cy="156.91" r="9"/>
    <circle class="e" cx="206.39" cy="79.98" r="9"/>
    <circle class="e" cx="179.06" cy="118.57" r="9"/>
    <circle class="e" cx="279.6" cy="178.81" r="9"/>
    <circle class="e" cx="493.16" cy="104.65" r="9"/>
  </g>
</svg>