<?xml version="1.0" encoding="UTF-8"?>
<svg xmlns="http://www.w3.org/2000/svg" viewBox="0 0 841.89 182.21">
  <defs>
    <style>
      .e {
        fill: #b274de;
        opacity: .8;
        stroke: #8046b2;
      }

      .e, .f, .g, .h {
        stroke-miterlimit: 10;
      }

      .e, .h {
        stroke-width: 2px;
      }

      .i, .j, .k, .l, .f, .g, .h, .m {
        fill: none;
      }

      .i, .j, .k, .l, .f, .g, .m {
        stroke-width: .5px;
      }

      .i, .j, .k, .l, .m {
        stroke-linejoin: round;
      }

      .i, .m {
        stroke: #bd9279;
      }

      .n {
        fill: #fffbe5;
      }

      .o {
        fill: #e09e97;
      }

      .p {
        fill: #e0d8cb;
      }

      .q {
        fill: #db9081;
      }

      .j, .l, .f {
        stroke: #b56e60;
      }

      .k {
        stroke: #6e685e;
      }

      .r {
        fill: #dfb2ae;
      }

      .l, .g, .m {
        stroke-linecap: round;
      }

      .s {
        fill: #b56e60;
      }

      .g {
        stroke: #36322d;
      }

      .t {
        fill: #36322d;
      }

      .u {
        fill: #6e685e;
      }

      .h {
        stroke: #000;
      }

      .v {
        fill: #e1d4bd;
      }

      .w {
        fill: #524d46;
      }

      .x {
        fill: #c37a6b;
      }
    </style>
  </defs>
  <g id="a" data-name="Layer 1">
    <g>
      <path class="o" d="M308.67,23.29s1.16.34,1.45,1.45l.77-.77s-.79-.98-2.22-.68Z"/>
      <path class="o" d="M302.34,24.88s1.18.27,1.52,1.36l.73-.81s-.84-.93-2.25-.55Z"/>
      <path class="o" d="M300.98,30.06s1.2-.15,1.9.76l.4-1.01s-1.11-.59-2.3.25Z"/>
      <path class="o" d="M302.67,35.4s1.08-.56,2.04.05l.02-1.09s-1.24-.16-2.07,1.04Z"/>
      <path class="x" d="M323.15,35.43s-6.16-3.04-7.2-4.28-1.53-2.6-1.48-3.43-3.69-4.95-4.58-4.08,2.43,3.69,1.21,4.91c-.79.79-6.68-4.53-7.66-3.56-1.07,1.07,5.11,4.64,4.97,5.37s-5.98-1.51-6.43-.5c-.54,1.22,6.19,2.97,6.05,3.8s-4.68-.2-4.73,1.12c-.05,1.4,7.7,1.66,7.8,2.44s12.04-1.8,12.04-1.8Z"/>
      <path class="o" d="M317.45,33.31c-.7-.49-1.32-1.08-1.83-1.76-.75-.99-1.63-2.11-1.36-2.99.09-.3.13-.69.14-1.1-.48-1.21-3.69-4.61-4.51-3.81-.5.49.35,1.61.95,2.71h0s1.99,2.36,1.41,2.94-4.22-2.15-4.22-2.15h0c-1.89-1.24-4.03-2.71-4.58-2.16-.64.64,1.32,2.18,2.96,3.46l.19.12s3.96,1.88,3.69,2.63c-.27.75-5.07-1.22-5.09-1.23-1.5-.33-3-.61-3.21-.12-.28.63,1.39,1.41,3.05,2.12.01,0,4.22,1.09,4.24,1.84.02.75-3.66.22-3.66.22h0c-1.15.01-2.29.09-2.31.74-.05,1.4,7.7,1.66,7.8,2.44.05.43,3.76-.17,7.05-.79l1.73-1.44-2.43-1.7Z"/>
      <path class="o" d="M297.62,101.54s1.21.03,1.81-.94l.5.97s-1.05.69-2.32-.02Z"/>
      <path class="o" d="M292.07,98.11s1.21.1,1.86-.84l.45.99s-1.08.63-2.31-.15Z"/>
      <path class="o" d="M292.33,92.77s1.1.5,2.04-.15l.08,1.09s-1.23.23-2.12-.93Z"/>
      <path class="x" d="M315.09,94.32s-6.79,1.04-8.16,1.91-2.24,2.02-2.44,2.82-5.01,3.61-5.59,2.51,3.43-2.79,2.64-4.32c-.51-.99-7.74,2.31-8.37,1.08-.7-1.35,6.27-2.88,6.35-3.62s-6.16-.36-6.28-1.47c-.14-1.32,6.8-.97,6.91-1.8s-4.52-1.23-4.17-2.5c.37-1.35,7.85.74,8.17.03s10.94,5.35,10.94,5.35Z"/>
      <path class="o" d="M309.01,94.64c-.81.26-1.58.64-2.28,1.13-1.02.71-2.19,1.52-2.19,2.44,0,.32-.08.7-.2,1.09-.82,1-4.91,3.28-5.45,2.28-.33-.62.82-1.43,1.73-2.3h0s2.61-1.65,2.23-2.38-4.67.78-4.67.78h0c-2.17.61-4.66,1.37-5.02.67-.42-.81,1.91-1.68,3.87-2.41l.22-.06s4.34-.6,4.31-1.4c-.03-.79-5.2-.37-5.22-.36-1.53-.13-3.04-.32-3.1-.86-.07-.69,1.75-.92,3.54-1.1.02,0,4.35.23,4.6-.47.25-.71-3.42-1.32-3.42-1.32h0c-1.1-.36-2.15-.77-1.98-1.41.37-1.35,7.85.74,8.17.03.18-.4,3.53,1.3,6.48,2.88l1.22,1.89-2.83.89Z"/>
      <path class="o" d="M295.55,88.18s.86.86,1.96.57l-.3,1.05s-1.24-.22-1.66-1.62Z"/>
      <path class="o" d="M432.47,141.66s-10.01-14.27,4.78-9.76c14.78,4.51,56.25,13.58,72.04,15.43,13.76,1.61,29.26-.65,40-5.78s22.72-20.85,29.41-29.1,18.21-28.48,20.07-30.65,2.96-.47,3.11.93-16.18,30.19-27.7,46.37c-11.52,16.18-28.17,26.3-49.95,28.48-21.79,2.18-41.86-5.14-57.58-7.78-15.72-2.65-33.13-7.08-33.13-7.08l-1.05-1.05Z"/>
      <path class="r" d="M564.34,136.14c-10.62,10.62-24.21,16.83-40.4,18.45-15.4,1.54-30.04-1.84-42.96-4.83-4.88-1.13-9.49-2.19-13.82-2.92-13.53-2.28-28.51-5.94-32.09-6.83l-.27-.27c-1.37-2.01-2.51-4.51-2.62-5.69.55-.05,1.79,0,4.2.74,14.8,4.52,56.3,13.64,72.57,15.54,14.37,1.68,30.32-.64,41.65-6.06,4.15-1.99,8.67-5.45,13.81-10.59,5.04-5.04,9.82-10.86,13.53-15.47-2.11,3.25-4.2,6.36-6.19,9.15-2.26,3.18-4.75,6.14-7.4,8.78Z"/>
      <g>
        <path class="v" d="M252.66,72.75c1.41,5.98.84,12.3-.97,18.12,1.73-5.81,2.21-12.13.73-18.05-.05-.16.2-.24.24-.07h0Z"/>
        <path class="v" d="M254.76,75.94c3.14,5.62,4.25,12.12,4.78,18.47-.61-6.3-1.8-12.79-4.99-18.33-.1-.13.12-.29.21-.14h0Z"/>
        <path class="v" d="M258.33,75.18c7.88,8.11,16.5,15.54,25.69,22.15-4.62-3.27-9.1-6.75-13.41-10.42-4.31-3.67-8.49-7.5-12.46-11.55-.11-.11.07-.3.18-.17h0Z"/>
        <path class="v" d="M256.24,76.06c2.63,5.09,5.1,10.39,8.77,14.83-3.74-4.39-6.29-9.66-9-14.72-.07-.14.15-.26.22-.11h0Z"/>
        <path class="v" d="M258.46,76.8c1.72,2.8,3.36,5.64,4.92,8.53,1.45,2.91,3.23,5.81,3.72,9.07-.53-3.25-2.34-6.12-3.83-9.01-1.59-2.87-3.27-5.69-5.02-8.46-.09-.13.13-.28.21-.13h0Z"/>
        <path class="v" d="M258.93,76.54c6.11,6.63,12.53,13.12,17.5,20.68-5.04-7.5-11.51-13.94-17.68-20.5-.11-.11.07-.3.18-.17h0Z"/>
        <path class="v" d="M254.68,57.13c2.8-8.34,5.02-16.87,6.8-25.48-1.7,8.64-3.84,17.19-6.56,25.56-.05.15-.3.08-.24-.08h0Z"/>
        <path class="v" d="M251.88,58.68c-.65-7.52-2.02-15-4.16-22.25,2.23,7.23,3.68,14.7,4.41,22.23.02.16-.24.19-.25.02h0Z"/>
        <path class="v" d="M253.17,58c.62-7.31,1.39-14.82-.06-22.07.87,3.6.91,7.34.9,11.02-.04,3.7-.25,7.39-.59,11.07-.01.16-.27.14-.25-.03h0Z"/>
        <path class="v" d="M253.68,57.29c.59-7.34,2.32-14.52,4.09-21.65-1.68,7.13-3.33,14.33-3.84,21.65,0,.16-.26.16-.25,0h0Z"/>
        <path class="v" d="M249.49,59.08c-.28-3.03-.71-6.12-1.89-8.95,1.25,2.81,1.77,5.89,2.14,8.93.02.16-.24.19-.25.02h0Z"/>
        <path class="v" d="M248.78,59.38c-1.08-4.97-4.58-9.19-8.87-11.82,4.37,2.58,7.95,6.77,9.11,11.78.03.16-.23.21-.25.04h0Z"/>
        <path class="v" d="M254.09,76.23c.64,4.24,1.33,8.93-.51,12.96,1.76-4.04.99-8.7.27-12.91-.04-.16.22-.22.24-.05h0Z"/>
        <path class="v" d="M252.01,75.9c-.37,1.65-.65,3.33-.8,5.02.07-1.7.26-3.39.55-5.07.03-.17.29-.11.24.05h0Z"/>
        <path class="v" d="M247.82,60.06c-1.09-2.56-2.27-5.19-4.22-7.22,2.02,1.97,3.28,4.58,4.46,7.12.07.15-.17.25-.23.09h0Z"/>
        <path class="v" d="M255.74,56.47c3.29-7.19,7.69-14.02,13.66-19.26-5.9,5.29-10.23,12.16-13.43,19.36-.06.15-.3.06-.23-.1h0Z"/>
      </g>
      <path class="j" d="M432.47,141.66s-10.01-14.27,4.78-9.76c14.78,4.51,56.25,13.58,72.04,15.43,13.76,1.61,29.26-.65,40-5.78s22.72-20.85,29.41-29.1,18.21-28.48,20.07-30.65,2.96-.47,3.11.93-16.18,30.19-27.7,46.37c-11.52,16.18-28.17,26.3-49.95,28.48-21.79,2.18-41.86-5.14-57.58-7.78-15.72-2.65-33.13-7.08-33.13-7.08l-1.05-1.05Z"/>
      <path class="s" d="M309.21,23.23c.48,0,.87.15,1.14.31,0,0,0,0,0,0,0,0,0,0,0,0,.74.14,1.96,1.22,2.87,2.27.09.09.16.18.24.28.44.53.79,1.03.93,1.36h0c.05.13.08.21.07.28-.05.83.44,2.19,1.48,3.43,1.04,1.23,7.2,4.28,7.2,4.28,0,0-2.36.51-5,1.01-1.38.26-2.83.52-4.05.7-.29.04-.57.08-.84.11-.62.08-1.15.13-1.53.13-.13,0-.24,0-.33-.02-.07,0-.13-.01-.17-.03-.07-.02-.12-.06-.13-.1-.09-.7-6.43-.99-7.61-2.06-.48.04-.83.23-.83.23.2-.29.42-.49.64-.64,0,0,0,0,0,0h0c0-.12.06-.21.14-.29.11-.11.26-.19.46-.24.06-.02.11-.04.19-.05.07-.02.14-.03.21-.04.09-.01.16-.02.26-.03.27-.03.56-.04.86-.04.06,0,.13,0,.19,0,0,0,.01,0,.03,0,1.15-.03,2.31.02,2.39-.39.07-.39-1.44-1.01-2.97-1.67-.02,0-.04-.01-.04-.01-.15-.06-.29-.13-.44-.19-.26-.13-.53-.24-.78-.36-.91-.44-1.66-.87-1.83-1.26-.33-.12-.64-.14-.83-.14-.11,0-.18,0-.18,0,.49-.34.96-.45,1.35-.45.06,0,.13,0,.19,0,0,0,.01,0,.02,0,.01,0,.03,0,.04,0h.01c.07,0,.16,0,.24,0,.12,0,.26.02.39.03.57.06,1.27.19,1.96.35,0,0,0,0,.02,0,1.13.25,2.24.52,2.81.52.23,0,.37-.04.39-.15.06-.29-.9-1.04-1.99-1.9h-.02c-.24-.2-.5-.39-.75-.59-.09-.08-.19-.15-.28-.23-.1-.08-.19-.15-.28-.23-.17-.14-.33-.28-.49-.41-.01-.01-.03-.02-.04-.04-.64-.57-1.13-1.1-1.23-1.51,0,0,0-.02,0-.03-.46-.43-1-.55-1-.55.24-.06.46-.09.66-.09.25,0,.47.04.67.1h.01s.08-.01.13-.01c.04,0,.08,0,.12,0,.07,0,.14.02.21.04.1.02.21.06.32.11.15.05.31.13.49.21h0c.17.09.34.18.51.28l.64.38c.1.06.2.13.3.19l1.64,1.06s.03.02.09.07c1.18.76,2.24,1.41,2.75,1.41.1,0,.18-.03.23-.08.53-.53.21-1.35-.25-2.19h-.01c-.3-.56-.67-1.12-.89-1.61-.04-.08-.08-.16-.1-.25-.08-.19-.11-.36-.11-.51-.44-.53-1.06-.71-1.06-.71.19-.04.37-.06.54-.06M309.21,22.73c-.21,0-.42.02-.64.07-.22.05-.39.24-.4.47,0,.23.14.43.36.5,0,0,.4.12.72.44.02.15.06.3.12.46.04.12.08.22.13.32.13.29.33.62.54.97.12.21.24.41.36.62.01.02.02.04.04.06.41.75.53,1.22.37,1.47-.48-.08-1.8-.93-2.4-1.31-.08-.07-.13-.09-.13-.09l-1.62-1.05-.14-.09-.17-.11-.65-.38c-.18-.1-.34-.19-.51-.28-.01,0-.03-.02-.04-.02-.23-.12-.4-.19-.55-.24-.11-.05-.25-.09-.36-.12-.09-.02-.18-.05-.28-.06-.04,0-.1-.01-.16-.01-.04,0-.07,0-.1,0-.23-.06-.46-.09-.7-.09-.26,0-.52.04-.79.11-.22.06-.37.26-.37.49,0,.23.17.43.39.48,0,0,.35.08.67.34.16.44.59.96,1.32,1.61.03.03.06.06.09.08-.02-.01-.03-.03-.05-.04l.52.44c.1.08.19.16.3.24.02.02.08.06.13.11.04.03.08.07.13.1.15.12.29.23.42.33.12.09.23.18.34.27.02.02.04.03.07.05l.08.06c.39.31.87.69,1.22.99-.44-.07-1.02-.2-1.57-.33l-.54-.12s-.03,0-.04-.01c-.85-.19-1.51-.31-2.02-.36-.15-.01-.29-.03-.42-.03-.02,0-.04,0-.07,0-.1,0-.18,0-.24,0-.07,0-.15,0-.23,0-.57,0-1.12.18-1.64.53-.19.13-.26.37-.18.59.07.2.26.32.47.32.02,0,.04,0,.06,0,0,0,.05,0,.12,0,.1,0,.29,0,.49.06.28.39.86.77,1.94,1.29.15.07.3.15.46.22.1.05.21.09.31.14.11.04.19.08.26.11l.2.08s.06.02.07.03l.22.1c.65.28,1.53.66,2.05.94-.32.03-.75.03-1.07.04h-.42s-.05,0-.07,0h-.19c-.34,0-.64.02-.91.05-.07,0-.14.01-.23.03-.1.01-.2.03-.29.05-.09.02-.17.04-.24.06-.25.06-.49.19-.66.36-.11.11-.18.22-.23.35-.23.18-.44.4-.62.66-.13.19-.12.44.04.62.1.11.23.17.37.17.08,0,.16-.02.23-.06h0s.18-.09.45-.14c.79.52,2.42.83,4.59,1.2,1,.17,2.36.4,2.71.58.06.12.18.26.41.34.08.04.2.05.28.05.09.01.23.02.38.02.39,0,.94-.05,1.6-.13.27-.03.55-.07.84-.11,1.44-.21,3.01-.5,4.07-.7,2.61-.49,4.98-1,5.01-1.01.21-.05.36-.22.39-.43.03-.21-.08-.42-.27-.51-1.69-.83-6.24-3.21-7.04-4.15-.99-1.18-1.4-2.42-1.36-3.07.01-.16-.03-.32-.09-.45,0-.02,0-.03-.02-.05-.18-.46-.65-1.07-1.01-1.5-.07-.1-.16-.2-.27-.31-.29-.34-1.88-2.12-3.06-2.39-.4-.22-.85-.34-1.32-.34h0Z"/>
      <path class="s" d="M295.55,88.18s.29.29.71.46c.25-.12.65-.16,1.13-.16,1.81,0,4.85.65,6.15.65.34,0,.55-.04.6-.15,0,0,0-.02.01-.02.01-.01.04-.02.08-.02t.02,0s.02,0,.03,0c.03,0,.06,0,.09,0h0s.08,0,.13.02c.09.03.18.04.28.08.13.04.27.09.43.15.02,0,.04.02.06.03.09.04.19.08.3.13.53.23,1.14.52,1.81.85.16.08.31.15.48.24.02,0,.04.01.04.02.14.07.29.15.44.23.04.01.07.03.1.05.13.07.26.13.39.2.05.02.1.05.16.08.11.06.23.12.34.18.44.23.87.46,1.3.69,2.36,1.27,4.46,2.47,4.46,2.47,0,0-6.8,1.04-8.16,1.91-1.36.86-2.23,2.02-2.44,2.83-.02.07-.07.14-.14.23h0c-.1.13-.26.28-.46.44-.06.05-.13.1-.19.16-.07.05-.15.11-.23.16-.03.02-.07.04-.11.08-.21.13-.43.28-.66.42-1.11.66-2.45,1.27-3.23,1.27-.06,0-.11,0-.16-.01-.15.03-.31.06-.5.06-.35,0-.75-.08-1.18-.32,0,0,0,0,.02,0,.1,0,.69-.02,1.22-.36.12-.43.67-.92,1.25-1.44.17-.16.35-.31.51-.48l.04-.03c.68-.65,1.21-1.33.87-1.98-.07-.13-.26-.19-.54-.19-.59,0-1.57.25-2.63.54h0s-.06.01-.08.02c-.02,0-.04.01-.06.02-.02,0-.03,0-.04.01h-.01c-.13.04-.26.08-.39.11l-3,.75c-.11.02-.21.03-.31.04l-1.13-.06s-.03-.01-.04-.02c-.03-.02-.05-.03-.08-.06.02.02.05.04.08.06,0,0,.02.01.02.02-.01,0-.02,0-.03,0-.36,0-.79-.1-1.23-.39,0,0,.03,0,.1,0,.18,0,.6-.02,1.02-.22h0c.08-.15.23-.3.44-.44.1-.07.21-.15.34-.22.02-.02.04-.03.07-.04.11-.06.24-.13.36-.19.15-.08.31-.15.48-.23.33-.14.69-.29,1.06-.43.36-.15.74-.29,1.09-.42h0c1.31-.5,2.44-.93,2.48-1.22.04-.38-1.55-.46-3.13-.61h-.04s0,0,0,0c0,0,0,0,0,0-.41-.03-.81-.08-1.19-.12-.07-.01-.15-.02-.22-.03-.2-.03-.39-.06-.56-.1-.06-.01-.12-.03-.19-.04-.19-.04-.34-.09-.47-.14-.02,0-.04-.01-.04-.02-.41-.09-.9-.34-1.31-.88,0,0,.4.18.92.18.02,0,.05,0,.07,0h0c.14-.16.39-.28.73-.38.18-.06.39-.1.62-.14.09-.02.18-.04.26-.05.16-.03.31-.05.48-.08.36-.05.74-.09,1.13-.14.08,0,.15-.01.23-.02,1.66-.18,3.32-.31,3.37-.71.06-.42-1.07-.72-2.16-1.08-.02,0-.03,0-.03,0h0c-.29-.09-.57-.19-.84-.29-.07-.03-.14-.06-.21-.09-.06-.02-.11-.04-.16-.08-.08-.04-.15-.08-.22-.12-.05-.03-.1-.05-.14-.09-.29-.19-.47-.42-.42-.68-.16-.21-.32-.48-.42-.82M295.55,87.68c-.09,0-.18.02-.26.07-.2.12-.29.35-.22.57.09.29.22.57.39.83.02.28.16.61.62.93.07.06.14.1.2.13.08.05.16.09.24.13.06.03.13.07.2.09l.1.04.09.04c.25.1.48.18.71.26l.17.06s.08.02.11.03l.35.12c.31.1.72.23,1.03.36-.55.11-1.45.2-2.11.27l-.45.05h-.09s-.06.02-.09.02c-.02,0-.04,0-.06,0-.39.04-.77.09-1.14.14l-.15.02c-.12.02-.24.03-.36.06-.08.01-.19.03-.3.06-.18.03-.41.08-.63.15-.34.11-.59.22-.77.36-.34-.02-.6-.13-.6-.14-.07-.03-.13-.04-.2-.04-.15,0-.3.07-.39.19-.14.18-.14.43,0,.61.51.67,1.12.94,1.55,1.05.01,0,.03.01.04.02.14.06.33.12.53.16.05.01.12.03.19.04.14.04.34.07.6.11.07,0,.14.02.2.03.41.05.83.09,1.24.12.01,0,.03,0,.04,0,0,0,0,0,0,0h0l.55.05c.51.04,1.13.1,1.59.16-.45.2-1.06.43-1.56.62l-.07.03s-.03.01-.05.02c-.37.14-.72.27-1.06.41-.36.13-.73.29-1.06.43-.18.08-.35.16-.5.24-.13.07-.26.13-.38.2-.02,0-.06.03-.1.06-.12.07-.24.15-.37.24-.19.14-.35.28-.47.44-.3.11-.58.13-.69.13h-.06s-.02,0-.03,0c-.21,0-.41.14-.48.34-.07.22.01.45.2.58.47.3.98.46,1.47.47.02,0,.04,0,.05,0l1.13.06s.02,0,.02,0c.02,0,.04,0,.06,0,.11-.01.22-.03.33-.05l3.04-.76.21-.06.18-.05s.02,0,.03,0c.02,0,.04,0,.06-.02l.05-.02s.04,0,.06-.01c.98-.27,1.97-.53,2.5-.53.05,0,.1,0,.12,0,.07.29-.17.69-.78,1.28h-.01s-.04.04-.06.06c-.1.1-.22.2-.33.3l-.17.16c-.59.52-1.09.98-1.32,1.46-.37.19-.76.2-.81.2-.23,0-.43.15-.49.37-.06.22.03.45.23.56.46.26.94.39,1.43.39.18,0,.35-.02.52-.05.04,0,.09,0,.14,0,1.17,0,2.96-1.02,3.49-1.34.16-.1.3-.19.44-.28l.22-.14s.06-.04.09-.07c.08-.05.12-.08.17-.12.03-.02.06-.05.09-.07l.23-.18c.24-.19.42-.36.53-.51h0c.11-.13.2-.26.24-.42.17-.65.93-1.72,2.22-2.54,1.05-.66,6.11-1.55,7.97-1.84.21-.03.38-.19.42-.4s-.06-.42-.24-.53c-.02-.01-2.13-1.22-4.47-2.48-.44-.24-.87-.47-1.31-.69-.05-.03-.11-.06-.17-.09-.05-.03-.11-.05-.16-.08-.06-.03-.12-.06-.18-.09l-.19-.1-.19-.1s-.06-.04-.13-.07l-.16-.08c-.09-.05-.18-.09-.26-.13h0s-.03-.01-.04-.02c-.17-.09-.32-.17-.49-.24-.73-.36-1.34-.65-1.83-.86l-.11-.04c-.06-.03-.12-.05-.18-.08-.02,0-.04-.02-.05-.02-.02,0-.04-.02-.06-.02l-.11-.04c-.12-.04-.23-.08-.33-.11-.05-.02-.14-.04-.22-.06l-.07-.02c-.09-.02-.16-.03-.23-.04-.05,0-.09,0-.13,0-.02,0-.05,0-.07,0,0,0-.02,0-.03,0-.01,0-.02,0-.03,0h0s0,0-.01,0c-.13.02-.25.08-.34.17,0,0-.01.01-.02.02-.05,0-.12.01-.25.01-.56,0-1.51-.14-2.52-.28-1.22-.17-2.61-.37-3.63-.37-.47,0-.83.04-1.11.12-.23-.13-.38-.27-.38-.28-.1-.1-.22-.15-.35-.15h0Z"/>
      <path class="w" d="M246.49,62.83s-4.21,1.75-4.49,4.86,4.35,3.8,4.35,3.8c0,0,5.69,5.54,9.18,5.63s5.47-.75,7.26.09,3.49,2.55,6.5,3.11,5-.47,6.32.28,2.64,3.77,4.52,4.52,7.84-.85,12.47,1.63,3.78,5.7,6.04,6.45,8.72,4.63,12.59,6.13,6.24,3.44,13.45,10.87c7.21,7.42,12.37,9.58,14.1,12.8s2.26,7.86,8.29,13.45c6.03,5.6,18.62,8.5,30.24,9.58s17.97,2.69,24.64,1.18c6.67-1.51,6.35-4.63,14.2-3.87,7.86.75,10.44-.75,14.1.11,3.66.86,4.41,1.83,5.49,1.61s5.92-12.16,4.95-13.34-7.32-2.8-10.11-8.18c-2.8-5.38-2.47-7.21-3.87-9.47s-2.08-3.02-3.37-6.46c-1.29-3.44-1.36-6.02-3.62-10.22-2.26-4.2-1.4-8.29-6.78-14.74-5.38-6.46-15.17-16.25-20.44-18.08s-4.52,0-6.67-1.29-1.29-4.73-6.89-7.32-6.78-3.98-14.1-6.35-8.82-2.8-10.87-3.77-3.77-3.34-8.18-5.17-5.81,0-7.75-1.72-3.55-3.77-7.86-5.06-12.83.78-17.17,2.33-9.83-.07-15.11.26c0,0-14.64,2.35-17.85,3.29s-4.89,1.94-8.58,2.95-7.24,3.62-9.85,6.63-6.3,4.29-8.91,5.83-5.17,4.95-6.21,7.63Z"/>
      <path class="t" d="M440.67,131.74c-.97-1.18-7.32-2.8-10.11-8.18-2.8-5.38-2.47-7.21-3.87-9.47-.85-1.38-1.44-2.2-2.06-3.41-1.03-.94-2.24-2.24-3.31-1.92-.97.29-.52,1.47-.89,2.28-.44.97.35,1.45-.52,2.4-.45.5-.19,1-.12,2.04.13,2.07.53,1.44.83,2.97.37,1.87-1.87,2.08-2.65,3.51-.89,1.64.9,2.75-.6,4.6-.48.59-2.01.98-2.3,1.68-.4.96-2.27.8-3.04,2.08-.97,1.62-2.15-.12-3.39,1.26-1.3,1.56-.61,3.49-3.82,6.27.62,1.81.31,1.88.06,3.47-.27,1.71-.25,3.31.53,4.77,3.43-1.53,4.57-3.33,10.74-2.73,7.86.75,10.44-.75,14.1.11,3.66.86,4.41,1.83,5.49,1.61,1.08-.22,5.92-12.16,4.95-13.34Z"/>
      <path class="u" d="M385.8,63.3c-2.15-1.29-1.29-4.73-6.89-7.32-5.6-2.58-6.78-3.98-14.1-6.35-7.32-2.37-8.82-2.8-10.87-3.77-2.04-.97-3.77-3.34-8.18-5.17-4.41-1.83-5.81,0-7.75-1.72s-3.55-3.77-7.86-5.06-12.83.78-17.17,2.33c-3.17,1.13-6.95.58-10.81.32.33,1.13.87,2.27,1.72,3.4,1.31,1.75,3.22,3.03,4.48,4.81,1.6,2.27,3.27,1.6,5.13,3.16.98.81,1.05,2.19,2.43,2.86,1.73.84,1.59-.26,3.03-.27,2.4-.02,4.3,2.64,6.66.83,1.52-1.17.67-1.86,2.88-2.18,2.88-.41,3.23.73,5.26,1.54,1.13.45,1.64.28,2.79.32,2.31.08,4.1.39,6.42,2.11,1.08.8,1.81,2.15,2.95,2.82.92.53,2.21.56,3.28,1.16,1.36.76,2.16,2.15,3.27,3.19,1.43,1.32,3.07,1.64,4.75,2.44,1.61.77,2.93,1.85,3.98,3.45.66,1.02.66,2.53,1.29,3.41.73,1.03,1.97,1.01,2.82,1.82,1.39,1.31,1.64,3.03,1.44,4.86-.15,1.3-.93,2.41-1.05,3.66-.12,1.21.59,1.82.56,3.01-.06,2.84-3.2,4.51-3.63,7.22-.18,1.16.65,2-.02,3.3-.64,1.24-1.87,1.16-2.8,1.89-2.37,1.87-1.91,1.97-4.99,1.85-2.45-.1-4.04-.02-6.53-.85-2.05-.68-3.59-.06-5.64-.44-1.18-.22-1.69-.74-2.99-.38-1.27.36-.63.44-2.11.36-.8-.04-2.07-.94-2.99-1.12-1.11-.21-1.95.14-3-.42-1.07-.57-2.66-.8-3.76-1.39-.98-.52-1.89-.55-2.82-1.11-1.33-.81-1.89-2.18-2.81-3.5-.66-.95-5.11-2.45-6.19-3.01-2.57-1.33-2.69-.26-5.21-1.93-1.52-1-.48-2.6-3.45-3.75-1.16-.45-2.68-.86-3.43-1.07-1.2-.33-3.27,2.77-4.68,2.78-1.02,0-1.67-.88-3.07-.54-4.43,1.1-5.35,1.77-8.57,4.4-.02.05,5,1.44,4.98,1.49.5.31.45,1.13,1.38,2.56s2.4,3.14,4.66,3.89c2.26.75,8.72,4.63,12.59,6.13s6.24,3.44,13.45,10.87c7.21,7.42,12.37,9.58,14.1,12.8s2.26,7.86,8.29,13.45c6.03,5.6,18.62,8.5,30.24,9.58,11.62,1.08,17.97,2.69,24.64,1.18.66-.15,1.24-.32,1.78-.49.17-2.12-.37-4.29-1.89-6.04-1.37-1.57-4.57-3.91-6.48-4.52-2.5-.81-5.51-.51-6.62-3.53-.57-1.55.2-1.87-1.15-3.47-.77-.91-2.21-1.76-2.3-2.99-.1-1.3,1.2-1.77,1.12-3.07-.08-1.34-1.72-1.83-2.27-2.94-.89-1.78.35-1.88.27-3.55-.05-1.16-1.41-2.67-1.87-3.76-1.74-4.12,2.86-2.7,1.57-6.31-.42-1.19-2.07-1.97-1.14-3.33.65-.95,2.37-.6,3.36-.58.42-2.01-3.14-1.64-1.72-3.77,1.04-1.57,3.86.44,4.37-.69.7-1.55-2.71-2.04-1.04-3.84,1-1.07,3.81.1,2.28-2.5,1.51-.01,2.73.97,4.14,1.54.44.18,1.88.89,2.38.79.64-.12.58-.77.92-.86,1.61-.43,2.12-.81,4.15-.05,1.44.54,2.57,1.31,4.14,1.46,1.61.15,2-.49,3.86.38,1.73.8,2.95,1.93,4.35,3.18,2.27,2.04,4.78,3.53,7.68,4.31-.45-1.55-1.03-3.19-2.12-5.21-2.26-4.2-1.4-8.29-6.78-14.74-5.38-6.46-15.17-16.25-20.44-18.08-5.27-1.83-4.52,0-6.67-1.29Z"/>
      <path class="w" d="M348.73,46.67c.54.24,1.26.94,1.86.89.85-.08,1.41-1.08,2.09-1.43.42-.22.82-.28,1.22-.29-2.02-.98-3.75-3.33-8.13-5.14-4.41-1.83-5.81,0-7.75-1.72s-3.55-3.77-7.86-5.06-12.83.78-17.17,2.33c-3.17,1.13-6.95.58-10.81.32.04.14.1.28.14.43.2-.03.41-.06.61-.09,1.84-.24,2.56-.17,4.22.47,1.56.59,2.62-.07,4.17.02,1.59.09,2.45,1.4,3.95,1.43,1.47.03,2.86-1.09,4.38-.57,1.52.52,1.77,1.92,3.53,1.48,1.91-.47,2.55-1.04,4.22.37,1.43,1.22,1.96,2.09,3.91,1.93.85-.07,1.73-.41,2.67-.14,1.09.31.9.59,1.76,1.43,1.67,1.62,3.75.26,5.48,1.22,1.68.94,1.21,3.05,3.66,2.34,1.56-.45,2.19-.94,3.84-.21Z"/>
      <path class="w" d="M292.96,87.22c.28.5.09.67,1.02,2.1.93,1.43,2.4,3.14,4.66,3.89,2.26.75,8.72,4.63,12.59,6.13,3.08,1.2,5.22,2.68,9.59,6.97,2.52-.28,5.12-2.2,6.36-4.14.65-1.03.96-2.51.07-3.47-1.09-1.19-2.54-.42-3.93-.78-1.96-.5-2.95-3.04-4.94-3.27-1.64-.19-2.18,1.13-3.65-.15-1.4-1.22-2.09-3.27-4.22-2.94-1.94.3-2.13,1.02-3.8-.4-.6-.51-.25-.66-1.25-.85-.6-.11-1.03.21-1.6.16-1.84-.17-1.85-1.63-2.77-2.78-1-1.24-8.13-.48-8.13-.48Z"/>
      <path class="n" d="M256.01,53.46c-1.18.62-2.32,1.16-3.31,1.75-2.61,1.54-5.17,4.95-6.21,7.63,0,0-4.21,1.75-4.49,4.86-.28,3.11,4.35,3.8,4.35,3.8,0,0,5.69,5.54,9.18,5.63.03,0,.06,0,.1,0,3.07-1.5,4.72-3.02,3.36-6.54-1.04-2.69-3.59-4.47-6.32-3.52-.84.29-2.07-.02-2.96-.08-1.96-.13-2.41-1.98-1.4-3.67,1-1.69,3.37-2.67,5.07-3.66,1.7-.99,2.72-3.31,2.76-5.28,0-.32-.04-.63-.12-.92Z"/>
      <path class="n" d="M259.64,59.4c-.59.32-1.17.69-1.56,1.23s-.59,1.27-.34,1.89c.28.71,1.06,1.13,1.82,1.2s1.52-.13,2.25-.34c1.52-.42,3.05-.85,4.57-1.27.87-.24,1.76-.49,2.48-1.03s1.25-1.44,1.08-2.33c-.44-2.39-3.27-1.69-4.78-1.16-1.84.66-3.76.85-5.52,1.8Z"/>
      <path class="n" d="M415.55,138.11c-1.06-.81-1.46-2.34-2.98-2.71-1.84-.44-3.35,1.34-5.12,1.15-1.93-.21-2.38-2.12-3.93-2.95-1.86-.98-3.81-.1-5.79-.06-2.4.05-3.18-1.76-5.11-2.09-1.16-.2-2.8.84-4.09.84-2.09,0-3.5-.93-5.12-1.99-2.83-1.86-6.07-1.69-7.61-5.19-1.77-4.01-3.52-5.85-8.01-4.19-1.91.71-2.58.12-4.48-.19-1.71-.28-2.17.81-3.79.9-1.81.11-2.33-1.12-3.19-2.42-1.09-1.66-1.26-1.86-3.08-2.46-1.98-.66-2.98-.91-4.08-2.81-.83-1.44-1.01-2.71-2.46-3.78-2.65-1.95-5.8-2.41-7.42-5.77-1.25-2.6-1.5-5.36-4.61-6.81-1.83-.86-2,0-3.59.4-1.23.3-2.63-.29-3.75.31-1.27.68-1.71,2.44-2.97,3.29-2.05,1.37-1.72.28-3.59-.71-1.24-.66-2.48-.76-3.75-1.63-1.04-.72-2.14-2.08-3.43-2.26-2-.29-2.76.77-2.93,2.17.18.08.37.15.54.22,3.87,1.51,6.24,3.44,13.45,10.87,7.21,7.42,12.37,9.58,14.1,12.8s2.26,7.86,8.29,13.45c6.03,5.6,18.62,8.5,30.24,9.58,11.62,1.08,17.97,2.69,24.64,1.18,6.67-1.51,6.35-4.63,14.2-3.87,4.23.41,6.93.16,9.09-.03-1.04-1.88-3.69-3.65-5.18-4.1-1.65-.49-3.05,0-4.51-1.12Z"/>
      <path class="n" d="M423.32,107.63c-1.29-3.44-1.36-6.02-3.62-10.22-2.26-4.2-1.4-8.29-6.78-14.74-5.38-6.46-15.17-16.25-20.44-18.08-5.27-1.83-4.52,0-6.67-1.29-2.15-1.29-1.29-4.73-6.89-7.32-5.6-2.58-6.78-3.98-14.1-6.35-6.25-2.02-8.26-2.63-9.99-3.37-.23.99-.39,1.89-.19,3.19.24,1.6,1,5.01,2.23,6.09.87.76,2.02.6,2.96,1.22,1.6,1.04,1.77,2.8,3.81,2.28,1.02-.26,1.67-.98,2.66-.83,1.02.15,2.28,1.38,2.97,2.02,1.89,1.73,2.51,3.21,4.98,3.59,2.23.34,4.15,1.58,5.5,3.39.42.57.72,1.35,1.35,1.74.85.53,1.87.31,2.7.95,1.87,1.42,1.82,4.36,3.62,5.77.93.73,2.17.54,3.19,1.08,1.47.78,1.92,2.1,2.57,3.52.55,1.18,1.43,3.76,2.59,4.49.45.28,1.28.2,1.81.48,1.74.92,1.73,2.91,3,4.17.49.48,1.49,1.39,2.23,1.43.79.04,1.58-.88,2.42-.81,1.25.1,2.21,1.59,3.29,2.1.75.35,1.63.24,2.44.64.99.49,1.43,1.61,1.91,2.54.67,1.3,1.06,1.42,2.13,2.28.76.61.91,1.45,1.21,2.36.58,1.78,2.18,2.82,2.88,4.67.48,1.27.87,2.01,1.9,2.87,1.38,1.15,1.48,1.33,1.26,3-.13,1.06-.26,2.49.17,3.51.47,1.12,1.09,1.56,1.17,2.9.07,1.17-.39,2.7.3,3.75.53.8,1.21,1.02,1.7,1.93.63,1.15,1.1,2.93,2.81,3.09.65.06,1.53-.52,2.18-.71.25-.07.49-.12.73-.18-.27-.39-.53-.79-.75-1.23-2.8-5.38-2.47-7.21-3.87-9.47s-2.08-3.02-3.37-6.46Z"/>
      <path class="p" d="M386.33,67.11c1.37.81,3.44.1,4.71,1.23,1.27,1.14,2.08,3.88,3.01,5.4"/>
      <path class="v" d="M408.9,137.99c-1.7.72-2.88-1.21-4.01-1.7-2.03-.88-3.01-.23-4.64.91-1.72,1.2-3.31.87-5.19,1.69-3.37,1.46-5.99-2.3-9.4-2.84-4.19-.66-8.29-2.18-12.35-3.61-.77-.27-1.33-.21-2.1-.35-1.45-.26-1.52-.6-2.87-1.66-1.39-1.1-2.77-1.12-4.45-1.31-.93-.11-1.12.27-1.96-.19-1.68-.9-2.85-3.51-3.99-4.94-1.95-2.43-4.21-2.14-6.72-3.48-1.55-.83-2.42-2.62-4.33-3.05-1.9-.43-3.67.64-5.46-.43-1.13-.67-1.78-2.05-2.94-2.54-.79-.34-1.7-.21-2.52-.42-2.19-.58-3.09-2.18-4.97-3.27-.91-.53-.19-1.49-1.03-2.22-.79-.69-1.77-1.59-2.63-2.24-.89-.68-.73-1.67-1.73-2.31-1.22-.78-1.13-2.3-3.01-3.05-1.23-.49-4.91-.73-6.22-2.23-.85-.72-1.76-1.61-2.79-1.76-2-.29-2.76.77-2.93,2.17.18.08.37.15.54.22,3.87,1.51,6.24,3.44,13.45,10.87,7.21,7.42,12.37,9.58,14.1,12.8s2.26,7.86,8.29,13.45c6.03,5.6,18.62,8.5,30.24,9.58,11.62,1.08,17.97,2.69,24.64,1.18,6.67-1.51,6.35-4.63,14.2-3.87,4.23.41,6.93.16,9.09-.03-1.04-1.88-3.69-3.65-5.18-4.1-1.65-.49-3.05,0-4.51-1.12-.31-.23-.55-.53-.79-.84-2.5-.02-4.67.22-5.85.71Z"/>
      <path class="n" d="M273.14,56.53c.16-.19.35-.35.55-.5.65-.53.94-1.16,1.42-1.81,1.18-1.61,2.88-1.92,4.64-2.13,1.66-.2,3.06-1.33,4.69-1.58,1.79-.28,3.07-.31,4.64-1.35,1.46-.96,3.02-1.46,4.41-2.73,1.61-1.46,3.76-1.92,5.62-3.13,1.53-.99,2.97-2.61,4.76-3.22,2.11-.72,4.6.62,5.62,2.52.95,1.76.77,3.53.17,5.28-.26.76-.49,1.54-.74,2.32-.31.93-.32,2.24-.81,3.14-.91,1.68-2.82,1.64-2.26,3.91.48,1.96,2.38,3.27,2.25,5.41s-.03,3.74-1.15,5.45-1.76,3.82-4.06,4.52c-2.02.61-4.37-.12-5.58-1.99-.27-.42-.35-.99-.63-1.42-.47-.72-1.17-1.16-1.85-1.68-1.34-1.02-2.45-2.34-3.74-3.42-1.37-1.15-3.22-1.62-4.99-1.76-.77-.06-1.61.11-2.38,0-.86-.13-1.57-.61-2.44-.79-1.83-.37-3.69.28-5.27-.86-.85-.62-1.25-1.09-2.23-1.46-.22-.08-.5-.17-.77-.28-.4-.17-.78-.59-.93-1.02-.14-.41.08-.85.46-1.06l.62-.34Z"/>
      <path class="u" d="M277.81,80.69c1.27-.93,2.14-1.68,2.92-3.04.43-.75,1.05-1.54,1.4-2.3.51-1.08.23-2.25-.22-3.28-.82-1.91-1.6-3.86-3.54-4.82-1.16-.57-2.73-1.15-3.94-.29-1.13.81-.88,2.63-2.11,3.47-2.13,1.45-4.77-1.36-6.53,1.01-1.35,1.81-2.32,3.88-2.52,6.05,1.62.9,3.27,2.34,6.01,2.85,3.02.57,5-.47,6.32.28.37.21.74.6,1.11,1.06.27-.37.6-.63,1.09-.99Z"/>
      <path class="t" d="M273.38,68.87c-.57-.06-1.17,0-1.65.32-.82.52-1.11,1.67-.77,2.59s1.21,1.56,2.16,1.79,1.95.06,2.86-.29c.52-.2,1.07-.55,1.15-1.1.05-.37-.13-.73-.34-1.04-.81-1.23-1.93-2.09-3.41-2.26Z"/>
      <circle class="n" cx="274.4" cy="70.83" r=".76"/>
      <path class="u" d="M276.01,41.21c-1.31.51-2.67,1.02-4.55,1.53-3.68,1-7.24,3.62-9.85,6.63-.51.59-1.07,1.09-1.64,1.56,1.23.87,2.65,1.49,4.14,1.91,2.84.79,3.22-3.05,5.79-3.2,1.49-.09,2.41,1.51,3.8,1.46,1.48-.06,2.36-1.47,2.93-2.64.95-1.95.37-3.97-.15-5.98-.11-.43-.26-.87-.47-1.27Z"/>
      <path class="t" d="M270.98,50.9c-.57.06-1.17,0-1.65-.32-.82-.52-1.11-1.67-.77-2.59s1.21-1.56,2.16-1.79,1.95-.06,2.86.29c.52.2,1.07.55,1.15,1.1.05.37-.13.73-.34,1.04-.81,1.23-1.93,2.09-3.41,2.26Z"/>
      <circle class="n" cx="271.64" cy="47.85" r=".76"/>
      <path class="v" d="M246.49,62.83s-4.21,1.75-4.49,4.86c-.28,3.11,4.35,3.8,4.35,3.8,0,0,5.69,5.54,9.18,5.63.03,0,.06,0,.1,0,1.98-.97,3.37-1.95,3.74-3.48-.57-.62-1.45-1.08-2.15-1.29-.88-.26-1.76-.44-2.64-.66-1.69-.41-3.09-.9-4.72-1.62-1.48-.65-2.57-1.17-3.24-2.7-1.3-2.92,1.49-5.29,3.29-7.31,1.05-1.18,2.2-2.33,3.37-3.39.74-.67,2.17-1.44,2.85-2.42,0-.27-.04-.54-.11-.79-1.18.62-2.32,1.16-3.31,1.75-2.61,1.54-5.17,4.95-6.21,7.63Z"/>
      <path class="o" d="M246.49,62.83s-4.26,1.79-4.54,4.9c-.2,2.18,1.51,3.06,4.4,3.82.06-.04,0,.04.07,0,3.94-2.45,2.75-7.21.07-8.72Z"/>
      <path class="r" d="M248.13,64.44c-.47-.27-.98-.43-1.52-.35-2.58.35-4.61,3.23-2.37,5.24,1.09.98,2.35,1.09,3.83.72,1.28-1.79,1.07-4.01.07-5.6Z"/>
      <path class="v" d="M394.05,73.75c1.15,1.87,2.67,2.52,4,3.99.63.69,1.12,1.69,1.96,2.25.69.46,1.53.44,2.22.89,1.65,1.06,2.37,2.91,3.42,4.19,1.35,1.66,3.43,1.78,4.96,3.02,1.51,1.22,2.87,3.17,3.28,5.17.44,2.1,3,2,4.06,3.83,1.04,1.8,1.5,5.37,3.09,6.8,1.5,1.35,2.29,3.66,2.64,5.86.64,4.09,2.93,5.88,1.48,10.09-.23.66-.29,1.3-.24,1.92.24.23.46.48.66.84.63,1.15,1.1,2.93,2.81,3.09.65.06,1.53-.52,2.18-.71.25-.07.49-.12.73-.18-.27-.39-.53-.79-.75-1.23-2.8-5.38-2.47-7.21-3.87-9.47s-2.08-3.02-3.37-6.46c-1.29-3.44-1.36-6.02-3.62-10.22-2.26-4.2-1.4-8.29-6.78-14.74-5.38-6.46-15.17-16.25-20.44-18.08-5.27-1.83-4.52,0-6.67-1.29-2.15-1.29-1.29-4.73-6.89-7.32-4.34-2-6.03-3.29-9.98-4.88,1.33,2.88,5.77,5.4,7.71,6.98,3.43,2.8,5.93,6.79,9.69,9.02l7.72,6.63Z"/>
      <path class="t" d="M316.12,98.05c-4.62-3.02-11.08-3.38-15.87-6.41-1.8-1.14-5.24-3.38-7.29-4.42.96,3.28,3.75,5.42,5.63,6.02,2.24.72,8.62,4.51,12.44,6.02,3.56,1.41,5.93,3.09,12,9.27-.54-4.21-3.37-8.17-6.91-10.48Z"/>
      <path class="t" d="M353.84,45.84c-2.02-.97-3.73-3.31-8.08-5.14-4.35-1.83-5.72-.04-7.64-1.75s-3.52-3.73-7.77-5.03c-3.17-.97-8.64-.11-12.99,1.01.83.41,1.7.75,2.65.88,4.75.65,10.22,2.12,14.81,3.58,2.55.81,4.1,2.46,6.9,3.15,4,.98,7.24,3.77,11.13,4.99,1.1.34,3.33,1.27,4.37.4.21-.17.32-.38.39-.6-1.75-.6-2.69-.96-3.78-1.48Z"/>
      <path class="k" d="M412.92,82.67c5.38,6.45,4.52,10.55,6.78,14.74,1.08,2.02,1.66,3.66,2.12,5.21.49,1.67.83,3.22,1.51,5.01.24.65.46,1.2.67,1.68.23.53.44.98.64,1.38.13.23.24.44.35.65.12.21.23.41.34.59.24.39.49.78.77,1.22.08.11.15.24.23.36.11.19.23.38.36.59,1.41,2.26,1.08,4.09,3.88,9.47.12.22.23.43.36.64.12.21.24.41.38.59,3.04,4.41,8.48,5.86,9.37,6.95.97,1.18-3.88,13.13-4.95,13.35-1.08.21-1.83-.76-5.49-1.61-1.69-.4-3.15-.29-5-.14-1.49.13-3.23.28-5.55.24-.21,0-.43-.01-.64-.02-.88-.03-1.84-.09-2.9-.19-.28-.03-.54-.04-.8-.06-.19-.02-.39-.03-.58-.03-.42-.02-.81-.03-1.17-.02-.16,0-.3,0-.44.01-.06,0-.12,0-.18,0-.14,0-.28.02-.42.03-.47.04-.89.11-1.29.19-.19.04-.37.08-.54.13-.56.14-1.04.33-1.51.54-.18.08-.36.16-.53.25-.13.07-.26.13-.38.19-.39.2-.76.41-1.16.63-.51.28-1.05.56-1.67.84-.03.01-.04.02-.06.02-.72.32-1.54.63-2.54.9-.14.04-.3.09-.46.12-.16.04-.32.08-.48.12-6.67,1.51-13.01-.11-24.64-1.18-11.62-1.08-24.21-3.99-30.23-9.58-6.03-5.6-6.56-10.23-8.28-13.45-1.72-3.23-6.89-5.39-14.1-12.81-.58-.59-1.13-1.15-1.64-1.68-.95-.96-1.8-1.81-2.59-2.58-.26-.26-.52-.51-.77-.74-.21-.19-.4-.38-.59-.56-2.58-2.41-4.33-3.68-6.26-4.61-.09-.04-.19-.09-.29-.14-.19-.09-.39-.18-.59-.26-.14-.06-.28-.13-.41-.18-.16-.08-.33-.14-.49-.21-.02-.01-.04-.02-.07-.02-.09-.04-.18-.08-.27-.12-.14-.05-.27-.11-.4-.16-1.16-.5-2.49-1.15-3.83-1.84-.26-.13-.52-.27-.78-.4-.16-.07-.31-.16-.46-.23-2.73-1.42-5.36-2.83-6.64-3.24-1.88-.6-4.67-2.74-5.63-6.02q-.08-.15-.12-.22t-.23-.23s-.01-.01-.07-.03c-.46-.16-3.06-.89-4.28-1.26,0,0-.02,0-.03,0-3.46-.43-6.76.19-8.08-.33-1.36-.54-2.43-2.27-3.41-3.46-.08-.09-.14-.18-.23-.26-.15-.17-.3-.33-.44-.47-.15-.14-.3-.25-.44-.33-1.32-.76-3.29.28-6.31-.29-.38-.07-.74-.16-1.08-.26-.16-.05-.33-.11-.49-.16-.17-.06-.32-.12-.47-.18-.31-.13-.61-.26-.88-.41-.28-.14-.54-.29-.8-.44-.26-.14-.5-.3-.74-.46-.11-.06-.21-.13-.32-.19-.21-.14-.42-.27-.63-.39-.17-.11-.33-.21-.49-.29-.21-.12-.41-.23-.61-.33-1.77-.84-3.73-.01-7.16-.09-.04,0-.06,0-.1,0-3.48-.09-9.17-5.63-9.17-5.63,0,0-4.64-.69-4.35-3.8.28-3.11,4.49-4.85,4.49-4.85,1.04-2.69,3.59-6.09,6.21-7.63.6-.35,1.26-.69,1.96-1.04.44-.23.89-.46,1.36-.69,1.33-.69,2.71-1.48,3.97-2.51l-.02-.02c.58-.47,1.14-.98,1.64-1.56,1.36-1.58,2.98-3.03,4.74-4.21.36-.24.73-.48,1.1-.69.37-.22.74-.42,1.12-.61.18-.09.38-.19.57-.27.33-.15.65-.29.98-.41.44-.17.9-.31,1.35-.44.94-.26,1.76-.52,2.49-.78.19-.06.37-.13.54-.19.16-.06.31-.11.46-.17.17-.06.33-.12.49-.18.19-.07.38-.14.57-.22,1.26-.48,2.46-.96,4.03-1.41,3.21-.94,17.85-3.29,17.85-3.29,1.43-.09,2.87-.03,4.3.06,2.54.17,5.06.47,7.38.33.15-.01.29-.02.43-.04.29-.02.56-.05.83-.09.75-.1,1.48-.28,2.17-.52,1.2-.43,2.72-.89,4.37-1.32.22-.06.44-.11.68-.16.19-.05.38-.09.58-.14.42-.11.85-.2,1.29-.29.36-.06.73-.14,1.08-.21.4-.08.81-.14,1.21-.21,3-.46,5.95-.61,7.96,0,4.31,1.29,5.93,3.34,7.86,5.06,1.69,1.51,2.98.3,6.23,1.19,0,0,0,0,.01,0,.34.1.71.22,1.1.36.13.06.27.11.4.16.54.23,1.04.47,1.52.71,0,0,.01.01.03.01,3.24,1.69,4.78,3.58,6.53,4.42,0,0,.03.01.03.02,0,0,.02,0,.03,0,.02,0,.03.02.05.02,2.04.97,3.54,1.39,10.87,3.76,2,.65,3.54,1.22,4.83,1.77,1.98.83,3.39,1.59,4.99,2.44.08.04.17.09.25.14.28.14.57.29.88.45.64.34,1.35.7,2.15,1.08.32.16.65.31,1,.48,5.6,2.58,4.73,6.03,6.88,7.32s1.4-.54,6.67,1.29c5.28,1.83,15.07,11.62,20.45,18.07Z"/>
      <path class="i" d="M425.24,143.33c-1.49.13-3.23.28-5.55.24-.21,0-.43-.01-.64-.02-.88-.03-1.84-.09-2.9-.19-.28-.03-.54-.04-.8-.06-.19-.02-.39-.03-.58-.03-.42-.02-.81-.03-1.17-.02-.16,0-.3,0-.44.01-.06,0-.12,0-.18,0-.14,0-.28.02-.42.03-.47.04-.89.11-1.29.19-.19.04-.37.08-.54.13-.56.14-1.04.33-1.51.54-.18.08-.36.16-.53.25-.13.07-.26.13-.38.19-.39.2-.76.41-1.16.63-.51.28-1.05.56-1.67.84-.03.01-.04.02-.06.02-.72.32-1.54.63-2.54.9-.14.04-.3.09-.46.12-.16.04-.32.08-.48.12-6.67,1.51-13.01-.11-24.64-1.18-11.62-1.08-24.21-3.99-30.23-9.58-6.03-5.6-6.56-10.23-8.28-13.45-1.72-3.23-6.89-5.39-14.1-12.81-.58-.59-1.13-1.15-1.64-1.68"/>
      <path class="i" d="M357.62,47.3c1.53.52,3.7,1.2,7.19,2.33,2,.65,3.54,1.22,4.83,1.77,1.98.83,3.39,1.59,4.99,2.44.08.04.17.09.25.14.28.14.57.29.88.45.64.34,1.35.7,2.15,1.08.32.16.65.31,1,.48,5.6,2.58,4.73,6.03,6.88,7.32s1.4-.54,6.67,1.29c5.28,1.83,15.07,11.62,20.45,18.07,5.38,6.45,4.52,10.55,6.78,14.74,1.08,2.02,1.66,3.66,2.12,5.21.49,1.67.83,3.22,1.51,5.01.24.65.46,1.2.67,1.68.23.53.44.98.64,1.38.13.23.24.44.35.65.12.21.23.41.34.59.24.39.49.78.77,1.22.08.11.15.24.23.36.11.19.23.38.36.59,1.41,2.26,1.08,4.09,3.88,9.47.12.22.23.43.36.64.12.21.24.41.38.59"/>
      <path class="m" d="M255.63,77.12s-.06,0-.1,0c-3.48-.09-9.17-5.63-9.17-5.63"/>
      <path class="m" d="M246.49,62.84c1.04-2.69,3.59-6.09,6.21-7.63.6-.35,1.26-.69,1.96-1.04.44-.23.89-.46,1.36-.69"/>
      <path class="l" d="M246.35,71.49s-4.64-.69-4.35-3.8c.28-3.11,4.49-4.85,4.49-4.85"/>
      <path class="g" d="M323.03,108.53c-.95-.96-1.8-1.81-2.59-2.58-.26-.26-.52-.51-.77-.74-.21-.19-.4-.38-.59-.56-2.58-2.41-4.33-3.68-6.26-4.61-.09-.04-.19-.09-.29-.14-.19-.09-.39-.18-.59-.26-.14-.06-.28-.13-.41-.18-.16-.08-.33-.14-.49-.21-.02-.01-.04-.02-.07-.02-.09-.04-.18-.08-.27-.12-.14-.05-.27-.11-.4-.16-1.16-.5-2.49-1.15-3.83-1.84-.26-.13-.52-.27-.78-.4-.16-.07-.31-.16-.46-.23-2.73-1.42-5.36-2.83-6.64-3.24-1.88-.6-4.67-2.74-5.63-6.02q-.08-.15-.12-.22t-.23-.23s-.01-.01-.07-.03c-.46-.16-3.06-.89-4.28-1.26,0,0-.02,0-.03,0-3.46-.43-6.76.19-8.08-.33-1.36-.54-2.43-2.27-3.41-3.46-.08-.09-.14-.18-.23-.26-.15-.17-.3-.33-.44-.47-.15-.14-.3-.25-.44-.33-1.32-.76-3.29.28-6.31-.29-.38-.07-.74-.16-1.08-.26-.16-.05-.33-.11-.49-.16-.17-.06-.32-.12-.47-.18-.31-.13-.61-.26-.88-.41-.28-.14-.54-.29-.8-.44-.26-.14-.5-.3-.74-.46-.11-.06-.21-.13-.32-.19-.21-.14-.42-.27-.63-.39-.17-.11-.33-.21-.49-.29-.21-.12-.41-.23-.61-.33-1.77-.84-3.73-.01-7.16-.09"/>
      <path class="g" d="M431.3,124.79c3.04,4.41,8.48,5.86,9.37,6.95.97,1.18-3.88,13.13-4.95,13.35-1.08.21-1.83-.76-5.49-1.61-1.69-.4-3.15-.29-5-.14"/>
      <path class="g" d="M256.01,53.47c1.33-.69,2.71-1.48,3.97-2.51l-.02-.02c.58-.47,1.14-.98,1.64-1.56,1.36-1.58,2.98-3.03,4.74-4.21.36-.24.73-.48,1.1-.69.37-.22.74-.42,1.12-.61.18-.09.38-.19.57-.27.33-.15.65-.29.98-.41.44-.17.9-.31,1.35-.44.94-.26,1.76-.52,2.49-.78.19-.06.37-.13.54-.19.16-.06.31-.11.46-.17.17-.06.33-.12.49-.18.19-.07.38-.14.57-.22,1.26-.48,2.46-.96,4.03-1.41,3.21-.94,17.85-3.29,17.85-3.29,1.43-.09,2.87-.03,4.3.06,2.54.17,5.06.47,7.38.33.15-.01.29-.02.43-.04.29-.02.56-.05.83-.09.75-.1,1.48-.28,2.17-.52,1.2-.43,2.72-.89,4.37-1.32.22-.06.44-.11.68-.16.19-.05.38-.09.58-.14.42-.11.85-.2,1.29-.29.36-.06.73-.14,1.08-.21.4-.08.81-.14,1.21-.21,3-.46,5.95-.61,7.96,0,4.31,1.29,5.93,3.34,7.86,5.06,1.69,1.51,2.98.3,6.23,1.19,0,0,0,0,.01,0,.34.1.71.22,1.1.36.13.06.27.11.4.16.54.23,1.04.47,1.52.71,0,0,.01.01.03.01,3.24,1.69,4.78,3.58,6.53,4.42,0,0,.03.01.03.02,0,0,.02,0,.03,0,.02,0,.03.02.05.02,1.07.51,1.99.87,3.67,1.43"/>
      <path class="r" d="M301.01,44.26c1.21.08,2.33,0,3.49-.33s2.69-.56,3.68-1.35c.73-.58,1.59-1.32,1.28-2.3-.39-1.27-1.88-1.75-.49-3.01.46-.41,1.1-.61,1.66-.86.81-.36,1.41-.79,2.08-1.34,1.21-.98,2.45-2.02,1.2-3.46-1.07-1.23-2.65-1.69-4.22-1.97-2.65-.47-5.17-.45-7.79.27-1.7.47-3.65,1.36-4.98,2.52-.85.75-1.27,1.81-2.07,2.56-.97.92-3.99.77-4.3,2.32-.21,1.02,1.45,2.69,2.07,3.27.37.35,1.64,1.39,3.27,2.16,1.86.87,4.13,1.45,5.12,1.52Z"/>
      <path class="q" d="M295.31,39.19c1.34-1.15,1.72-2.84,3.51-3.57,1.58-.64,3.26-.46,4.91-.18,2.78.48,7.2.64,9.04-1.89,1.99-2.73-3.46-3.78-5.24-4.12-3.54-.68-8.1-.75-10.91,1.98-1.34,1.3-1.47,2.83-1.83,4.55-.12.56-1.65,4.4.52,3.22Z"/>
      <path class="o" d="M309.15,39.77c.08.09.16.18.23.27-.48-1.1-1.71-1.59-.41-2.77.27-.24.59-.41.93-.55-2.12.54-4.33.34-6.55.23-1.46-.08-3.08-.49-4.43.29-.66.38-1.37,1.07-1.48,1.82-.15.95.38,1.8,1.24,2.08,1.46.47,2.49.56,3.83-.19,1.42-.8,2.99-1.62,4.61-1.89.87-.15,1.45.08,2.03.73Z"/>
      <path class="x" d="M310.38,35.22c-.07-.47-.76-.94-1.09-1.28-1.04-1.04-2.27-1.42-3.7-1.54-3.55-.31-8.3-.21-10.59,2.52-.07.34-.13.69-.21,1.05-.12.57-1.65,4.4.52,3.22,1.34-1.15,1.72-2.84,3.51-3.57,1.58-.64,3.26-.46,4.91-.18,1.9.33,4.56.5,6.65-.22Z"/>
      <path class="f" d="M313.91,31.62c1.25,1.44,0,2.48-1.2,3.45-.68.55-1.27.98-2.08,1.34-.23.11-.48.2-.72.31h-.01c-.19.09-.38.18-.57.29-.05.04-.11.07-.17.12-.06.04-.13.09-.18.14-.39.35-.55.64-.58.9-.01.05,0,.09,0,.14.04.39.36.73.65,1.15.04.06.08.12.13.19.04.06.08.13.12.19.04.06.06.13.09.19.03.08.06.16.08.23.31.98-.54,1.72-1.28,2.31-.98.78-2.48,1.01-3.68,1.35-1.17.32-2.29.41-3.49.33-.99-.07-3.26-.65-5.12-1.52-1.63-.77-2.9-1.81-3.26-2.16-.62-.58-2.28-2.24-2.08-3.26.31-1.55,3.33-1.41,4.3-2.33.06-.06.11-.11.16-.18.26-1.26.57-2.39,1.6-3.4,2.69-2.61,6.97-2.66,10.44-2.06.87.03,1.74.13,2.63.29,1.57.28,3.14.73,4.22,1.97Z"/>
      <g>
        <path class="r" d="M299.32,66.47c1.21-.08,2.33,0,3.49.33s2.69.56,3.68,1.35c.73.58,1.59,1.32,1.28,2.3-.39,1.27-1.88,1.75-.49,3.01.46.41,1.1.61,1.66.86.81.36,1.41.79,2.08,1.34,1.21.98,2.45,2.02,1.2,3.46-1.07,1.23-2.65,1.69-4.22,1.97-2.65.47-5.17.45-7.79-.27-1.7-.47-3.65-1.36-4.98-2.52-.85-.75-1.27-1.81-2.07-2.56-.97-.92-3.99-.77-4.3-2.32-.21-1.02,1.45-2.69,2.07-3.27.37-.35,1.64-1.39,3.27-2.16,1.86-.87,4.13-1.45,5.12-1.52Z"/>
        <path class="q" d="M293.61,71.54c1.34,1.15,1.72,2.84,3.51,3.57,1.58.64,3.26.46,4.91.18,2.78-.48,7.2-.64,9.04,1.89,1.99,2.73-3.46,3.78-5.24,4.12-3.54.68-8.1.75-10.91-1.98-1.34-1.3-1.47-2.83-1.83-4.55-.12-.56-1.65-4.4.52-3.22Z"/>
        <path class="o" d="M307.46,70.96c.08-.09.16-.18.23-.27-.48,1.1-1.71,1.59-.41,2.77.27.24.59.41.93.55-2.12-.54-4.33-.34-6.55-.23-1.46.08-3.08.49-4.43-.29-.66-.38-1.37-1.07-1.48-1.82-.15-.95.38-1.8,1.24-2.08,1.46-.47,2.49-.56,3.83.19,1.42.8,2.99,1.62,4.61,1.89.87.15,1.45-.08,2.03-.73Z"/>
        <path class="x" d="M308.69,75.51c-.07.47-.76.94-1.09,1.28-1.04,1.04-2.27,1.42-3.7,1.54-3.55.31-8.3.21-10.59-2.52-.07-.34-.13-.69-.21-1.05-.12-.57-1.65-4.4.52-3.22,1.34,1.15,1.72,2.84,3.51,3.57,1.58.64,3.26.46,4.91.18,1.9-.33,4.56-.5,6.65.22Z"/>
        <path class="f" d="M312.22,79.12c1.25-1.44,0-2.48-1.2-3.45-.68-.55-1.27-.98-2.08-1.34-.23-.11-.48-.2-.72-.31h-.01c-.19-.09-.38-.18-.57-.29-.05-.04-.11-.07-.17-.12-.06-.04-.13-.09-.18-.14-.39-.35-.55-.64-.58-.9-.01-.05,0-.09,0-.14.04-.39.36-.73.65-1.15.04-.06.08-.12.13-.19.04-.06.08-.13.12-.19.04-.06.06-.13.09-.19.03-.08.06-.16.08-.23.31-.98-.54-1.72-1.28-2.31-.98-.78-2.48-1.01-3.68-1.35-1.17-.32-2.29-.41-3.49-.33-.99.07-3.26.65-5.12,1.52-1.63.77-2.9,1.81-3.26,2.16-.62.58-2.28,2.24-2.08,3.26.31,1.55,3.33,1.41,4.3,2.33.06.06.11.11.16.18.26,1.26.57,2.39,1.6,3.4,2.69,2.61,6.97,2.66,10.44,2.06.87-.03,1.74-.13,2.63-.29,1.57-.28,3.14-.73,4.22-1.97Z"/>
      </g>
    </g>
  </g>
  <g id="b" data-name="Layer 4">
    <line class="h" x1="302.18" y1="29.69" x2="302.18" y2="17.76"/>
    <line class="h" x1="390.19" y1="60.41" x2="425.24" y2="40.18"/>
    <line class="h" x1="244.24" y1="97" x2="244.24" y2="73.43"/>
    <line class="h" x1="300.57" y1="109.42" x2="300.57" y2="80.83"/>
    <line class="h" x1="338.19" y1="158.78" x2="338.19" y2="128.19"/>
    <line class="h" x1="439.77" y1="158.78" x2="439.77" y2="144.62"/>
    <line class="h" x1="364.37" y1="86.05" x2="364.37" y2="26.24"/>
    <line class="h" x1="599.94" y1="128.11" x2="599.94" y2="89"/>
  </g>
  <g id="c" data-name="Layer 3">
    <g>
      <path d="M231.32,105.23v-8.59h1.17l4.51,6.74v-6.74h1.09v8.59h-1.17l-4.51-6.75v6.75h-1.09Z"/>
      <path d="M239.47,102.12c0-1.15.32-2.01.96-2.56.54-.46,1.19-.69,1.96-.69.86,0,1.55.28,2.1.84s.81,1.33.81,2.32c0,.8-.12,1.43-.36,1.89s-.59.82-1.05,1.07-.96.38-1.5.38c-.87,0-1.58-.28-2.11-.84s-.81-1.36-.81-2.41ZM240.55,102.12c0,.8.17,1.39.52,1.79s.79.59,1.31.59.96-.2,1.31-.6.52-1.01.52-1.82c0-.77-.17-1.35-.52-1.75s-.78-.59-1.3-.59-.96.2-1.31.59-.52.99-.52,1.79Z"/>
      <path d="M246.12,103.37l1.04-.16c.06.42.22.74.49.96s.64.33,1.12.33.84-.1,1.08-.3.35-.43.35-.69c0-.24-.1-.43-.31-.56-.14-.09-.5-.21-1.08-.36-.77-.2-1.31-.36-1.61-.51s-.53-.34-.68-.59-.23-.53-.23-.83c0-.28.06-.53.19-.77s.3-.43.52-.59c.16-.12.39-.22.67-.31s.59-.13.91-.13c.49,0,.92.07,1.29.21s.64.33.82.57.3.56.36.96l-1.03.14c-.05-.32-.18-.57-.41-.75s-.54-.27-.95-.27c-.48,0-.83.08-1.04.24s-.31.35-.31.56c0,.14.04.26.13.37.09.11.22.21.4.28.11.04.42.13.93.27.75.2,1.27.36,1.56.49s.53.31.69.55.25.54.25.9-.1.68-.31.99-.5.55-.89.72-.82.25-1.31.25c-.81,0-1.42-.17-1.85-.5s-.69-.83-.81-1.49Z"/>
      <path d="M256.8,103.23l1.09.13c-.17.64-.49,1.13-.96,1.48s-1.06.53-1.78.53c-.91,0-1.63-.28-2.17-.84s-.8-1.35-.8-2.36.27-1.86.81-2.44,1.24-.87,2.1-.87,1.51.28,2.04.85.79,1.36.79,2.39c0,.06,0,.16,0,.28h-4.64c.04.68.23,1.21.58,1.57s.78.54,1.3.54c.39,0,.72-.1.99-.3s.49-.53.65-.97ZM253.33,101.52h3.47c-.05-.52-.18-.92-.4-1.18-.34-.41-.77-.61-1.31-.61-.48,0-.89.16-1.22.49s-.51.76-.55,1.3Z"/>
    </g>
    <g>
      <path d="M280.44,120.82v-8.59h1.14v7.58h4.23v1.01h-5.37Z"/>
      <path d="M291.29,118.82l1.09.13c-.17.64-.49,1.13-.96,1.48s-1.06.53-1.78.53c-.91,0-1.63-.28-2.17-.84s-.8-1.35-.8-2.36.27-1.86.81-2.44,1.24-.87,2.1-.87,1.51.28,2.04.85.79,1.36.79,2.39c0,.06,0,.16,0,.28h-4.64c.04.68.23,1.21.58,1.57s.78.54,1.3.54c.39,0,.72-.1.99-.3s.49-.53.65-.97ZM287.82,117.11h3.47c-.05-.52-.18-.92-.4-1.18-.34-.41-.77-.61-1.31-.61-.48,0-.89.16-1.22.49s-.51.76-.55,1.3Z"/>
      <path d="M293.95,120.82v-5.4h-.93v-.82h.93v-.66c0-.42.04-.73.11-.93.1-.27.28-.5.54-.67s.61-.25,1.08-.25c.3,0,.62.04.98.11l-.16.92c-.22-.04-.43-.06-.62-.06-.32,0-.55.07-.68.21s-.2.39-.2.77v.57h1.21v.82h-1.21v5.4h-1.05Z"/>
      <path d="M299.34,119.88l.15.93c-.3.06-.56.09-.8.09-.38,0-.68-.06-.89-.18s-.36-.28-.45-.48-.13-.61-.13-1.25v-3.58h-.77v-.82h.77v-1.54l1.05-.63v2.17h1.06v.82h-1.06v3.64c0,.3.02.49.06.58s.1.15.18.21.2.08.36.08c.12,0,.27-.01.46-.04Z"/>
      <path d="M303.86,120.82v-8.59h6.21v1.01h-5.07v2.63h4.75v1.01h-4.75v2.92h5.27v1.01h-6.41Z"/>
      <path d="M315.77,120.05c-.39.33-.77.57-1.13.7s-.75.21-1.16.21c-.68,0-1.21-.17-1.58-.5s-.55-.76-.55-1.28c0-.3.07-.58.21-.83s.32-.45.54-.61.48-.27.76-.35c.21-.05.52-.11.94-.16.85-.1,1.48-.22,1.88-.36,0-.14,0-.24,0-.28,0-.43-.1-.73-.3-.91-.27-.24-.67-.36-1.2-.36-.5,0-.86.09-1.1.26s-.41.48-.52.92l-1.03-.14c.09-.44.25-.8.46-1.07s.53-.48.93-.63.88-.22,1.41-.22.96.06,1.29.19.58.28.73.47.27.43.33.72c.04.18.05.5.05.97v1.41c0,.98.02,1.6.07,1.86s.13.51.27.75h-1.1c-.11-.22-.18-.47-.21-.77ZM315.68,117.7c-.38.16-.96.29-1.72.4-.43.06-.74.13-.92.21s-.32.19-.42.34-.15.32-.15.5c0,.28.11.52.32.7s.52.28.93.28.77-.09,1.08-.27.55-.42.7-.73c.11-.24.17-.59.17-1.05v-.39Z"/>
      <path d="M318.37,120.82v-6.22h.95v.94c.24-.44.47-.73.67-.87s.43-.21.68-.21c.36,0,.72.11,1.08.34l-.36.98c-.26-.15-.52-.23-.77-.23-.23,0-.44.07-.62.21s-.31.33-.39.58c-.12.38-.18.79-.18,1.23v3.26h-1.05Z"/>
    </g>
    <g>
      <path d="M309.05,170.64v-8.59h1.14v7.58h4.23v1.01h-5.37Z"/>
      <path d="M319.9,168.64l1.09.13c-.17.64-.49,1.13-.96,1.48s-1.06.53-1.78.53c-.91,0-1.63-.28-2.17-.84s-.8-1.35-.8-2.36.27-1.86.81-2.44,1.24-.87,2.1-.87,1.51.28,2.04.85.79,1.36.79,2.39c0,.06,0,.16,0,.28h-4.64c.04.68.23,1.21.58,1.57s.78.54,1.3.54c.39,0,.72-.1.99-.3s.49-.53.65-.97ZM316.43,166.93h3.47c-.05-.52-.18-.92-.4-1.18-.34-.41-.77-.61-1.31-.61-.48,0-.89.16-1.22.49s-.51.76-.55,1.3Z"/>
      <path d="M322.56,170.64v-5.4h-.93v-.82h.93v-.66c0-.42.04-.73.11-.93.1-.27.28-.5.54-.67s.61-.25,1.08-.25c.3,0,.62.04.98.11l-.16.92c-.22-.04-.43-.06-.62-.06-.32,0-.55.07-.68.21s-.2.39-.2.77v.57h1.21v.82h-1.21v5.4h-1.05Z"/>
      <path d="M327.95,169.7l.15.93c-.3.06-.56.09-.8.09-.38,0-.68-.06-.89-.18s-.36-.28-.45-.48-.13-.61-.13-1.25v-3.58h-.77v-.82h.77v-1.54l1.05-.63v2.17h1.06v.82h-1.06v3.64c0,.3.02.49.06.58s.1.15.18.21.2.08.36.08c.12,0,.27-.01.46-.04Z"/>
      <path d="M332.4,170.64v-8.59h1.14v7.58h4.23v1.01h-5.37Z"/>
      <path d="M343.05,169.88c-.39.33-.77.57-1.13.7s-.75.21-1.16.21c-.68,0-1.21-.17-1.58-.5s-.55-.76-.55-1.28c0-.3.07-.58.21-.83s.32-.45.54-.61.48-.27.76-.35c.21-.05.52-.11.94-.16.85-.1,1.48-.22,1.88-.36,0-.14,0-.24,0-.28,0-.43-.1-.73-.3-.91-.27-.24-.67-.36-1.2-.36-.5,0-.86.09-1.1.26s-.41.48-.52.92l-1.03-.14c.09-.44.25-.8.46-1.07s.53-.48.93-.63.88-.22,1.41-.22.96.06,1.29.19.58.28.73.47.27.43.33.72c.04.18.05.5.05.97v1.41c0,.98.02,1.6.07,1.86s.13.51.27.75h-1.1c-.11-.22-.18-.47-.21-.77ZM342.96,167.52c-.38.16-.96.29-1.72.4-.43.06-.74.13-.92.21s-.32.19-.42.34-.15.32-.15.5c0,.28.11.52.32.7s.52.28.93.28.77-.09,1.08-.27.55-.42.7-.73c.11-.24.17-.59.17-1.05v-.39Z"/>
      <path d="M347.96,169.7l.15.93c-.3.06-.56.09-.8.09-.38,0-.68-.06-.89-.18s-.36-.28-.45-.48-.13-.61-.13-1.25v-3.58h-.77v-.82h.77v-1.54l1.05-.63v2.17h1.06v.82h-1.06v3.64c0,.3.02.49.06.58s.1.15.18.21.2.08.36.08c.12,0,.27-.01.46-.04Z"/>
      <path d="M353.25,168.64l1.09.13c-.17.64-.49,1.13-.96,1.48s-1.06.53-1.78.53c-.91,0-1.63-.28-2.17-.84s-.8-1.35-.8-2.36.27-1.86.81-2.44,1.24-.87,2.1-.87,1.51.28,2.04.85.79,1.36.79,2.39c0,.06,0,.16,0,.28h-4.64c.04.68.23,1.21.58,1.57s.78.54,1.3.54c.39,0,.72-.1.99-.3s.49-.53.65-.97ZM349.79,166.93h3.47c-.05-.52-.18-.92-.4-1.18-.34-.41-.77-.61-1.31-.61-.48,0-.89.16-1.22.49s-.51.76-.55,1.3Z"/>
      <path d="M355.65,170.64v-6.22h.95v.94c.24-.44.47-.73.67-.87s.43-.21.68-.21c.36,0,.72.11,1.08.34l-.36.98c-.26-.15-.52-.23-.77-.23-.23,0-.44.07-.62.21s-.31.33-.39.58c-.12.38-.18.79-.18,1.23v3.26h-1.05Z"/>
      <path d="M363.72,169.88c-.39.33-.77.57-1.13.7s-.75.21-1.16.21c-.68,0-1.21-.17-1.58-.5s-.55-.76-.55-1.28c0-.3.07-.58.21-.83s.32-.45.54-.61.48-.27.76-.35c.21-.05.52-.11.94-.16.85-.1,1.48-.22,1.88-.36,0-.14,0-.24,0-.28,0-.43-.1-.73-.3-.91-.27-.24-.67-.36-1.2-.36-.5,0-.86.09-1.1.26s-.41.48-.52.92l-1.03-.14c.09-.44.25-.8.46-1.07s.53-.48.93-.63.88-.22,1.41-.22.96.06,1.29.19.58.28.73.47.27.43.33.72c.04.18.05.5.05.97v1.41c0,.98.02,1.6.07,1.86s.13.51.27.75h-1.1c-.11-.22-.18-.47-.21-.77ZM363.64,167.52c-.38.16-.96.29-1.72.4-.43.06-.74.13-.92.21s-.32.19-.42.34-.15.32-.15.5c0,.28.11.52.32.7s.52.28.93.28.77-.09,1.08-.27.55-.42.7-.73c.11-.24.17-.59.17-1.05v-.39Z"/>
      <path d="M366.31,170.64v-8.59h1.05v8.59h-1.05Z"/>
    </g>
    <g>
      <path d="M418.54,170.64v-7.58h-2.83v-1.01h6.81v1.01h-2.84v7.58h-1.14Z"/>
      <path d="M426.28,169.88c-.39.33-.77.57-1.13.7s-.75.21-1.16.21c-.68,0-1.21-.17-1.58-.5s-.55-.76-.55-1.28c0-.3.07-.58.21-.83s.32-.45.54-.61.48-.27.76-.35c.21-.05.52-.11.94-.16.85-.1,1.48-.22,1.88-.36,0-.14,0-.24,0-.28,0-.43-.1-.73-.3-.91-.27-.24-.67-.36-1.2-.36-.5,0-.86.09-1.1.26s-.41.48-.52.92l-1.03-.14c.09-.44.25-.8.46-1.07s.53-.48.93-.63.88-.22,1.41-.22.96.06,1.29.19.58.28.73.47.27.43.33.72c.04.18.05.5.05.97v1.41c0,.98.02,1.6.07,1.86s.13.51.27.75h-1.1c-.11-.22-.18-.47-.21-.77ZM426.19,167.52c-.38.16-.96.29-1.72.4-.43.06-.74.13-.92.21s-.32.19-.42.34-.15.32-.15.5c0,.28.11.52.32.7s.52.28.93.28.77-.09,1.08-.27.55-.42.7-.73c.11-.24.17-.59.17-1.05v-.39Z"/>
      <path d="M428.89,163.27v-1.21h1.05v1.21h-1.05ZM428.89,170.64v-6.22h1.05v6.22h-1.05Z"/>
      <path d="M431.53,170.64v-8.59h1.05v8.59h-1.05Z"/>
      <path d="M437.64,170.64v-8.59h3.22c.66,0,1.18.09,1.58.26s.71.44.93.8.34.74.34,1.13c0,.37-.1.71-.3,1.04s-.5.59-.9.79c.52.15.92.41,1.2.78s.42.8.42,1.3c0,.4-.08.78-.25,1.12s-.38.61-.63.8-.56.33-.94.42-.84.14-1.39.14h-3.28ZM438.78,165.66h1.86c.5,0,.87-.03,1.08-.1.29-.09.51-.23.65-.43s.22-.45.22-.75c0-.29-.07-.54-.21-.75s-.33-.37-.59-.45-.69-.12-1.31-.12h-1.72v2.6ZM438.78,169.63h2.14c.37,0,.62-.01.77-.04.26-.05.48-.12.66-.23s.32-.27.43-.48.17-.45.17-.72c0-.32-.08-.6-.25-.83s-.39-.4-.68-.5-.71-.14-1.26-.14h-1.99v2.95Z"/>
      <path d="M449.62,169.88c-.39.33-.77.57-1.13.7s-.75.21-1.16.21c-.68,0-1.21-.17-1.58-.5s-.55-.76-.55-1.28c0-.3.07-.58.21-.83s.32-.45.54-.61.48-.27.76-.35c.21-.05.52-.11.94-.16.85-.1,1.48-.22,1.88-.36,0-.14,0-.24,0-.28,0-.43-.1-.73-.3-.91-.27-.24-.67-.36-1.2-.36-.5,0-.86.09-1.1.26s-.41.48-.52.92l-1.03-.14c.09-.44.25-.8.46-1.07s.53-.48.93-.63.88-.22,1.41-.22.96.06,1.29.19.58.28.73.47.27.43.33.72c.04.18.05.5.05.97v1.41c0,.98.02,1.6.07,1.86s.13.51.27.75h-1.1c-.11-.22-.18-.47-.21-.77ZM449.53,167.52c-.38.16-.96.29-1.72.4-.43.06-.74.13-.92.21s-.32.19-.42.34-.15.32-.15.5c0,.28.11.52.32.7s.52.28.93.28.77-.09,1.08-.27.55-.42.7-.73c.11-.24.17-.59.17-1.05v-.39Z"/>
      <path d="M451.81,168.79l1.04-.16c.06.42.22.74.49.96s.64.33,1.12.33.84-.1,1.08-.3.35-.43.35-.69c0-.24-.1-.43-.31-.56-.14-.09-.5-.21-1.08-.36-.77-.2-1.31-.36-1.61-.51s-.53-.34-.68-.59-.23-.53-.23-.83c0-.28.06-.53.19-.77s.3-.43.52-.59c.16-.12.39-.22.67-.31s.59-.13.91-.13c.49,0,.92.07,1.29.21s.64.33.82.57.3.56.36.96l-1.03.14c-.05-.32-.18-.57-.41-.75s-.54-.27-.95-.27c-.48,0-.83.08-1.04.24s-.31.35-.31.56c0,.14.04.26.13.37.09.11.22.21.4.28.11.04.42.13.93.27.75.2,1.27.36,1.56.49s.53.31.69.55.25.54.25.9-.1.68-.31.99-.5.55-.89.72-.82.25-1.31.25c-.81,0-1.42-.17-1.85-.5s-.69-.83-.81-1.49Z"/>
      <path d="M462.49,168.64l1.09.13c-.17.64-.49,1.13-.96,1.48s-1.06.53-1.78.53c-.91,0-1.63-.28-2.17-.84s-.8-1.35-.8-2.36.27-1.86.81-2.44,1.24-.87,2.1-.87,1.51.28,2.04.85.79,1.36.79,2.39c0,.06,0,.16,0,.28h-4.64c.04.68.23,1.21.58,1.57s.78.54,1.3.54c.39,0,.72-.1.99-.3s.49-.53.65-.97ZM459.03,166.93h3.47c-.05-.52-.18-.92-.4-1.18-.34-.41-.77-.61-1.31-.61-.48,0-.89.16-1.22.49s-.51.76-.55,1.3Z"/>
    </g>
    <g>
      <path d="M581.71,139.16v-7.58h-2.83v-1.01h6.81v1.01h-2.84v7.58h-1.14Z"/>
      <path d="M589.45,138.39c-.39.33-.77.57-1.13.7s-.75.21-1.16.21c-.68,0-1.21-.17-1.58-.5s-.55-.76-.55-1.28c0-.3.07-.58.21-.83s.32-.45.54-.61.48-.27.76-.35c.21-.05.52-.11.94-.16.85-.1,1.48-.22,1.88-.36,0-.14,0-.24,0-.28,0-.43-.1-.73-.3-.91-.27-.24-.67-.36-1.2-.36-.5,0-.86.09-1.1.26s-.41.48-.52.92l-1.03-.14c.09-.44.25-.8.46-1.07s.53-.48.93-.63.88-.22,1.41-.22.96.06,1.29.19.58.28.73.47.27.43.33.72c.04.18.05.5.05.97v1.41c0,.98.02,1.6.07,1.86s.13.51.27.75h-1.1c-.11-.22-.18-.47-.21-.77ZM589.36,136.04c-.38.16-.96.29-1.72.4-.43.06-.74.13-.92.21s-.32.19-.42.34-.15.32-.15.5c0,.28.11.52.32.7s.52.28.93.28.77-.09,1.08-.27.55-.42.7-.73c.11-.24.17-.59.17-1.05v-.39Z"/>
      <path d="M592.07,131.79v-1.21h1.05v1.21h-1.05ZM592.07,139.16v-6.22h1.05v6.22h-1.05Z"/>
      <path d="M594.71,139.16v-8.59h1.05v8.59h-1.05Z"/>
      <path d="M600.89,139.16v-8.59h6.21v1.01h-5.07v2.63h4.75v1.01h-4.75v2.92h5.27v1.01h-6.41Z"/>
      <path d="M608.73,139.16v-6.22h.95v.88c.46-.68,1.12-1.03,1.98-1.03.38,0,.72.07,1.03.2s.55.31.71.53.27.48.33.78c.04.2.06.54.06,1.03v3.83h-1.05v-3.79c0-.43-.04-.75-.12-.96s-.23-.38-.44-.51-.45-.19-.74-.19c-.45,0-.84.14-1.16.43s-.49.83-.49,1.62v3.4h-1.05Z"/>
      <path d="M619.44,139.16v-.79c-.39.62-.97.93-1.74.93-.5,0-.95-.14-1.37-.41s-.74-.66-.97-1.15-.34-1.05-.34-1.69.1-1.18.31-1.69.52-.89.93-1.16.88-.4,1.39-.4c.38,0,.71.08,1,.24s.53.36.71.62v-3.08h1.05v8.59h-.98ZM616.11,136.06c0,.8.17,1.39.5,1.79s.73.59,1.19.59.85-.19,1.17-.57.48-.95.48-1.73c0-.85-.16-1.48-.49-1.88s-.73-.6-1.21-.6-.86.19-1.17.57-.47.99-.47,1.81Z"/>
    </g>
    <g>
      <path d="M353.42,20.22l1.14.29c-.24.93-.67,1.65-1.29,2.14s-1.38.74-2.27.74-1.68-.19-2.26-.57-1.02-.92-1.32-1.64-.45-1.48-.45-2.3c0-.89.17-1.67.51-2.34s.83-1.17,1.46-1.52,1.33-.52,2.08-.52c.86,0,1.58.22,2.17.66s.99,1.05,1.22,1.85l-1.12.26c-.2-.62-.49-1.08-.87-1.37s-.86-.43-1.43-.43c-.66,0-1.21.16-1.66.47s-.75.74-.93,1.27-.27,1.08-.27,1.65c0,.73.11,1.37.32,1.91s.54.95.99,1.22.94.4,1.46.4c.64,0,1.18-.18,1.62-.55s.74-.91.9-1.63Z"/>
      <path d="M360.08,21.23l1.09.13c-.17.64-.49,1.13-.96,1.48s-1.06.53-1.78.53c-.91,0-1.63-.28-2.17-.84s-.8-1.35-.8-2.36.27-1.86.81-2.44,1.24-.87,2.1-.87,1.51.28,2.04.85.79,1.36.79,2.39c0,.06,0,.16,0,.28h-4.64c.04.68.23,1.21.58,1.57s.78.54,1.3.54c.39,0,.72-.1.99-.3s.49-.53.65-.97ZM356.62,19.53h3.47c-.05-.52-.18-.92-.4-1.18-.34-.41-.77-.61-1.31-.61-.48,0-.89.16-1.22.49s-.51.76-.55,1.3Z"/>
      <path d="M362.49,23.24v-6.22h.95v.88c.46-.68,1.12-1.03,1.98-1.03.38,0,.72.07,1.03.2s.55.31.71.53.27.48.33.78c.04.2.06.54.06,1.03v3.83h-1.05v-3.79c0-.43-.04-.75-.12-.96s-.23-.38-.44-.51-.45-.19-.74-.19c-.45,0-.84.14-1.16.43s-.49.83-.49,1.62v3.4h-1.05Z"/>
      <path d="M371.47,22.29l.15.93c-.3.06-.56.09-.8.09-.38,0-.68-.06-.89-.18s-.36-.28-.45-.48-.13-.61-.13-1.25v-3.58h-.77v-.82h.77v-1.54l1.05-.63v2.17h1.06v.82h-1.06v3.64c0,.3.02.49.06.58s.1.15.18.21.2.08.36.08c.12,0,.27-.01.46-.04Z"/>
      <path d="M372.49,23.24v-6.22h.95v.94c.24-.44.47-.73.67-.87s.43-.21.68-.21c.36,0,.72.11,1.08.34l-.36.98c-.26-.15-.52-.23-.77-.23-.23,0-.44.07-.62.21s-.31.33-.39.58c-.12.38-.18.79-.18,1.23v3.26h-1.05Z"/>
      <path d="M380.76,21.23l1.09.13c-.17.64-.49,1.13-.96,1.48s-1.06.53-1.78.53c-.91,0-1.63-.28-2.17-.84s-.8-1.35-.8-2.36.27-1.86.81-2.44,1.24-.87,2.1-.87,1.51.28,2.04.85.79,1.36.79,2.39c0,.06,0,.16,0,.28h-4.64c.04.68.23,1.21.58,1.57s.78.54,1.3.54c.39,0,.72-.1.99-.3s.49-.53.65-.97ZM377.29,19.53h3.47c-.05-.52-.18-.92-.4-1.18-.34-.41-.77-.61-1.31-.61-.48,0-.89.16-1.22.49s-.51.76-.55,1.3Z"/>
    </g>
    <g>
      <path d="M410.11,34.23v-8.59h3.81c.77,0,1.35.08,1.75.23s.72.43.96.82.36.82.36,1.29c0,.61-.2,1.12-.59,1.54s-1,.68-1.83.8c.3.14.53.29.69.43.33.3.65.69.94,1.14l1.49,2.34h-1.43l-1.14-1.79c-.33-.52-.61-.91-.82-1.18s-.41-.46-.58-.57-.34-.19-.52-.23c-.13-.03-.34-.04-.63-.04h-1.32v3.81h-1.14ZM411.25,29.43h2.44c.52,0,.93-.05,1.22-.16s.52-.28.67-.52.23-.49.23-.77c0-.41-.15-.74-.44-1s-.76-.39-1.4-.39h-2.72v2.84Z"/>
      <path d="M418.63,26.85v-1.21h1.05v1.21h-1.05ZM418.63,34.23v-6.22h1.05v6.22h-1.05Z"/>
      <path d="M421.1,34.74l1.03.15c.04.32.16.55.36.69.26.2.62.29,1.07.29.49,0,.87-.1,1.13-.29s.45-.47.54-.82c.05-.21.08-.67.08-1.35-.46.54-1.04.81-1.72.81-.86,0-1.52-.31-1.99-.93s-.7-1.36-.7-2.22c0-.59.11-1.14.32-1.64s.53-.89.93-1.16.89-.41,1.44-.41c.73,0,1.34.3,1.82.89v-.75h.97v5.38c0,.97-.1,1.66-.3,2.06s-.51.72-.94.96-.95.35-1.58.35c-.74,0-1.34-.17-1.8-.5s-.68-.84-.66-1.51ZM421.97,31.01c0,.82.16,1.41.49,1.79s.73.56,1.22.56.89-.19,1.22-.56.49-.96.49-1.75-.17-1.34-.51-1.72-.75-.58-1.22-.58-.87.19-1.2.57-.49.95-.49,1.7Z"/>
      <path d="M427.97,34.23v-8.59h1.05v3.08c.49-.57,1.11-.86,1.86-.86.46,0,.86.09,1.2.27s.58.43.73.75.22.79.22,1.39v3.94h-1.05v-3.94c0-.53-.11-.91-.34-1.15s-.55-.36-.97-.36c-.31,0-.61.08-.88.24s-.47.38-.59.66-.18.66-.18,1.15v3.4h-1.05Z"/>
      <path d="M436.94,33.29l.15.93c-.3.06-.56.09-.8.09-.38,0-.68-.06-.89-.18s-.36-.28-.45-.48-.13-.61-.13-1.25v-3.58h-.77v-.82h.77v-1.54l1.05-.63v2.17h1.06v.82h-1.06v3.64c0,.3.02.49.06.58s.1.15.18.21.2.08.36.08c.12,0,.27-.01.46-.04Z"/>
      <path d="M441.4,34.23v-8.59h1.14v7.58h4.23v1.01h-5.37Z"/>
      <path d="M452.04,33.46c-.39.33-.77.57-1.13.7s-.75.21-1.16.21c-.68,0-1.21-.17-1.58-.5s-.55-.76-.55-1.28c0-.3.07-.58.21-.83s.32-.45.54-.61.48-.27.76-.35c.21-.05.52-.11.94-.16.85-.1,1.48-.22,1.88-.36,0-.14,0-.24,0-.28,0-.43-.1-.73-.3-.91-.27-.24-.67-.36-1.2-.36-.5,0-.86.09-1.1.26s-.41.48-.52.92l-1.03-.14c.09-.44.25-.8.46-1.07s.53-.48.93-.63.88-.22,1.41-.22.96.06,1.29.19.58.28.73.47.27.43.33.72c.04.18.05.5.05.97v1.41c0,.98.02,1.6.07,1.86s.13.51.27.75h-1.1c-.11-.22-.18-.47-.21-.77ZM451.95,31.11c-.38.16-.96.29-1.72.4-.43.06-.74.13-.92.21s-.32.19-.42.34-.15.32-.15.5c0,.28.11.52.32.7s.52.28.93.28.77-.09,1.08-.27.55-.42.7-.73c.11-.24.17-.59.17-1.05v-.39Z"/>
      <path d="M456.96,33.29l.15.93c-.3.06-.56.09-.8.09-.38,0-.68-.06-.89-.18s-.36-.28-.45-.48-.13-.61-.13-1.25v-3.58h-.77v-.82h.77v-1.54l1.05-.63v2.17h1.06v.82h-1.06v3.64c0,.3.02.49.06.58s.1.15.18.21.2.08.36.08c.12,0,.27-.01.46-.04Z"/>
      <path d="M462.25,32.22l1.09.13c-.17.64-.49,1.13-.96,1.48s-1.06.53-1.78.53c-.91,0-1.63-.28-2.17-.84s-.8-1.35-.8-2.36.27-1.86.81-2.44,1.24-.87,2.1-.87,1.51.28,2.04.85.79,1.36.79,2.39c0,.06,0,.16,0,.28h-4.64c.04.68.23,1.21.58,1.57s.78.54,1.3.54c.39,0,.72-.1.99-.3s.49-.53.65-.97ZM458.79,30.52h3.47c-.05-.52-.18-.92-.4-1.18-.34-.41-.77-.61-1.31-.61-.48,0-.89.16-1.22.49s-.51.76-.55,1.3Z"/>
      <path d="M464.65,34.23v-6.22h.95v.94c.24-.44.47-.73.67-.87s.43-.21.68-.21c.36,0,.72.11,1.08.34l-.36.98c-.26-.15-.52-.23-.77-.23-.23,0-.44.07-.62.21s-.31.33-.39.58c-.12.38-.18.79-.18,1.23v3.26h-1.05Z"/>
      <path d="M472.72,33.46c-.39.33-.77.57-1.13.7s-.75.21-1.16.21c-.68,0-1.21-.17-1.58-.5s-.55-.76-.55-1.28c0-.3.07-.58.21-.83s.32-.45.54-.61.48-.27.76-.35c.21-.05.52-.11.94-.16.85-.1,1.48-.22,1.88-.36,0-.14,0-.24,0-.28,0-.43-.1-.73-.3-.91-.27-.24-.67-.36-1.2-.36-.5,0-.86.09-1.1.26s-.41.48-.52.92l-1.03-.14c.09-.44.25-.8.46-1.07s.53-.48.93-.63.88-.22,1.41-.22.96.06,1.29.19.58.28.73.47.27.43.33.72c.04.18.05.5.05.97v1.41c0,.98.02,1.6.07,1.86s.13.51.27.75h-1.1c-.11-.22-.18-.47-.21-.77ZM472.63,31.11c-.38.16-.96.29-1.72.4-.43.06-.74.13-.92.21s-.32.19-.42.34-.15.32-.15.5c0,.28.11.52.32.7s.52.28.93.28.77-.09,1.08-.27.55-.42.7-.73c.11-.24.17-.59.17-1.05v-.39Z"/>
      <path d="M475.31,34.23v-8.59h1.05v8.59h-1.05Z"/>
    </g>
    <g>
      <path d="M277.89,14.04V5.45h3.81c.77,0,1.35.08,1.75.23s.72.43.96.82.36.82.36,1.29c0,.61-.2,1.12-.59,1.54s-1,.68-1.83.8c.3.14.53.29.69.43.33.3.65.69.94,1.14l1.49,2.34h-1.43l-1.14-1.79c-.33-.52-.61-.91-.82-1.18s-.41-.46-.58-.57-.34-.19-.52-.23c-.13-.03-.34-.04-.63-.04h-1.32v3.81h-1.14ZM279.02,9.24h2.44c.52,0,.93-.05,1.22-.16s.52-.28.67-.52.23-.49.23-.77c0-.41-.15-.74-.44-1s-.76-.39-1.4-.39h-2.72v2.84Z"/>
      <path d="M286.41,6.66v-1.21h1.05v1.21h-1.05ZM286.41,14.04v-6.22h1.05v6.22h-1.05Z"/>
      <path d="M288.87,14.56l1.03.15c.04.32.16.55.36.69.26.2.62.29,1.07.29.49,0,.87-.1,1.13-.29s.45-.47.54-.82c.05-.21.08-.67.08-1.35-.46.54-1.04.81-1.72.81-.86,0-1.52-.31-1.99-.93s-.7-1.36-.7-2.22c0-.59.11-1.14.32-1.64s.53-.89.93-1.16.89-.41,1.44-.41c.73,0,1.34.3,1.82.89v-.75h.97v5.38c0,.97-.1,1.66-.3,2.06s-.51.72-.94.96-.95.35-1.58.35c-.74,0-1.34-.17-1.8-.5s-.68-.84-.66-1.51ZM289.75,10.82c0,.82.16,1.41.49,1.79s.73.56,1.22.56.89-.19,1.22-.56.49-.96.49-1.75-.17-1.34-.51-1.72-.75-.58-1.22-.58-.87.19-1.2.57-.49.95-.49,1.7Z"/>
      <path d="M295.74,14.04V5.45h1.05v3.08c.49-.57,1.11-.86,1.86-.86.46,0,.86.09,1.2.27s.58.43.73.75.22.79.22,1.39v3.94h-1.05v-3.94c0-.53-.11-.91-.34-1.15s-.55-.36-.97-.36c-.31,0-.61.08-.88.24s-.47.38-.59.66-.18.66-.18,1.15v3.4h-1.05Z"/>
      <path d="M304.72,13.1l.15.93c-.3.06-.56.09-.8.09-.38,0-.68-.06-.89-.18s-.36-.28-.45-.48-.13-.61-.13-1.25v-3.58h-.77v-.82h.77v-1.54l1.05-.63v2.17h1.06v.82h-1.06v3.64c0,.3.02.49.06.58s.1.15.18.21.2.08.36.08c.12,0,.27-.01.46-.04Z"/>
      <path d="M309.24,14.04V5.45h6.21v1.01h-5.07v2.63h4.75v1.01h-4.75v2.92h5.27v1.01h-6.41Z"/>
      <path d="M321.15,13.27c-.39.33-.77.57-1.13.7s-.75.21-1.16.21c-.68,0-1.21-.17-1.58-.5s-.55-.76-.55-1.28c0-.3.07-.58.21-.83s.32-.45.54-.61.48-.27.76-.35c.21-.05.52-.11.94-.16.85-.1,1.48-.22,1.88-.36,0-.14,0-.24,0-.28,0-.43-.1-.73-.3-.91-.27-.24-.67-.36-1.2-.36-.5,0-.86.09-1.1.26s-.41.48-.52.92l-1.03-.14c.09-.44.25-.8.46-1.07s.53-.48.93-.63.88-.22,1.41-.22.96.06,1.29.19.58.28.73.47.27.43.33.72c.04.18.05.5.05.97v1.41c0,.98.02,1.6.07,1.86s.13.51.27.75h-1.1c-.11-.22-.18-.47-.21-.77ZM321.06,10.92c-.38.16-.96.29-1.72.4-.43.06-.74.13-.92.21s-.32.19-.42.34-.15.32-.15.5c0,.28.11.52.32.7s.52.28.93.28.77-.09,1.08-.27.55-.42.7-.73c.11-.24.17-.59.17-1.05v-.39Z"/>
      <path d="M323.75,14.04v-6.22h.95v.94c.24-.44.47-.73.67-.87s.43-.21.68-.21c.36,0,.72.11,1.08.34l-.36.98c-.26-.15-.52-.23-.77-.23-.23,0-.44.07-.62.21s-.31.33-.39.58c-.12.38-.18.79-.18,1.23v3.26h-1.05Z"/>
    </g>
  </g>
  <g id="d" data-name="Layer 2">
    <circle class="e" cx="244.41" cy="67.2" r="6.75"/>
    <circle class="e" cx="302.18" cy="36.44" r="6.75"/>
    <circle class="e" cx="300.57" cy="74.31" r="6.75"/>
    <circle class="e" cx="338.19" cy="121.44" r="6.75"/>
    <circle class="e" cx="384.87" cy="63.75" r="6.75"/>
    <circle class="e" cx="364.37" cy="92.69" r="6.75"/>
    <circle class="e" cx="439.77" cy="137.87" r="6.75"/>
    <circle class="e" cx="599.94" cy="82.25" r="6.75"/>
  </g>
</svg>