<?xml version="1.0" encoding="UTF-8"?>
<svg id="a" data-name="Layer 5" xmlns="http://www.w3.org/2000/svg" xmlns:xlink="http://www.w3.org/1999/xlink" viewBox="0 0 595.28 841.89">
  <defs>
    <style>
      .l {
        fill: none;
      }

      .m {
        fill: #a8a8a8;
      }

      .m, .n, .o, .p, .q, .r, .s, .t, .u, .v, .w, .x, .y, .z, .aa, .ab, .ac, .ad, .ae, .af, .ag, .ah, .ai, .aj, .ak, .al, .am, .an, .ao, .ap, .aq, .ar, .as, .at, .au, .av, .aw, .ax, .ay, .az, .ba, .bb, .bc, .bd, .be, .bf, .bg, .bh, .bi, .bj, .bk, .bl, .bm, .bn, .bo, .bp, .bq, .br, .bs, .bt, .bu, .bv, .bw, .bx, .by, .bz, .ca, .cb, .cc, .cd, .ce, .cf, .cg, .ch, .ci, .cj, .ck, .cl, .cm, .cn, .co, .cp, .cq, .cr, .cs, .ct, .cu, .cv, .cw, .cx, .cy, .cz, .da, .db, .dc, .dd, .de, .df, .dg, .dh, .di, .dj, .dk, .dl, .dm, .dn, .do, .dp, .dq, .dr, .ds, .dt, .du, .dv, .dw, .dx, .dy, .dz, .ea, .eb, .ec, .ed, .ee, .ef, .eg, .eh, .ei, .ej, .ek, .el, .em, .en, .eo, .ep, .eq, .er, .es, .et, .eu, .ev, .ew {
        stroke: #333;
      }

      .m, .n, .o, .p, .q, .s, .t, .u, .v, .w, .x, .y, .z, .aa, .ab, .ac, .ad, .ae, .af, .ag, .ah, .ai, .aj, .ak, .al, .am, .an, .ao, .ap, .aq, .ar, .as, .at, .au, .av, .aw, .ax, .ay, .az, .ba, .bb, .bc, .bd, .be, .bf, .bg, .bh, .bi, .bj, .bk, .bl, .bm, .bn, .bo, .bp, .bq, .br, .bs, .bt, .bu, .bv, .bw, .bx, .by, .bz, .ca, .cb, .cc, .cd, .ce, .cf, .cg, .ch, .ci, .cj, .ck, .cl, .cm, .cn, .co, .cp, .cq, .cr, .cs, .ct, .cu, .cv, .cw, .cx, .cy, .cz, .da, .db, .dc, .dd, .de, .df, .dg, .dh, .di, .dj, .dk, .dl, .dm, .dn, .do, .dp, .dq, .dr, .ds, .dt, .du, .dv, .dw, .dx, .dy, .dz, .ea, .eb, .ec, .ed, .ee, .ef, .eg, .eh, .ei, .ej, .ek, .el, .en, .eo, .ep, .eq, .er, .et, .eu, .ev, .ew {
        stroke-miterlimit: 10;
      }

      .n {
        fill: #717171;
      }

      .o {
        fill: #8c8c8c;
      }

      .p {
        fill: #b3b3b3;
      }

      .q {
        fill: #565656;
      }

      .r {
        fill: #414141;
      }

      .r, .em, .es {
        stroke-miterlimit: 10;
      }

      .s {
        fill: #a7a7a7;
      }

      .t {
        fill: #4e4e4e;
      }

      .u {
        fill: #bababa;
      }

      .v {
        fill: #b0b0b0;
      }

      .w {
        fill: #787878;
      }

      .x {
        fill: #bbb;
      }

      .y {
        fill: #949494;
      }

      .z {
        fill: #3a3a3a;
      }

      .aa {
        fill: #7a7a7a;
      }

      .ab {
        fill: #8d8d8d;
      }

      .ac {
        fill: #838383;
      }

      .ad {
        fill: #b6b6b6;
      }

      .ae {
        fill: #ababab;
      }

      .af {
        fill: #464646;
      }

      .ag {
        fill: #6d6d6d;
      }

      .ah {
        fill: #494949;
      }

      .ai {
        fill: #777;
      }

      .aj {
        fill: #5f5f5f;
      }

      .ak {
        fill: #363636;
      }

      .al {
        fill: #828282;
      }

      .am {
        fill: #b2b2b2;
      }

      .an {
        fill: #737373;
      }

      .ao {
        fill: #353535;
      }

      .ap {
        fill: #878787;
      }

      .aq {
        fill: #9c9c9c;
      }

      .ar {
        fill: #525252;
      }

      .as {
        fill: #8f8f8f;
      }

      .at {
        fill: #a9a9a9;
      }

      .au {
        fill: #434343;
      }

      .av {
        fill: #b4b4b4;
      }

      .aw {
        fill: #b7b7b7;
      }

      .ax {
        fill: #747474;
      }

      .ay {
        fill: #bebebe;
      }

      .az {
        fill: #383838;
      }

      .ex {
        fill: #1d1d1b;
      }

      .ba {
        fill: gray;
      }

      .bb {
        fill: #404040;
      }

      .bc {
        fill: #959595;
      }

      .bd {
        fill: #b1b1b1;
      }

      .be {
        fill: #888;
      }

      .bf {
        fill: #4a4a4a;
      }

      .bg {
        fill: #545454;
      }

      .bh {
        fill: #939393;
      }

      .bi {
        fill: #686868;
      }

      .bj {
        fill: #5d5d5d;
      }

      .bk {
        fill: #3f3f3f;
      }

      .bl {
        fill: #5b5b5b;
      }

      .bm {
        fill: #8b8b8b;
      }

      .bn {
        fill: #929292;
      }

      .bo {
        fill: #3c3c3c;
      }

      .bp {
        fill: #848484;
      }

      .bq {
        fill: #727272;
      }

      .br {
        fill: #8a8a8a;
      }

      .bs {
        fill: #6f6f6f;
      }

      .bt {
        fill: #b9b9b9;
      }

      .bu {
        fill: #696969;
      }

      .bv {
        fill: #b8b8b8;
      }

      .ey {
        fill: #fff;
      }

      .bw {
        fill: #6e6e6e;
      }

      .bx {
        fill: #3e3e3e;
      }

      .by {
        fill: #818181;
      }

      .bz {
        fill: #bdbdbd;
      }

      .ca {
        fill: #343434;
      }

      .cb {
        fill: #757575;
      }

      .cc {
        fill: #7d7d7d;
      }

      .cd {
        fill: #4c4c4c;
      }

      .ez, .ea {
        fill: #666;
      }

      .ce {
        fill: #6c6c6c;
      }

      .cf {
        fill: #5e5e5e;
      }

      .cg, .fa {
        fill: #7f7f7f;
      }

      .ch {
        fill: #474747;
      }

      .ci {
        fill: #a4a4a4;
      }

      .cj {
        fill: #515151;
      }

      .ck {
        fill: #7c7c7c;
      }

      .cl {
        fill: #989898;
      }

      .cm {
        fill: #a6a6a6;
      }

      .cn {
        fill: #646464;
      }

      .co {
        fill: #a1a1a1;
      }

      .cp {
        fill: #adadad;
      }

      .cq {
        fill: #595959;
      }

      .cr {
        fill: #5c5c5c;
      }

      .cs {
        fill: #767676;
      }

      .ct {
        fill: #bfbfbf;
      }

      .cu {
        fill: #9f9f9f;
      }

      .cv {
        fill: #555;
      }

      .cw {
        fill: #585858;
      }

      .cx {
        fill: #a0a0a0;
      }

      .cy {
        fill: #aaa;
      }

      .cz {
        fill: #676767;
      }

      .da {
        fill: #909090;
      }

      .db {
        fill: #606060;
      }

      .dc {
        fill: #707070;
      }

      .dd {
        fill: #5a5a5a;
      }

      .de {
        fill: #575757;
      }

      .df {
        fill: #a2a2a2;
      }

      .dg {
        fill: #424242;
      }

      .dh {
        fill: #bcbcbc;
      }

      .di {
        fill: #a5a5a5;
      }

      .dj {
        fill: #636363;
      }

      .dk {
        fill: #626262;
      }

      .fb {
        clip-path: url(#h);
      }

      .fc {
        clip-path: url(#j);
      }

      .fd {
        clip-path: url(#e);
      }

      .fe {
        clip-path: url(#d);
      }

      .ff {
        clip-path: url(#g);
      }

      .fg {
        clip-path: url(#f);
      }

      .fh {
        clip-path: url(#i);
      }

      .fi {
        clip-path: url(#c);
      }

      .fj {
        clip-path: url(#b);
      }

      .dl {
        fill: #393939;
      }

      .dm {
        fill: #969696;
      }

      .dn {
        fill: #a3a3a3;
      }

      .do {
        fill: #7e7e7e;
      }

      .dp {
        fill: #acacac;
      }

      .dq {
        fill: #454545;
      }

      .dr {
        fill: #868686;
      }

      .ds, .fk {
        fill: #333;
      }

      .dt {
        fill: #6b6b6b;
      }

      .du {
        fill: #aeaeae;
      }

      .dv {
        fill: #9e9e9e;
      }

      .dw {
        fill: #999;
      }

      .dx {
        fill: #3b3b3b;
      }

      .dy {
        fill: #979797;
      }

      .dz {
        fill: #616161;
      }

      .eb {
        fill: #4d4d4d;
      }

      .ec {
        fill: #4f4f4f;
      }

      .ed {
        fill: #6a6a6a;
      }

      .ee {
        fill: #3d3d3d;
      }

      .ef {
        fill: #858585;
      }

      .eg {
        fill: #9d9d9d;
      }

      .eh {
        fill: #9b9b9b;
      }

      .ei {
        fill: #9a9a9a;
      }

      .ej {
        fill: #898989;
      }

      .ek {
        fill: #484848;
      }

      .el {
        fill: #b5b5b5;
      }

      .em {
        fill: #444;
      }

      .en {
        fill: #797979;
      }

      .eo {
        fill: #656565;
      }

      .fl {
        fill: #222;
      }

      .ep {
        fill: #505050;
      }

      .eq {
        fill: #919191;
      }

      .er {
        fill: #8e8e8e;
      }

      .es {
        fill: #373737;
      }

      .et {
        fill: #afafaf;
      }

      .eu {
        fill: #4b4b4b;
      }

      .ev {
        fill: #7b7b7b;
      }

      .ew {
        fill: #535353;
      }
    </style>
    <clipPath id="b">
      <polygon class="l" points="153.07 111.4 153.07 143.72 165.35 147.4 165.35 107.72 153.07 111.4"/>
    </clipPath>
    <clipPath id="c">
      <polygon class="l" points="83.06 73.7 115.37 73.7 119.06 61.42 79.37 61.42 83.06 73.7"/>
    </clipPath>
    <clipPath id="d">
      <polygon class="l" points="45.35 143.72 45.35 111.4 33.07 107.72 33.07 147.4 45.35 143.72"/>
    </clipPath>
    <clipPath id="e">
      <polygon class="l" points="549.92 111.4 549.92 143.72 562.2 147.4 562.2 107.72 549.92 111.4"/>
    </clipPath>
    <clipPath id="f">
      <polygon class="l" points="479.91 73.7 512.22 73.7 515.91 61.42 476.22 61.42 479.91 73.7"/>
    </clipPath>
    <clipPath id="g">
      <polygon class="l" points="442.2 143.72 442.2 111.4 429.92 107.72 429.92 147.4 442.2 143.72"/>
    </clipPath>
    <clipPath id="h">
      <polygon class="l" points="351.5 111.4 351.5 143.72 363.78 147.4 363.78 107.72 351.5 111.4"/>
    </clipPath>
    <clipPath id="i">
      <polygon class="l" points="281.48 73.7 313.8 73.7 317.48 61.42 277.8 61.42 281.48 73.7"/>
    </clipPath>
    <clipPath id="j">
      <polygon class="l" points="243.78 143.72 243.78 111.4 231.5 107.72 231.5 147.4 243.78 143.72"/>
    </clipPath>
  </defs>
  <rect class="ey" x="-595.28" width="595.28" height="184.25"/>
  <rect class="ey" x=".47" width="595.28" height="198.43"/>
  <g>
    <rect class="fl" x="28.35" y="56.69" width="141.73" height="141.73"/>
    <polygon class="fk" points="28.35 56.69 51.97 80.32 51.97 174.8 28.35 198.43 28.35 56.69"/>
    <polygon class="fk" points="146.46 80.32 170.08 56.69 170.08 198.43 146.46 174.8 146.46 80.32"/>
    <rect class="fa" x="51.97" y="80.32" width="94.49" height="94.49"/>
    <g>
      <polygon class="ey" points="153.07 111.4 153.07 143.72 165.35 147.4 165.35 107.72 153.07 111.4"/>
      <g class="fj">
        <g>
          <rect x="156.19" y="106.15" width="2.13" height="42.83"/>
          <rect x="157.47" y="106.71" width="2.13" height="25.81" transform="translate(-39.8 129.89) rotate(-40)"/>
          <rect x="157.91" y="122.8" width="2.13" height="24.45" transform="translate(123.98 -70.6) rotate(40)"/>
        </g>
      </g>
    </g>
    <g>
      <polygon class="ey" points="83.06 73.7 115.37 73.7 119.06 61.42 79.37 61.42 83.06 73.7"/>
      <g class="fi">
        <g>
          <rect x="93.8" y="55.33" width="2.13" height="25.81" transform="translate(103.57 184.77) rotate(-130)"/>
          <rect x="102.5" y="55.33" width="2.13" height="25.81" transform="translate(117.86 191.43) rotate(-130)"/>
          <rect x="111.19" y="55.33" width="2.13" height="25.81" transform="translate(132.14 198.09) rotate(-130)"/>
          <rect x="119.89" y="55.33" width="2.13" height="25.81" transform="translate(146.42 204.75) rotate(-130)"/>
          <rect x="85.11" y="55.33" width="2.13" height="25.81" transform="translate(89.29 178.11) rotate(-130)"/>
          <rect x="76.41" y="55.33" width="2.13" height="25.81" transform="translate(75 171.45) rotate(-130)"/>
        </g>
      </g>
    </g>
    <g>
      <polygon class="ey" points="45.35 143.72 45.35 111.4 33.07 107.72 33.07 147.4 45.35 143.72"/>
      <g class="fe">
        <rect x="38.53" y="106.15" width="2.13" height="42.83" transform="translate(79.18 255.12) rotate(-180)"/>
        <polygon points="45.35 128.59 45.35 126.53 33.07 126.3 33.07 128.82 45.35 128.59"/>
      </g>
    </g>
    <rect class="ez" x="98.74" y="80.32" width=".94" height="94.49"/>
    <rect class="ez" x="75.12" y="80.32" width=".94" height="94.49"/>
    <rect class="ez" x="122.36" y="80.32" width=".94" height="94.49"/>
    <rect class="ez" x="98.74" y="80.32" width=".94" height="94.49" transform="translate(-28.35 226.77) rotate(-90)"/>
    <rect class="ez" x="98.74" y="103.94" width=".94" height="94.49" transform="translate(-51.97 250.39) rotate(-90)"/>
    <rect class="ez" x="98.74" y="56.69" width=".94" height="94.49" transform="translate(-4.72 203.15) rotate(-90)"/>
    <g>
      <circle class="ds" cx="122.83" cy="103.94" r="7.09"/>
      <circle class="ca" cx="122.87" cy="103.9" r="7.1"/>
      <circle class="ao" cx="122.9" cy="103.87" r="7.11"/>
      <circle class="ak" cx="122.94" cy="103.84" r="7.12"/>
      <circle class="es" cx="122.97" cy="103.8" r="7.13"/>
      <circle class="az" cx="123" cy="103.77" r="7.14"/>
      <circle class="dl" cx="123.04" cy="103.73" r="7.15"/>
      <circle class="z" cx="123.07" cy="103.7" r="7.16"/>
      <circle class="dx" cx="123.1" cy="103.67" r="7.17"/>
      <circle class="bo" cx="123.14" cy="103.63" r="7.18"/>
      <circle class="ee" cx="123.17" cy="103.6" r="7.19"/>
      <circle class="bx" cx="123.21" cy="103.57" r="7.2"/>
      <circle class="bk" cx="123.24" cy="103.53" r="7.21"/>
      <circle class="bb" cx="123.27" cy="103.5" r="7.22"/>
      <circle class="r" cx="123.31" cy="103.46" r="7.23"/>
      <circle class="dg" cx="123.34" cy="103.43" r="7.24"/>
      <circle class="au" cx="123.37" cy="103.4" r="7.25"/>
      <circle class="em" cx="123.41" cy="103.36" r="7.26"/>
      <circle class="dq" cx="123.44" cy="103.33" r="7.27"/>
      <circle class="af" cx="123.48" cy="103.3" r="7.28"/>
      <circle class="ch" cx="123.51" cy="103.26" r="7.29"/>
      <circle class="ek" cx="123.54" cy="103.23" r="7.3"/>
      <circle class="ah" cx="123.58" cy="103.19" r="7.31"/>
      <circle class="bf" cx="123.61" cy="103.16" r="7.32"/>
      <circle class="eu" cx="123.64" cy="103.13" r="7.33"/>
      <circle class="cd" cx="123.68" cy="103.09" r="7.34"/>
      <circle class="eb" cx="123.71" cy="103.06" r="7.35"/>
      <circle class="t" cx="123.75" cy="103.03" r="7.36"/>
      <circle class="ec" cx="123.78" cy="102.99" r="7.37"/>
      <circle class="ep" cx="123.81" cy="102.96" r="7.38"/>
      <circle class="cj" cx="123.85" cy="102.92" r="7.39"/>
      <circle class="ar" cx="123.88" cy="102.89" r="7.4"/>
      <circle class="ew" cx="123.91" cy="102.86" r="7.41"/>
      <circle class="bg" cx="123.95" cy="102.82" r="7.42"/>
      <circle class="cv" cx="123.98" cy="102.79" r="7.43"/>
      <circle class="q" cx="124.02" cy="102.76" r="7.44"/>
      <circle class="de" cx="124.05" cy="102.72" r="7.45"/>
      <circle class="cw" cx="124.08" cy="102.69" r="7.46"/>
      <circle class="cq" cx="124.12" cy="102.65" r="7.47"/>
      <circle class="dd" cx="124.15" cy="102.62" r="7.48"/>
      <circle class="bl" cx="124.18" cy="102.59" r="7.49"/>
      <circle class="cr" cx="124.22" cy="102.55" r="7.5"/>
      <circle class="bj" cx="124.25" cy="102.52" r="7.51"/>
      <circle class="cf" cx="124.29" cy="102.49" r="7.52"/>
      <circle class="aj" cx="124.32" cy="102.45" r="7.53"/>
      <circle class="db" cx="124.35" cy="102.42" r="7.54"/>
      <circle class="dz" cx="124.39" cy="102.38" r="7.55"/>
      <circle class="dk" cx="124.42" cy="102.35" r="7.56"/>
      <circle class="dj" cx="124.45" cy="102.32" r="7.57"/>
      <circle class="cn" cx="124.49" cy="102.28" r="7.58"/>
      <circle class="eo" cx="124.52" cy="102.25" r="7.59"/>
      <circle class="ea" cx="124.56" cy="102.22" r="7.6"/>
      <circle class="cz" cx="124.59" cy="102.18" r="7.61"/>
      <circle class="bi" cx="124.62" cy="102.15" r="7.62"/>
      <circle class="bu" cx="124.66" cy="102.11" r="7.63"/>
      <circle class="ed" cx="124.69" cy="102.08" r="7.64"/>
      <circle class="dt" cx="124.72" cy="102.05" r="7.65"/>
      <circle class="ce" cx="124.76" cy="102.01" r="7.66"/>
      <circle class="ag" cx="124.79" cy="101.98" r="7.67"/>
      <circle class="bw" cx="124.83" cy="101.95" r="7.68"/>
      <circle class="bs" cx="124.86" cy="101.91" r="7.69"/>
      <circle class="dc" cx="124.89" cy="101.88" r="7.7"/>
      <circle class="n" cx="124.93" cy="101.84" r="7.71"/>
      <circle class="bq" cx="124.96" cy="101.81" r="7.72"/>
      <circle class="an" cx="124.99" cy="101.78" r="7.73"/>
      <circle class="ax" cx="125.03" cy="101.74" r="7.74"/>
      <circle class="cb" cx="125.06" cy="101.71" r="7.75"/>
      <circle class="cs" cx="125.1" cy="101.68" r="7.76"/>
      <circle class="ai" cx="125.13" cy="101.64" r="7.78"/>
      <circle class="w" cx="125.16" cy="101.61" r="7.79"/>
      <circle class="en" cx="125.2" cy="101.58" r="7.8"/>
      <circle class="aa" cx="125.23" cy="101.54" r="7.81"/>
      <circle class="ev" cx="125.26" cy="101.51" r="7.82"/>
      <circle class="ck" cx="125.3" cy="101.47" r="7.83"/>
      <circle class="cc" cx="125.33" cy="101.44" r="7.84"/>
      <circle class="do" cx="125.37" cy="101.41" r="7.85"/>
      <circle class="cg" cx="125.4" cy="101.37" r="7.86"/>
      <circle class="ba" cx="125.43" cy="101.34" r="7.87"/>
      <circle class="by" cx="125.47" cy="101.31" r="7.88"/>
      <circle class="al" cx="125.5" cy="101.27" r="7.89"/>
      <circle class="ac" cx="125.53" cy="101.24" r="7.9"/>
      <circle class="bp" cx="125.57" cy="101.2" r="7.91"/>
      <circle class="ef" cx="125.6" cy="101.17" r="7.92"/>
      <circle class="dr" cx="125.64" cy="101.14" r="7.93"/>
      <circle class="ap" cx="125.67" cy="101.1" r="7.94"/>
      <circle class="be" cx="125.7" cy="101.07" r="7.95"/>
      <circle class="ej" cx="125.74" cy="101.04" r="7.96"/>
      <circle class="br" cx="125.77" cy="101" r="7.97"/>
      <circle class="bm" cx="125.8" cy="100.97" r="7.98"/>
      <circle class="o" cx="125.84" cy="100.93" r="7.99"/>
      <circle class="ab" cx="125.87" cy="100.9" r="8"/>
      <circle class="er" cx="125.91" cy="100.87" r="8.01"/>
      <circle class="as" cx="125.94" cy="100.83" r="8.02"/>
      <circle class="da" cx="125.97" cy="100.8" r="8.03"/>
      <circle class="eq" cx="126.01" cy="100.77" r="8.04"/>
      <circle class="bn" cx="126.04" cy="100.73" r="8.05"/>
      <circle class="bh" cx="126.07" cy="100.7" r="8.06"/>
      <circle class="y" cx="126.11" cy="100.66" r="8.07"/>
      <circle class="bc" cx="126.14" cy="100.63" r="8.08"/>
      <circle class="dm" cx="126.18" cy="100.6" r="8.09"/>
      <circle class="dy" cx="126.21" cy="100.56" r="8.1"/>
      <circle class="cl" cx="126.24" cy="100.53" r="8.11"/>
      <circle class="dw" cx="126.28" cy="100.5" r="8.12"/>
      <circle class="ei" cx="126.31" cy="100.46" r="8.13"/>
      <circle class="eh" cx="126.34" cy="100.43" r="8.14"/>
      <circle class="aq" cx="126.38" cy="100.39" r="8.15"/>
      <circle class="eg" cx="126.41" cy="100.36" r="8.16"/>
      <circle class="dv" cx="126.45" cy="100.33" r="8.17"/>
      <circle class="cu" cx="126.48" cy="100.29" r="8.18"/>
      <circle class="cx" cx="126.51" cy="100.26" r="8.19"/>
      <circle class="co" cx="126.55" cy="100.23" r="8.2"/>
      <circle class="df" cx="126.58" cy="100.19" r="8.21"/>
      <circle class="dn" cx="126.61" cy="100.16" r="8.22"/>
      <circle class="ci" cx="126.65" cy="100.12" r="8.23"/>
      <circle class="di" cx="126.68" cy="100.09" r="8.24"/>
      <circle class="cm" cx="126.72" cy="100.06" r="8.25"/>
      <circle class="s" cx="126.75" cy="100.02" r="8.26"/>
      <circle class="m" cx="126.78" cy="99.99" r="8.27"/>
      <circle class="at" cx="126.82" cy="99.96" r="8.28"/>
      <circle class="cy" cx="126.85" cy="99.92" r="8.29"/>
      <circle class="ae" cx="126.88" cy="99.89" r="8.3"/>
      <circle class="dp" cx="126.92" cy="99.85" r="8.31"/>
      <circle class="cp" cx="126.95" cy="99.82" r="8.32"/>
      <circle class="du" cx="126.99" cy="99.79" r="8.33"/>
      <circle class="et" cx="127.02" cy="99.75" r="8.34"/>
      <circle class="v" cx="127.05" cy="99.72" r="8.35"/>
      <circle class="bd" cx="127.09" cy="99.69" r="8.36"/>
      <circle class="am" cx="127.12" cy="99.65" r="8.37"/>
      <circle class="p" cx="127.15" cy="99.62" r="8.38"/>
      <circle class="av" cx="127.19" cy="99.58" r="8.39"/>
      <circle class="el" cx="127.22" cy="99.55" r="8.4"/>
      <circle class="ad" cx="127.26" cy="99.52" r="8.41"/>
      <circle class="aw" cx="127.29" cy="99.48" r="8.42"/>
      <circle class="bv" cx="127.32" cy="99.45" r="8.43"/>
      <circle class="bt" cx="127.36" cy="99.42" r="8.44"/>
      <circle class="u" cx="127.39" cy="99.38" r="8.45"/>
      <circle class="x" cx="127.42" cy="99.35" r="8.46"/>
      <circle class="dh" cx="127.46" cy="99.31" r="8.47"/>
      <circle class="bz" cx="127.49" cy="99.28" r="8.48"/>
      <circle class="ay" cx="127.53" cy="99.25" r="8.49"/>
      <circle class="ct" cx="127.56" cy="99.21" r="8.5"/>
    </g>
    <g>
      <circle class="ds" cx="75.59" cy="103.94" r="7.09"/>
      <circle class="ca" cx="75.56" cy="103.9" r="7.1"/>
      <circle class="ao" cx="75.52" cy="103.87" r="7.11"/>
      <circle class="ak" cx="75.49" cy="103.84" r="7.12"/>
      <circle class="es" cx="75.46" cy="103.8" r="7.13"/>
      <circle class="az" cx="75.42" cy="103.77" r="7.14"/>
      <circle class="dl" cx="75.39" cy="103.73" r="7.15"/>
      <circle class="z" cx="75.35" cy="103.7" r="7.16"/>
      <circle class="dx" cx="75.32" cy="103.67" r="7.17"/>
      <circle class="bo" cx="75.29" cy="103.63" r="7.18"/>
      <circle class="ee" cx="75.25" cy="103.6" r="7.19"/>
      <circle class="bx" cx="75.22" cy="103.57" r="7.2"/>
      <circle class="bk" cx="75.19" cy="103.53" r="7.21"/>
      <circle class="bb" cx="75.15" cy="103.5" r="7.22"/>
      <circle class="r" cx="75.12" cy="103.46" r="7.23"/>
      <circle class="dg" cx="75.08" cy="103.43" r="7.24"/>
      <circle class="au" cx="75.05" cy="103.4" r="7.25"/>
      <circle class="em" cx="75.02" cy="103.36" r="7.26"/>
      <circle class="dq" cx="74.98" cy="103.33" r="7.27"/>
      <circle class="af" cx="74.95" cy="103.3" r="7.28"/>
      <circle class="ch" cx="74.92" cy="103.26" r="7.29"/>
      <circle class="ek" cx="74.88" cy="103.23" r="7.3"/>
      <circle class="ah" cx="74.85" cy="103.19" r="7.31"/>
      <circle class="bf" cx="74.81" cy="103.16" r="7.32"/>
      <circle class="eu" cx="74.78" cy="103.13" r="7.33"/>
      <circle class="cd" cx="74.75" cy="103.09" r="7.34"/>
      <circle class="eb" cx="74.71" cy="103.06" r="7.35"/>
      <circle class="t" cx="74.68" cy="103.03" r="7.36"/>
      <circle class="ec" cx="74.65" cy="102.99" r="7.37"/>
      <circle class="ep" cx="74.61" cy="102.96" r="7.38"/>
      <circle class="cj" cx="74.58" cy="102.92" r="7.39"/>
      <circle class="ar" cx="74.54" cy="102.89" r="7.4"/>
      <circle class="ew" cx="74.51" cy="102.86" r="7.41"/>
      <circle class="bg" cx="74.48" cy="102.82" r="7.42"/>
      <circle class="cv" cx="74.44" cy="102.79" r="7.43"/>
      <circle class="q" cx="74.41" cy="102.76" r="7.44"/>
      <circle class="de" cx="74.38" cy="102.72" r="7.45"/>
      <circle class="cw" cx="74.34" cy="102.69" r="7.46"/>
      <circle class="cq" cx="74.31" cy="102.65" r="7.47"/>
      <circle class="dd" cx="74.27" cy="102.62" r="7.48"/>
      <circle class="bl" cx="74.24" cy="102.59" r="7.49"/>
      <circle class="cr" cx="74.21" cy="102.55" r="7.5"/>
      <circle class="bj" cx="74.17" cy="102.52" r="7.51"/>
      <circle class="cf" cx="74.14" cy="102.49" r="7.52"/>
      <circle class="aj" cx="74.11" cy="102.45" r="7.53"/>
      <circle class="db" cx="74.07" cy="102.42" r="7.54"/>
      <circle class="dz" cx="74.04" cy="102.38" r="7.55"/>
      <circle class="dk" cx="74" cy="102.35" r="7.56"/>
      <circle class="dj" cx="73.97" cy="102.32" r="7.57"/>
      <circle class="cn" cx="73.94" cy="102.28" r="7.58"/>
      <circle class="eo" cx="73.9" cy="102.25" r="7.59"/>
      <circle class="ea" cx="73.87" cy="102.22" r="7.6"/>
      <circle class="cz" cx="73.84" cy="102.18" r="7.61"/>
      <circle class="bi" cx="73.8" cy="102.15" r="7.62"/>
      <circle class="bu" cx="73.77" cy="102.11" r="7.63"/>
      <circle class="ed" cx="73.73" cy="102.08" r="7.64"/>
      <circle class="dt" cx="73.7" cy="102.05" r="7.65"/>
      <circle class="ce" cx="73.67" cy="102.01" r="7.66"/>
      <circle class="ag" cx="73.63" cy="101.98" r="7.67"/>
      <circle class="bw" cx="73.6" cy="101.95" r="7.68"/>
      <circle class="bs" cx="73.57" cy="101.91" r="7.69"/>
      <circle class="dc" cx="73.53" cy="101.88" r="7.7"/>
      <circle class="n" cx="73.5" cy="101.84" r="7.71"/>
      <circle class="bq" cx="73.46" cy="101.81" r="7.72"/>
      <circle class="an" cx="73.43" cy="101.78" r="7.73"/>
      <circle class="ax" cx="73.4" cy="101.74" r="7.74"/>
      <circle class="cb" cx="73.36" cy="101.71" r="7.75"/>
      <circle class="cs" cx="73.33" cy="101.68" r="7.76"/>
      <circle class="ai" cx="73.3" cy="101.64" r="7.78"/>
      <circle class="w" cx="73.26" cy="101.61" r="7.79"/>
      <circle class="en" cx="73.23" cy="101.58" r="7.8"/>
      <circle class="aa" cx="73.19" cy="101.54" r="7.81"/>
      <circle class="ev" cx="73.16" cy="101.51" r="7.82"/>
      <circle class="ck" cx="73.13" cy="101.47" r="7.83"/>
      <circle class="cc" cx="73.09" cy="101.44" r="7.84"/>
      <circle class="do" cx="73.06" cy="101.41" r="7.85"/>
      <circle class="cg" cx="73.03" cy="101.37" r="7.86"/>
      <circle class="ba" cx="72.99" cy="101.34" r="7.87"/>
      <circle class="by" cx="72.96" cy="101.31" r="7.88"/>
      <circle class="al" cx="72.92" cy="101.27" r="7.89"/>
      <circle class="ac" cx="72.89" cy="101.24" r="7.9"/>
      <circle class="bp" cx="72.86" cy="101.2" r="7.91"/>
      <circle class="ef" cx="72.82" cy="101.17" r="7.92"/>
      <circle class="dr" cx="72.79" cy="101.14" r="7.93"/>
      <circle class="ap" cx="72.76" cy="101.1" r="7.94"/>
      <circle class="be" cx="72.72" cy="101.07" r="7.95"/>
      <circle class="ej" cx="72.69" cy="101.04" r="7.96"/>
      <circle class="br" cx="72.65" cy="101" r="7.97"/>
      <circle class="bm" cx="72.62" cy="100.97" r="7.98"/>
      <circle class="o" cx="72.59" cy="100.93" r="7.99"/>
      <circle class="ab" cx="72.55" cy="100.9" r="8"/>
      <circle class="er" cx="72.52" cy="100.87" r="8.01"/>
      <circle class="as" cx="72.49" cy="100.83" r="8.02"/>
      <circle class="da" cx="72.45" cy="100.8" r="8.03"/>
      <circle class="eq" cx="72.42" cy="100.77" r="8.04"/>
      <circle class="bn" cx="72.38" cy="100.73" r="8.05"/>
      <circle class="bh" cx="72.35" cy="100.7" r="8.06"/>
      <circle class="y" cx="72.32" cy="100.66" r="8.07"/>
      <circle class="bc" cx="72.28" cy="100.63" r="8.08"/>
      <circle class="dm" cx="72.25" cy="100.6" r="8.09"/>
      <circle class="dy" cx="72.22" cy="100.56" r="8.1"/>
      <circle class="cl" cx="72.18" cy="100.53" r="8.11"/>
      <circle class="dw" cx="72.15" cy="100.5" r="8.12"/>
      <circle class="ei" cx="72.11" cy="100.46" r="8.13"/>
      <circle class="eh" cx="72.08" cy="100.43" r="8.14"/>
      <circle class="aq" cx="72.05" cy="100.39" r="8.15"/>
      <circle class="eg" cx="72.01" cy="100.36" r="8.16"/>
      <circle class="dv" cx="71.98" cy="100.33" r="8.17"/>
      <circle class="cu" cx="71.95" cy="100.29" r="8.18"/>
      <circle class="cx" cx="71.91" cy="100.26" r="8.19"/>
      <circle class="co" cx="71.88" cy="100.23" r="8.2"/>
      <circle class="df" cx="71.84" cy="100.19" r="8.21"/>
      <circle class="dn" cx="71.81" cy="100.16" r="8.22"/>
      <circle class="ci" cx="71.78" cy="100.12" r="8.23"/>
      <circle class="di" cx="71.74" cy="100.09" r="8.24"/>
      <circle class="cm" cx="71.71" cy="100.06" r="8.25"/>
      <circle class="s" cx="71.68" cy="100.02" r="8.26"/>
      <circle class="m" cx="71.64" cy="99.99" r="8.27"/>
      <circle class="at" cx="71.61" cy="99.96" r="8.28"/>
      <circle class="cy" cx="71.57" cy="99.92" r="8.29"/>
      <circle class="ae" cx="71.54" cy="99.89" r="8.3"/>
      <circle class="dp" cx="71.51" cy="99.85" r="8.31"/>
      <circle class="cp" cx="71.47" cy="99.82" r="8.32"/>
      <circle class="du" cx="71.44" cy="99.79" r="8.33"/>
      <circle class="et" cx="71.41" cy="99.75" r="8.34"/>
      <circle class="v" cx="71.37" cy="99.72" r="8.35"/>
      <circle class="bd" cx="71.34" cy="99.69" r="8.36"/>
      <circle class="am" cx="71.3" cy="99.65" r="8.37"/>
      <circle class="p" cx="71.27" cy="99.62" r="8.38"/>
      <circle class="av" cx="71.24" cy="99.58" r="8.39"/>
      <circle class="el" cx="71.2" cy="99.55" r="8.4"/>
      <circle class="ad" cx="71.17" cy="99.52" r="8.41"/>
      <circle class="aw" cx="71.14" cy="99.48" r="8.42"/>
      <circle class="bv" cx="71.1" cy="99.45" r="8.43"/>
      <circle class="bt" cx="71.07" cy="99.42" r="8.44"/>
      <circle class="u" cx="71.03" cy="99.38" r="8.45"/>
      <circle class="x" cx="71" cy="99.35" r="8.46"/>
      <circle class="dh" cx="70.97" cy="99.31" r="8.47"/>
      <circle class="bz" cx="70.93" cy="99.28" r="8.48"/>
      <circle class="ay" cx="70.9" cy="99.25" r="8.49"/>
      <circle class="ct" cx="70.87" cy="99.21" r="8.5"/>
    </g>
  </g>
  <g>
    <path class="ex" d="M70.38,46.15v-8.59h3.22c.66,0,1.18.09,1.58.26s.71.44.93.8.34.74.34,1.13c0,.37-.1.71-.3,1.04s-.5.59-.9.79c.52.15.92.41,1.2.78s.42.8.42,1.3c0,.4-.08.78-.25,1.12s-.38.61-.63.8-.56.33-.94.42-.84.14-1.39.14h-3.28ZM71.52,41.17h1.86c.5,0,.87-.03,1.08-.1.29-.09.51-.23.65-.43s.22-.45.22-.75c0-.29-.07-.54-.21-.75s-.33-.37-.59-.45-.69-.12-1.31-.12h-1.72v2.6ZM71.52,45.14h2.14c.37,0,.62-.01.77-.04.26-.05.48-.12.66-.23s.32-.27.43-.48.17-.45.17-.72c0-.32-.08-.6-.25-.83s-.39-.4-.68-.5-.71-.14-1.26-.14h-1.99v2.95Z"/>
    <path class="ex" d="M77.9,43.04c0-1.15.32-2.01.96-2.56.54-.46,1.19-.69,1.96-.69.86,0,1.55.28,2.1.84s.81,1.33.81,2.32c0,.8-.12,1.43-.36,1.89s-.59.82-1.05,1.07-.96.38-1.5.38c-.87,0-1.58-.28-2.11-.84s-.81-1.36-.81-2.41ZM78.99,43.04c0,.8.17,1.39.52,1.79s.79.59,1.31.59.96-.2,1.31-.6.52-1.01.52-1.82c0-.77-.17-1.35-.52-1.75s-.78-.59-1.3-.59-.96.2-1.31.59-.52.99-.52,1.79Z"/>
    <path class="ex" d="M87.27,45.21l.15.93c-.3.06-.56.09-.8.09-.38,0-.68-.06-.89-.18s-.36-.28-.45-.48-.13-.61-.13-1.25v-3.58h-.77v-.82h.77v-1.54l1.05-.63v2.17h1.06v.82h-1.06v3.64c0,.3.02.49.06.58s.1.15.18.21.2.08.36.08c.12,0,.27-.01.46-.04Z"/>
    <path class="ex" d="M88.3,46.15v-8.59h1.05v3.08c.49-.57,1.11-.86,1.86-.86.46,0,.86.09,1.2.27s.58.43.73.75.22.79.22,1.39v3.94h-1.05v-3.94c0-.53-.11-.91-.34-1.15s-.55-.36-.97-.36c-.31,0-.61.08-.88.24s-.47.38-.59.66-.18.66-.18,1.15v3.4h-1.05Z"/>
    <path class="ex" d="M100.42,46.15v-7.58h-2.83v-1.01h6.81v1.01h-2.84v7.58h-1.14Z"/>
    <path class="ex" d="M108.16,45.38c-.39.33-.77.57-1.13.7s-.75.21-1.16.21c-.68,0-1.21-.17-1.58-.5s-.55-.76-.55-1.28c0-.3.07-.58.21-.83s.32-.45.54-.61.48-.27.76-.35c.21-.05.52-.11.94-.16.85-.1,1.48-.22,1.88-.36,0-.14,0-.24,0-.28,0-.43-.1-.73-.3-.91-.27-.24-.67-.36-1.2-.36-.5,0-.86.09-1.1.26s-.41.48-.52.92l-1.03-.14c.09-.44.25-.8.46-1.07s.53-.48.93-.63.88-.22,1.41-.22.96.06,1.29.19.58.28.73.47.27.43.33.72c.04.18.05.5.05.97v1.41c0,.98.02,1.6.07,1.86s.13.51.27.75h-1.1c-.11-.22-.18-.47-.21-.77ZM108.07,43.03c-.38.16-.96.29-1.72.4-.43.06-.74.13-.92.21s-.32.19-.42.34-.15.32-.15.5c0,.28.11.52.32.7s.52.28.93.28.77-.09,1.08-.27.55-.42.7-.73c.11-.24.17-.59.17-1.05v-.39Z"/>
    <path class="ex" d="M110.35,44.29l1.04-.16c.06.42.22.74.49.96s.64.33,1.12.33.84-.1,1.08-.3.35-.43.35-.69c0-.24-.1-.43-.31-.56-.14-.09-.5-.21-1.08-.36-.77-.2-1.31-.36-1.61-.51s-.53-.34-.68-.59-.23-.53-.23-.83c0-.28.06-.53.19-.77s.3-.43.52-.59c.16-.12.39-.22.67-.31s.59-.13.91-.13c.49,0,.92.07,1.29.21s.64.33.82.57.3.56.36.96l-1.03.14c-.05-.32-.18-.57-.41-.75s-.54-.27-.95-.27c-.48,0-.83.08-1.04.24s-.31.35-.31.56c0,.14.04.26.13.37.09.11.22.21.4.28.11.04.42.13.93.27.75.2,1.27.36,1.56.49s.53.31.69.55.25.54.25.9-.1.68-.31.99-.5.55-.89.72-.82.25-1.31.25c-.81,0-1.42-.17-1.85-.5s-.69-.83-.81-1.49Z"/>
    <path class="ex" d="M116.78,46.15v-8.59h1.05v4.9l2.5-2.53h1.37l-2.38,2.31,2.62,3.91h-1.3l-2.06-3.18-.74.71v2.47h-1.05Z"/>
    <path class="ex" d="M122.35,44.29l1.04-.16c.06.42.22.74.49.96s.64.33,1.12.33.84-.1,1.08-.3.35-.43.35-.69c0-.24-.1-.43-.31-.56-.14-.09-.5-.21-1.08-.36-.77-.2-1.31-.36-1.61-.51s-.53-.34-.68-.59-.23-.53-.23-.83c0-.28.06-.53.19-.77s.3-.43.52-.59c.16-.12.39-.22.67-.31s.59-.13.91-.13c.49,0,.92.07,1.29.21s.64.33.82.57.3.56.36.96l-1.03.14c-.05-.32-.18-.57-.41-.75s-.54-.27-.95-.27c-.48,0-.83.08-1.04.24s-.31.35-.31.56c0,.14.04.26.13.37.09.11.22.21.4.28.11.04.42.13.93.27.75.2,1.27.36,1.56.49s.53.31.69.55.25.54.25.9-.1.68-.31.99-.5.55-.89.72-.82.25-1.31.25c-.81,0-1.42-.17-1.85-.5s-.69-.83-.81-1.49Z"/>
  </g>
  <g>
    <rect class="fl" x="425.2" y="56.69" width="141.73" height="141.73"/>
    <polygon class="fk" points="425.2 56.69 448.82 80.32 448.82 174.8 425.2 198.43 425.2 56.69"/>
    <polygon class="fk" points="543.31 80.32 566.93 56.69 566.93 198.43 543.31 174.8 543.31 80.32"/>
    <rect class="fa" x="448.82" y="80.32" width="94.49" height="94.49"/>
    <g>
      <polygon class="ey" points="549.92 111.4 549.92 143.72 562.2 147.4 562.2 107.72 549.92 111.4"/>
      <g class="fd">
        <g>
          <rect x="553.04" y="106.15" width="2.13" height="42.83"/>
          <rect x="554.32" y="106.71" width="2.13" height="25.81" transform="translate(53.05 384.98) rotate(-40)"/>
          <rect x="554.77" y="122.8" width="2.13" height="24.45" transform="translate(216.83 -325.69) rotate(40)"/>
        </g>
      </g>
    </g>
    <g>
      <polygon class="ey" points="479.91 73.7 512.22 73.7 515.91 61.42 476.22 61.42 479.91 73.7"/>
      <g class="fg">
        <g>
          <rect x="490.65" y="55.33" width="2.13" height="25.81" transform="translate(755.51 488.77) rotate(-130)"/>
          <rect x="499.35" y="55.33" width="2.13" height="25.81" transform="translate(769.8 495.43) rotate(-130)"/>
          <rect x="508.04" y="55.33" width="2.13" height="25.81" transform="translate(784.08 502.09) rotate(-130)"/>
          <rect x="516.74" y="55.33" width="2.13" height="25.81" transform="translate(798.37 508.75) rotate(-130)"/>
          <rect x="481.96" y="55.33" width="2.13" height="25.81" transform="translate(741.23 482.11) rotate(-130)"/>
          <rect x="473.26" y="55.33" width="2.13" height="25.81" transform="translate(726.94 475.45) rotate(-130)"/>
        </g>
      </g>
    </g>
    <g>
      <polygon class="ey" points="442.2 143.72 442.2 111.4 429.92 107.72 429.92 147.4 442.2 143.72"/>
      <g class="ff">
        <rect x="435.38" y="106.15" width="2.13" height="42.83" transform="translate(872.88 255.12) rotate(-180)"/>
        <polygon points="442.2 128.59 442.2 126.53 429.92 126.3 429.92 128.82 442.2 128.59"/>
      </g>
    </g>
    <rect class="ez" x="495.59" y="80.32" width=".94" height="94.49"/>
    <rect class="ez" x="471.97" y="80.32" width=".94" height="94.49"/>
    <rect class="ez" x="519.21" y="80.32" width=".94" height="94.49"/>
    <rect class="ez" x="495.59" y="80.32" width=".94" height="94.49" transform="translate(368.5 623.62) rotate(-90)"/>
    <rect class="ez" x="495.59" y="103.94" width=".94" height="94.49" transform="translate(344.88 647.24) rotate(-90)"/>
    <rect class="ez" x="495.59" y="56.69" width=".94" height="94.49" transform="translate(392.13 600) rotate(-90)"/>
    <g>
      <circle class="ds" cx="519.69" cy="151.18" r="7.09"/>
      <circle class="ca" cx="519.72" cy="151.22" r="7.1"/>
      <circle class="ao" cx="519.75" cy="151.25" r="7.11"/>
      <circle class="ak" cx="519.79" cy="151.28" r="7.12"/>
      <circle class="es" cx="519.82" cy="151.32" r="7.13"/>
      <circle class="az" cx="519.85" cy="151.35" r="7.14"/>
      <circle class="dl" cx="519.89" cy="151.38" r="7.15"/>
      <circle class="z" cx="519.92" cy="151.42" r="7.16"/>
      <circle class="dx" cx="519.95" cy="151.45" r="7.17"/>
      <circle class="bo" cx="519.99" cy="151.49" r="7.18"/>
      <circle class="ee" cx="520.02" cy="151.52" r="7.19"/>
      <circle class="bx" cx="520.06" cy="151.55" r="7.2"/>
      <circle class="bk" cx="520.09" cy="151.59" r="7.21"/>
      <circle class="bb" cx="520.12" cy="151.62" r="7.22"/>
      <circle class="r" cx="520.16" cy="151.65" r="7.23"/>
      <circle class="dg" cx="520.19" cy="151.69" r="7.24"/>
      <circle class="au" cx="520.22" cy="151.72" r="7.25"/>
      <circle class="em" cx="520.26" cy="151.75" r="7.26"/>
      <circle class="dq" cx="520.29" cy="151.79" r="7.27"/>
      <circle class="af" cx="520.33" cy="151.82" r="7.28"/>
      <circle class="ch" cx="520.36" cy="151.86" r="7.29"/>
      <circle class="ek" cx="520.39" cy="151.89" r="7.3"/>
      <circle class="ah" cx="520.43" cy="151.92" r="7.31"/>
      <circle class="bf" cx="520.46" cy="151.96" r="7.32"/>
      <circle class="eu" cx="520.49" cy="151.99" r="7.33"/>
      <circle class="cd" cx="520.53" cy="152.02" r="7.34"/>
      <circle class="eb" cx="520.56" cy="152.06" r="7.35"/>
      <circle class="t" cx="520.6" cy="152.09" r="7.36"/>
      <circle class="ec" cx="520.63" cy="152.13" r="7.37"/>
      <circle class="ep" cx="520.66" cy="152.16" r="7.38"/>
      <circle class="cj" cx="520.7" cy="152.19" r="7.39"/>
      <circle class="ar" cx="520.73" cy="152.23" r="7.4"/>
      <circle class="ew" cx="520.76" cy="152.26" r="7.41"/>
      <circle class="bg" cx="520.8" cy="152.29" r="7.42"/>
      <circle class="cv" cx="520.83" cy="152.33" r="7.43"/>
      <circle class="q" cx="520.87" cy="152.36" r="7.44"/>
      <circle class="de" cx="520.9" cy="152.4" r="7.45"/>
      <circle class="cw" cx="520.93" cy="152.43" r="7.46"/>
      <circle class="cq" cx="520.97" cy="152.46" r="7.47"/>
      <circle class="dd" cx="521" cy="152.5" r="7.48"/>
      <circle class="bl" cx="521.03" cy="152.53" r="7.49"/>
      <circle class="cr" cx="521.07" cy="152.56" r="7.5"/>
      <circle class="bj" cx="521.1" cy="152.6" r="7.51"/>
      <circle class="cf" cx="521.14" cy="152.63" r="7.52"/>
      <circle class="aj" cx="521.17" cy="152.67" r="7.53"/>
      <circle class="db" cx="521.2" cy="152.7" r="7.54"/>
      <circle class="dz" cx="521.24" cy="152.73" r="7.55"/>
      <circle class="dk" cx="521.27" cy="152.77" r="7.56"/>
      <circle class="dj" cx="521.3" cy="152.8" r="7.57"/>
      <circle class="cn" cx="521.34" cy="152.83" r="7.58"/>
      <circle class="eo" cx="521.37" cy="152.87" r="7.59"/>
      <circle class="ea" cx="521.41" cy="152.9" r="7.6"/>
      <circle class="cz" cx="521.44" cy="152.94" r="7.61"/>
      <circle class="bi" cx="521.47" cy="152.97" r="7.62"/>
      <circle class="bu" cx="521.51" cy="153" r="7.63"/>
      <circle class="ed" cx="521.54" cy="153.04" r="7.64"/>
      <circle class="dt" cx="521.57" cy="153.07" r="7.65"/>
      <circle class="ce" cx="521.61" cy="153.1" r="7.66"/>
      <circle class="ag" cx="521.64" cy="153.14" r="7.67"/>
      <circle class="bw" cx="521.68" cy="153.17" r="7.68"/>
      <circle class="bs" cx="521.71" cy="153.21" r="7.69"/>
      <circle class="dc" cx="521.74" cy="153.24" r="7.7"/>
      <circle class="n" cx="521.78" cy="153.27" r="7.71"/>
      <circle class="bq" cx="521.81" cy="153.31" r="7.72"/>
      <circle class="an" cx="521.84" cy="153.34" r="7.73"/>
      <circle class="ax" cx="521.88" cy="153.37" r="7.74"/>
      <circle class="cb" cx="521.91" cy="153.41" r="7.75"/>
      <circle class="cs" cx="521.95" cy="153.44" r="7.76"/>
      <circle class="ai" cx="521.98" cy="153.48" r="7.78"/>
      <circle class="w" cx="522.01" cy="153.51" r="7.79"/>
      <circle class="en" cx="522.05" cy="153.54" r="7.8"/>
      <circle class="aa" cx="522.08" cy="153.58" r="7.81"/>
      <circle class="ev" cx="522.11" cy="153.61" r="7.82"/>
      <circle class="ck" cx="522.15" cy="153.64" r="7.83"/>
      <circle class="cc" cx="522.18" cy="153.68" r="7.84"/>
      <circle class="do" cx="522.22" cy="153.71" r="7.85"/>
      <circle class="cg" cx="522.25" cy="153.75" r="7.86"/>
      <circle class="ba" cx="522.28" cy="153.78" r="7.87"/>
      <circle class="by" cx="522.32" cy="153.81" r="7.88"/>
      <circle class="al" cx="522.35" cy="153.85" r="7.89"/>
      <circle class="ac" cx="522.38" cy="153.88" r="7.9"/>
      <circle class="bp" cx="522.42" cy="153.91" r="7.91"/>
      <circle class="ef" cx="522.45" cy="153.95" r="7.92"/>
      <circle class="dr" cx="522.49" cy="153.98" r="7.93"/>
      <circle class="ap" cx="522.52" cy="154.02" r="7.94"/>
      <circle class="be" cx="522.55" cy="154.05" r="7.95"/>
      <circle class="ej" cx="522.59" cy="154.08" r="7.96"/>
      <circle class="br" cx="522.62" cy="154.12" r="7.97"/>
      <circle class="bm" cx="522.65" cy="154.15" r="7.98"/>
      <circle class="o" cx="522.69" cy="154.18" r="7.99"/>
      <circle class="ab" cx="522.72" cy="154.22" r="8"/>
      <circle class="er" cx="522.76" cy="154.25" r="8.01"/>
      <circle class="as" cx="522.79" cy="154.29" r="8.02"/>
      <circle class="da" cx="522.82" cy="154.32" r="8.03"/>
      <circle class="eq" cx="522.86" cy="154.35" r="8.04"/>
      <circle class="bn" cx="522.89" cy="154.39" r="8.05"/>
      <circle class="bh" cx="522.92" cy="154.42" r="8.06"/>
      <circle class="y" cx="522.96" cy="154.45" r="8.07"/>
      <circle class="bc" cx="522.99" cy="154.49" r="8.08"/>
      <circle class="dm" cx="523.03" cy="154.52" r="8.09"/>
      <circle class="dy" cx="523.06" cy="154.56" r="8.1"/>
      <circle class="cl" cx="523.09" cy="154.59" r="8.11"/>
      <circle class="dw" cx="523.13" cy="154.62" r="8.12"/>
      <circle class="ei" cx="523.16" cy="154.66" r="8.13"/>
      <circle class="eh" cx="523.19" cy="154.69" r="8.14"/>
      <circle class="aq" cx="523.23" cy="154.72" r="8.15"/>
      <circle class="eg" cx="523.26" cy="154.76" r="8.16"/>
      <circle class="dv" cx="523.3" cy="154.79" r="8.17"/>
      <circle class="cu" cx="523.33" cy="154.83" r="8.18"/>
      <circle class="cx" cx="523.36" cy="154.86" r="8.19"/>
      <circle class="co" cx="523.4" cy="154.89" r="8.2"/>
      <circle class="df" cx="523.43" cy="154.93" r="8.21"/>
      <circle class="dn" cx="523.46" cy="154.96" r="8.22"/>
      <circle class="ci" cx="523.5" cy="154.99" r="8.23"/>
      <circle class="di" cx="523.53" cy="155.03" r="8.24"/>
      <circle class="cm" cx="523.57" cy="155.06" r="8.25"/>
      <circle class="s" cx="523.6" cy="155.1" r="8.26"/>
      <circle class="m" cx="523.63" cy="155.13" r="8.27"/>
      <circle class="at" cx="523.67" cy="155.16" r="8.28"/>
      <circle class="cy" cx="523.7" cy="155.2" r="8.29"/>
      <circle class="ae" cx="523.73" cy="155.23" r="8.3"/>
      <circle class="dp" cx="523.77" cy="155.26" r="8.31"/>
      <circle class="cp" cx="523.8" cy="155.3" r="8.32"/>
      <circle class="du" cx="523.84" cy="155.33" r="8.33"/>
      <circle class="et" cx="523.87" cy="155.37" r="8.34"/>
      <circle class="v" cx="523.9" cy="155.4" r="8.35"/>
      <circle class="bd" cx="523.94" cy="155.43" r="8.36"/>
      <circle class="am" cx="523.97" cy="155.47" r="8.37"/>
      <circle class="p" cx="524" cy="155.5" r="8.38"/>
      <circle class="av" cx="524.04" cy="155.53" r="8.39"/>
      <circle class="el" cx="524.07" cy="155.57" r="8.4"/>
      <circle class="ad" cx="524.11" cy="155.6" r="8.41"/>
      <circle class="aw" cx="524.14" cy="155.64" r="8.42"/>
      <circle class="bv" cx="524.17" cy="155.67" r="8.43"/>
      <circle class="bt" cx="524.21" cy="155.7" r="8.44"/>
      <circle class="u" cx="524.24" cy="155.74" r="8.45"/>
      <circle class="x" cx="524.27" cy="155.77" r="8.46"/>
      <circle class="dh" cx="524.31" cy="155.8" r="8.47"/>
      <circle class="bz" cx="524.34" cy="155.84" r="8.48"/>
      <circle class="ay" cx="524.38" cy="155.87" r="8.49"/>
      <circle class="ct" cx="524.41" cy="155.91" r="8.5"/>
    </g>
    <g>
      <circle class="ds" cx="472.44" cy="103.94" r="7.09"/>
      <circle class="ca" cx="472.41" cy="103.9" r="7.1"/>
      <circle class="ao" cx="472.37" cy="103.87" r="7.11"/>
      <circle class="ak" cx="472.34" cy="103.84" r="7.12"/>
      <circle class="es" cx="472.31" cy="103.8" r="7.13"/>
      <circle class="az" cx="472.27" cy="103.77" r="7.14"/>
      <circle class="dl" cx="472.24" cy="103.73" r="7.15"/>
      <circle class="z" cx="472.2" cy="103.7" r="7.16"/>
      <circle class="dx" cx="472.17" cy="103.67" r="7.17"/>
      <circle class="bo" cx="472.14" cy="103.63" r="7.18"/>
      <circle class="ee" cx="472.1" cy="103.6" r="7.19"/>
      <circle class="bx" cx="472.07" cy="103.57" r="7.2"/>
      <circle class="bk" cx="472.04" cy="103.53" r="7.21"/>
      <circle class="bb" cx="472" cy="103.5" r="7.22"/>
      <circle class="r" cx="471.97" cy="103.46" r="7.23"/>
      <circle class="dg" cx="471.93" cy="103.43" r="7.24"/>
      <circle class="au" cx="471.9" cy="103.4" r="7.25"/>
      <circle class="em" cx="471.87" cy="103.36" r="7.26"/>
      <circle class="dq" cx="471.83" cy="103.33" r="7.27"/>
      <circle class="af" cx="471.8" cy="103.3" r="7.28"/>
      <circle class="ch" cx="471.77" cy="103.26" r="7.29"/>
      <circle class="ek" cx="471.73" cy="103.23" r="7.3"/>
      <circle class="ah" cx="471.7" cy="103.19" r="7.31"/>
      <circle class="bf" cx="471.66" cy="103.16" r="7.32"/>
      <circle class="eu" cx="471.63" cy="103.13" r="7.33"/>
      <circle class="cd" cx="471.6" cy="103.09" r="7.34"/>
      <circle class="eb" cx="471.56" cy="103.06" r="7.35"/>
      <circle class="t" cx="471.53" cy="103.03" r="7.36"/>
      <circle class="ec" cx="471.5" cy="102.99" r="7.37"/>
      <circle class="ep" cx="471.46" cy="102.96" r="7.38"/>
      <circle class="cj" cx="471.43" cy="102.92" r="7.39"/>
      <circle class="ar" cx="471.39" cy="102.89" r="7.4"/>
      <circle class="ew" cx="471.36" cy="102.86" r="7.41"/>
      <circle class="bg" cx="471.33" cy="102.82" r="7.42"/>
      <circle class="cv" cx="471.29" cy="102.79" r="7.43"/>
      <circle class="q" cx="471.26" cy="102.76" r="7.44"/>
      <circle class="de" cx="471.23" cy="102.72" r="7.45"/>
      <circle class="cw" cx="471.19" cy="102.69" r="7.46"/>
      <circle class="cq" cx="471.16" cy="102.65" r="7.47"/>
      <circle class="dd" cx="471.12" cy="102.62" r="7.48"/>
      <circle class="bl" cx="471.09" cy="102.59" r="7.49"/>
      <circle class="cr" cx="471.06" cy="102.55" r="7.5"/>
      <circle class="bj" cx="471.02" cy="102.52" r="7.51"/>
      <circle class="cf" cx="470.99" cy="102.49" r="7.52"/>
      <circle class="aj" cx="470.96" cy="102.45" r="7.53"/>
      <circle class="db" cx="470.92" cy="102.42" r="7.54"/>
      <circle class="dz" cx="470.89" cy="102.38" r="7.55"/>
      <circle class="dk" cx="470.85" cy="102.35" r="7.56"/>
      <circle class="dj" cx="470.82" cy="102.32" r="7.57"/>
      <circle class="cn" cx="470.79" cy="102.28" r="7.58"/>
      <circle class="eo" cx="470.75" cy="102.25" r="7.59"/>
      <circle class="ea" cx="470.72" cy="102.22" r="7.6"/>
      <circle class="cz" cx="470.69" cy="102.18" r="7.61"/>
      <circle class="bi" cx="470.65" cy="102.15" r="7.62"/>
      <circle class="bu" cx="470.62" cy="102.11" r="7.63"/>
      <circle class="ed" cx="470.58" cy="102.08" r="7.64"/>
      <circle class="dt" cx="470.55" cy="102.05" r="7.65"/>
      <circle class="ce" cx="470.52" cy="102.01" r="7.66"/>
      <circle class="ag" cx="470.48" cy="101.98" r="7.67"/>
      <circle class="bw" cx="470.45" cy="101.95" r="7.68"/>
      <circle class="bs" cx="470.42" cy="101.91" r="7.69"/>
      <circle class="dc" cx="470.38" cy="101.88" r="7.7"/>
      <circle class="n" cx="470.35" cy="101.84" r="7.71"/>
      <circle class="bq" cx="470.31" cy="101.81" r="7.72"/>
      <circle class="an" cx="470.28" cy="101.78" r="7.73"/>
      <circle class="ax" cx="470.25" cy="101.74" r="7.74"/>
      <circle class="cb" cx="470.21" cy="101.71" r="7.75"/>
      <circle class="cs" cx="470.18" cy="101.68" r="7.76"/>
      <circle class="ai" cx="470.15" cy="101.64" r="7.78"/>
      <circle class="w" cx="470.11" cy="101.61" r="7.79"/>
      <circle class="en" cx="470.08" cy="101.58" r="7.8"/>
      <circle class="aa" cx="470.04" cy="101.54" r="7.81"/>
      <circle class="ev" cx="470.01" cy="101.51" r="7.82"/>
      <circle class="ck" cx="469.98" cy="101.47" r="7.83"/>
      <circle class="cc" cx="469.94" cy="101.44" r="7.84"/>
      <circle class="do" cx="469.91" cy="101.41" r="7.85"/>
      <circle class="cg" cx="469.88" cy="101.37" r="7.86"/>
      <circle class="ba" cx="469.84" cy="101.34" r="7.87"/>
      <circle class="by" cx="469.81" cy="101.31" r="7.88"/>
      <circle class="al" cx="469.78" cy="101.27" r="7.89"/>
      <circle class="ac" cx="469.74" cy="101.24" r="7.9"/>
      <circle class="bp" cx="469.71" cy="101.2" r="7.91"/>
      <circle class="ef" cx="469.67" cy="101.17" r="7.92"/>
      <circle class="dr" cx="469.64" cy="101.14" r="7.93"/>
      <circle class="ap" cx="469.61" cy="101.1" r="7.94"/>
      <circle class="be" cx="469.57" cy="101.07" r="7.95"/>
      <circle class="ej" cx="469.54" cy="101.04" r="7.96"/>
      <circle class="br" cx="469.51" cy="101" r="7.97"/>
      <circle class="bm" cx="469.47" cy="100.97" r="7.98"/>
      <circle class="o" cx="469.44" cy="100.93" r="7.99"/>
      <circle class="ab" cx="469.4" cy="100.9" r="8"/>
      <circle class="er" cx="469.37" cy="100.87" r="8.01"/>
      <circle class="as" cx="469.34" cy="100.83" r="8.02"/>
      <circle class="da" cx="469.3" cy="100.8" r="8.03"/>
      <circle class="eq" cx="469.27" cy="100.77" r="8.04"/>
      <circle class="bn" cx="469.24" cy="100.73" r="8.05"/>
      <circle class="bh" cx="469.2" cy="100.7" r="8.06"/>
      <circle class="y" cx="469.17" cy="100.66" r="8.07"/>
      <circle class="bc" cx="469.13" cy="100.63" r="8.08"/>
      <circle class="dm" cx="469.1" cy="100.6" r="8.09"/>
      <circle class="dy" cx="469.07" cy="100.56" r="8.1"/>
      <circle class="cl" cx="469.03" cy="100.53" r="8.11"/>
      <circle class="dw" cx="469" cy="100.5" r="8.12"/>
      <circle class="ei" cx="468.97" cy="100.46" r="8.13"/>
      <circle class="eh" cx="468.93" cy="100.43" r="8.14"/>
      <circle class="aq" cx="468.9" cy="100.39" r="8.15"/>
      <circle class="eg" cx="468.86" cy="100.36" r="8.16"/>
      <circle class="dv" cx="468.83" cy="100.33" r="8.17"/>
      <circle class="cu" cx="468.8" cy="100.29" r="8.18"/>
      <circle class="cx" cx="468.76" cy="100.26" r="8.19"/>
      <circle class="co" cx="468.73" cy="100.23" r="8.2"/>
      <circle class="df" cx="468.7" cy="100.19" r="8.21"/>
      <circle class="dn" cx="468.66" cy="100.16" r="8.22"/>
      <circle class="ci" cx="468.63" cy="100.12" r="8.23"/>
      <circle class="di" cx="468.59" cy="100.09" r="8.24"/>
      <circle class="cm" cx="468.56" cy="100.06" r="8.25"/>
      <circle class="s" cx="468.53" cy="100.02" r="8.26"/>
      <circle class="m" cx="468.49" cy="99.99" r="8.27"/>
      <circle class="at" cx="468.46" cy="99.96" r="8.28"/>
      <circle class="cy" cx="468.43" cy="99.92" r="8.29"/>
      <circle class="ae" cx="468.39" cy="99.89" r="8.3"/>
      <circle class="dp" cx="468.36" cy="99.85" r="8.31"/>
      <circle class="cp" cx="468.32" cy="99.82" r="8.32"/>
      <circle class="du" cx="468.29" cy="99.79" r="8.33"/>
      <circle class="et" cx="468.26" cy="99.75" r="8.34"/>
      <circle class="v" cx="468.22" cy="99.72" r="8.35"/>
      <circle class="bd" cx="468.19" cy="99.69" r="8.36"/>
      <circle class="am" cx="468.16" cy="99.65" r="8.37"/>
      <circle class="p" cx="468.12" cy="99.62" r="8.38"/>
      <circle class="av" cx="468.09" cy="99.58" r="8.39"/>
      <circle class="el" cx="468.05" cy="99.55" r="8.4"/>
      <circle class="ad" cx="468.02" cy="99.52" r="8.41"/>
      <circle class="aw" cx="467.99" cy="99.48" r="8.42"/>
      <circle class="bv" cx="467.95" cy="99.45" r="8.43"/>
      <circle class="bt" cx="467.92" cy="99.42" r="8.44"/>
      <circle class="u" cx="467.89" cy="99.38" r="8.45"/>
      <circle class="x" cx="467.85" cy="99.35" r="8.46"/>
      <circle class="dh" cx="467.82" cy="99.31" r="8.47"/>
      <circle class="bz" cx="467.78" cy="99.28" r="8.48"/>
      <circle class="ay" cx="467.75" cy="99.25" r="8.49"/>
      <circle class="ct" cx="467.72" cy="99.21" r="8.5"/>
    </g>
  </g>
  <g>
    <path class="ex" d="M441.06,41.97c0-1.43.38-2.54,1.15-3.35s1.75-1.21,2.96-1.21c.79,0,1.51.19,2.14.57s1.12.91,1.46,1.58.5,1.45.5,2.31-.18,1.65-.53,2.34-.85,1.21-1.49,1.56-1.34.53-2.09.53c-.81,0-1.53-.2-2.17-.59s-1.12-.92-1.45-1.6-.49-1.39-.49-2.14ZM442.23,41.98c0,1.04.28,1.85.83,2.45s1.25.89,2.09.89,1.56-.3,2.11-.9.83-1.46.83-2.56c0-.7-.12-1.31-.35-1.83s-.58-.93-1.04-1.21-.97-.43-1.53-.43c-.8,0-1.5.28-2.08.83s-.87,1.48-.87,2.77Z"/>
    <path class="ex" d="M451.57,46.15h-.98v-8.59h1.05v3.06c.45-.56,1.01-.84,1.71-.84.38,0,.75.08,1.09.23s.62.37.84.65.39.62.52,1.01.19.82.19,1.27c0,1.07-.26,1.89-.79,2.47s-1.16.87-1.9.87-1.31-.31-1.73-.92v.78ZM451.56,42.99c0,.75.1,1.29.3,1.62.33.54.78.81,1.35.81.46,0,.86-.2,1.2-.6s.5-1,.5-1.79-.16-1.41-.48-1.8-.71-.58-1.17-.58-.86.2-1.2.6-.5.98-.5,1.74Z"/>
    <path class="ex" d="M455.93,48.56l.2-.9c.21.05.38.08.5.08.21,0,.38-.07.48-.21s.16-.5.16-1.07v-6.54h1.05v6.56c0,.77-.1,1.3-.3,1.6-.25.39-.68.59-1.27.59-.29,0-.56-.04-.83-.11ZM457.27,38.79v-1.22h1.05v1.22h-1.05Z"/>
    <path class="ex" d="M464.2,44.15l1.09.13c-.17.64-.49,1.13-.96,1.48s-1.06.53-1.78.53c-.91,0-1.63-.28-2.17-.84s-.8-1.35-.8-2.36.27-1.86.81-2.44,1.24-.87,2.1-.87,1.51.28,2.04.85.79,1.36.79,2.39c0,.06,0,.16,0,.28h-4.64c.04.68.23,1.21.58,1.57s.78.54,1.3.54c.39,0,.72-.1.99-.3s.49-.53.65-.97ZM460.74,42.44h3.47c-.05-.52-.18-.92-.4-1.18-.34-.41-.77-.61-1.31-.61-.48,0-.89.16-1.22.49s-.51.76-.55,1.3Z"/>
    <path class="ex" d="M470.67,43.87l1.04.13c-.11.71-.4,1.27-.87,1.68s-1.04.61-1.72.61c-.85,0-1.54-.28-2.05-.83s-.78-1.35-.78-2.39c0-.67.11-1.26.33-1.76s.56-.88,1.02-1.13.95-.38,1.49-.38c.68,0,1.23.17,1.66.51s.71.83.83,1.46l-1.03.16c-.1-.42-.27-.73-.52-.94s-.55-.32-.9-.32c-.53,0-.96.19-1.29.57s-.5.98-.5,1.81.16,1.44.48,1.82.74.57,1.25.57c.41,0,.76-.13,1.04-.38s.45-.64.53-1.17Z"/>
    <path class="ex" d="M474.92,45.21l.15.93c-.3.06-.56.09-.8.09-.38,0-.68-.06-.89-.18s-.36-.28-.45-.48-.13-.61-.13-1.25v-3.58h-.77v-.82h.77v-1.54l1.05-.63v2.17h1.06v.82h-1.06v3.64c0,.3.02.49.06.58s.1.15.18.21.2.08.36.08c.12,0,.27-.01.46-.04Z"/>
    <path class="ex" d="M479.37,46.15v-8.59h1.14v7.58h4.23v1.01h-5.37Z"/>
    <path class="ex" d="M485.56,43.04c0-1.15.32-2.01.96-2.56.54-.46,1.19-.69,1.96-.69.86,0,1.55.28,2.1.84s.81,1.33.81,2.32c0,.8-.12,1.43-.36,1.89s-.59.82-1.05,1.07-.96.38-1.5.38c-.87,0-1.58-.28-2.11-.84s-.81-1.36-.81-2.41ZM486.65,43.04c0,.8.17,1.39.52,1.79s.79.59,1.31.59.96-.2,1.31-.6.52-1.01.52-1.82c0-.77-.17-1.35-.52-1.75s-.78-.59-1.3-.59-.96.2-1.31.59-.52.99-.52,1.79Z"/>
    <path class="ex" d="M496.69,43.87l1.04.13c-.11.71-.4,1.27-.87,1.68s-1.04.61-1.72.61c-.85,0-1.54-.28-2.05-.83s-.78-1.35-.78-2.39c0-.67.11-1.26.33-1.76s.56-.88,1.02-1.13.95-.38,1.49-.38c.68,0,1.23.17,1.66.51s.71.83.83,1.46l-1.03.16c-.1-.42-.27-.73-.52-.94s-.55-.32-.9-.32c-.53,0-.96.19-1.29.57s-.5.98-.5,1.81.16,1.44.48,1.82.74.57,1.25.57c.41,0,.76-.13,1.04-.38s.45-.64.53-1.17Z"/>
    <path class="ex" d="M502.69,45.38c-.39.33-.77.57-1.13.7s-.75.21-1.16.21c-.68,0-1.21-.17-1.58-.5s-.55-.76-.55-1.28c0-.3.07-.58.21-.83s.32-.45.54-.61.48-.27.76-.35c.21-.05.52-.11.94-.16.85-.1,1.48-.22,1.88-.36,0-.14,0-.24,0-.28,0-.43-.1-.73-.3-.91-.27-.24-.67-.36-1.2-.36-.5,0-.86.09-1.1.26s-.41.48-.52.92l-1.03-.14c.09-.44.25-.8.46-1.07s.53-.48.93-.63.88-.22,1.41-.22.96.06,1.29.19.58.28.73.47.27.43.33.72c.04.18.05.5.05.97v1.41c0,.98.02,1.6.07,1.86s.13.51.27.75h-1.1c-.11-.22-.18-.47-.21-.77ZM502.6,43.03c-.38.16-.96.29-1.72.4-.43.06-.74.13-.92.21s-.32.19-.42.34-.15.32-.15.5c0,.28.11.52.32.7s.52.28.93.28.77-.09,1.08-.27.55-.42.7-.73c.11-.24.17-.59.17-1.05v-.39Z"/>
    <path class="ex" d="M507.61,45.21l.15.93c-.3.06-.56.09-.8.09-.38,0-.68-.06-.89-.18s-.36-.28-.45-.48-.13-.61-.13-1.25v-3.58h-.77v-.82h.77v-1.54l1.05-.63v2.17h1.06v.82h-1.06v3.64c0,.3.02.49.06.58s.1.15.18.21.2.08.36.08c.12,0,.27-.01.46-.04Z"/>
    <path class="ex" d="M508.64,38.77v-1.21h1.05v1.21h-1.05ZM508.64,46.15v-6.22h1.05v6.22h-1.05Z"/>
    <path class="ex" d="M510.91,43.04c0-1.15.32-2.01.96-2.56.54-.46,1.19-.69,1.96-.69.86,0,1.55.28,2.1.84s.81,1.33.81,2.32c0,.8-.12,1.43-.36,1.89s-.59.82-1.05,1.07-.96.38-1.5.38c-.87,0-1.58-.28-2.11-.84s-.81-1.36-.81-2.41ZM512,43.04c0,.8.17,1.39.52,1.79s.79.59,1.31.59.96-.2,1.31-.6.52-1.01.52-1.82c0-.77-.17-1.35-.52-1.75s-.78-.59-1.3-.59-.96.2-1.31.59-.52.99-.52,1.79Z"/>
    <path class="ex" d="M517.98,46.15v-6.22h.95v.88c.46-.68,1.12-1.03,1.98-1.03.38,0,.72.07,1.03.2s.55.31.71.53.27.48.33.78c.04.2.06.54.06,1.03v3.83h-1.05v-3.79c0-.43-.04-.75-.12-.96s-.23-.38-.44-.51-.45-.19-.74-.19c-.45,0-.84.14-1.16.43s-.49.83-.49,1.62v3.4h-1.05Z"/>
    <path class="ex" d="M530.09,46.15v-7.58h-2.83v-1.01h6.81v1.01h-2.84v7.58h-1.14Z"/>
    <path class="ex" d="M537.83,45.38c-.39.33-.77.57-1.13.7s-.75.21-1.16.21c-.68,0-1.21-.17-1.58-.5s-.55-.76-.55-1.28c0-.3.07-.58.21-.83s.32-.45.54-.61.48-.27.76-.35c.21-.05.52-.11.94-.16.85-.1,1.48-.22,1.88-.36,0-.14,0-.24,0-.28,0-.43-.1-.73-.3-.91-.27-.24-.67-.36-1.2-.36-.5,0-.86.09-1.1.26s-.41.48-.52.92l-1.03-.14c.09-.44.25-.8.46-1.07s.53-.48.93-.63.88-.22,1.41-.22.96.06,1.29.19.58.28.73.47.27.43.33.72c.04.18.05.5.05.97v1.41c0,.98.02,1.6.07,1.86s.13.51.27.75h-1.1c-.11-.22-.18-.47-.21-.77ZM537.74,43.03c-.38.16-.96.29-1.72.4-.43.06-.74.13-.92.21s-.32.19-.42.34-.15.32-.15.5c0,.28.11.52.32.7s.52.28.93.28.77-.09,1.08-.27.55-.42.7-.73c.11-.24.17-.59.17-1.05v-.39Z"/>
    <path class="ex" d="M540.02,44.29l1.04-.16c.06.42.22.74.49.96s.64.33,1.12.33.84-.1,1.08-.3.35-.43.35-.69c0-.24-.1-.43-.31-.56-.14-.09-.5-.21-1.08-.36-.77-.2-1.31-.36-1.61-.51s-.53-.34-.68-.59-.23-.53-.23-.83c0-.28.06-.53.19-.77s.3-.43.52-.59c.16-.12.39-.22.67-.31s.59-.13.91-.13c.49,0,.92.07,1.29.21s.64.33.82.57.3.56.36.96l-1.03.14c-.05-.32-.18-.57-.41-.75s-.54-.27-.95-.27c-.48,0-.83.08-1.04.24s-.31.35-.31.56c0,.14.04.26.13.37.09.11.22.21.4.28.11.04.42.13.93.27.75.2,1.27.36,1.56.49s.53.31.69.55.25.54.25.9-.1.68-.31.99-.5.55-.89.72-.82.25-1.31.25c-.81,0-1.42-.17-1.85-.5s-.69-.83-.81-1.49Z"/>
    <path class="ex" d="M546.45,46.15v-8.59h1.05v4.9l2.5-2.53h1.37l-2.38,2.31,2.62,3.91h-1.3l-2.06-3.18-.74.71v2.47h-1.05Z"/>
  </g>
  <g>
    <rect class="fl" x="226.77" y="56.69" width="141.73" height="141.73"/>
    <polygon class="fk" points="226.77 56.69 250.39 80.32 250.39 174.8 226.77 198.43 226.77 56.69"/>
    <polygon class="fk" points="344.88 80.32 368.5 56.69 368.5 198.43 344.88 174.8 344.88 80.32"/>
    <rect class="fa" x="250.39" y="80.32" width="94.49" height="94.49"/>
    <g>
      <polygon class="ey" points="351.5 111.4 351.5 143.72 363.78 147.4 363.78 107.72 351.5 111.4"/>
      <g class="fb">
        <g>
          <rect x="354.62" y="106.15" width="2.13" height="42.83"/>
          <rect x="355.9" y="106.71" width="2.13" height="25.81" transform="translate(6.63 257.44) rotate(-40)"/>
          <rect x="356.34" y="122.8" width="2.13" height="24.45" transform="translate(170.41 -198.15) rotate(40)"/>
        </g>
      </g>
    </g>
    <g>
      <polygon class="ey" points="281.48 73.7 313.8 73.7 317.48 61.42 277.8 61.42 281.48 73.7"/>
      <g class="fh">
        <g>
          <rect x="292.23" y="55.33" width="2.13" height="25.81" transform="translate(429.54 336.77) rotate(-130)"/>
          <rect x="300.92" y="55.33" width="2.13" height="25.81" transform="translate(443.83 343.43) rotate(-130)"/>
          <rect x="309.62" y="55.33" width="2.13" height="25.81" transform="translate(458.11 350.09) rotate(-130)"/>
          <rect x="318.31" y="55.33" width="2.13" height="25.81" transform="translate(472.39 356.75) rotate(-130)"/>
          <rect x="283.53" y="55.33" width="2.13" height="25.81" transform="translate(415.26 330.11) rotate(-130)"/>
          <rect x="274.84" y="55.33" width="2.13" height="25.81" transform="translate(400.97 323.45) rotate(-130)"/>
        </g>
      </g>
    </g>
    <g>
      <polygon class="ey" points="243.78 143.72 243.78 111.4 231.5 107.72 231.5 147.4 243.78 143.72"/>
      <g class="fc">
        <rect x="236.95" y="106.15" width="2.13" height="42.83" transform="translate(476.03 255.12) rotate(-180)"/>
        <polygon points="243.78 128.59 243.78 126.53 231.5 126.3 231.5 128.82 243.78 128.59"/>
      </g>
    </g>
    <rect class="ez" x="297.17" y="80.32" width=".94" height="94.49"/>
    <rect class="ez" x="273.54" y="80.32" width=".94" height="94.49"/>
    <rect class="ez" x="320.79" y="80.32" width=".94" height="94.49"/>
    <rect class="ez" x="297.17" y="80.32" width=".94" height="94.49" transform="translate(170.08 425.2) rotate(-90)"/>
    <rect class="ez" x="297.17" y="103.94" width=".94" height="94.49" transform="translate(146.46 448.82) rotate(-90)"/>
    <rect class="ez" x="297.17" y="56.69" width=".94" height="94.49" transform="translate(193.7 401.57) rotate(-90)"/>
    <g>
      <circle class="ds" cx="274.02" cy="103.94" r="7.09"/>
      <circle class="ca" cx="273.98" cy="103.9" r="7.1"/>
      <circle class="ao" cx="273.95" cy="103.87" r="7.11"/>
      <circle class="ak" cx="273.91" cy="103.84" r="7.12"/>
      <circle class="es" cx="273.88" cy="103.8" r="7.13"/>
      <circle class="az" cx="273.85" cy="103.77" r="7.14"/>
      <circle class="dl" cx="273.81" cy="103.73" r="7.15"/>
      <circle class="z" cx="273.78" cy="103.7" r="7.16"/>
      <circle class="dx" cx="273.75" cy="103.67" r="7.17"/>
      <circle class="bo" cx="273.71" cy="103.63" r="7.18"/>
      <circle class="ee" cx="273.68" cy="103.6" r="7.19"/>
      <circle class="bx" cx="273.64" cy="103.57" r="7.2"/>
      <circle class="bk" cx="273.61" cy="103.53" r="7.21"/>
      <circle class="bb" cx="273.58" cy="103.5" r="7.22"/>
      <circle class="r" cx="273.54" cy="103.46" r="7.23"/>
      <circle class="dg" cx="273.51" cy="103.43" r="7.24"/>
      <circle class="au" cx="273.48" cy="103.4" r="7.25"/>
      <circle class="em" cx="273.44" cy="103.36" r="7.26"/>
      <circle class="dq" cx="273.41" cy="103.33" r="7.27"/>
      <circle class="af" cx="273.37" cy="103.3" r="7.28"/>
      <circle class="ch" cx="273.34" cy="103.26" r="7.29"/>
      <circle class="ek" cx="273.31" cy="103.23" r="7.3"/>
      <circle class="ah" cx="273.27" cy="103.19" r="7.31"/>
      <circle class="bf" cx="273.24" cy="103.16" r="7.32"/>
      <circle class="eu" cx="273.21" cy="103.13" r="7.33"/>
      <circle class="cd" cx="273.17" cy="103.09" r="7.34"/>
      <circle class="eb" cx="273.14" cy="103.06" r="7.35"/>
      <circle class="t" cx="273.1" cy="103.03" r="7.36"/>
      <circle class="ec" cx="273.07" cy="102.99" r="7.37"/>
      <circle class="ep" cx="273.04" cy="102.96" r="7.38"/>
      <circle class="cj" cx="273" cy="102.92" r="7.39"/>
      <circle class="ar" cx="272.97" cy="102.89" r="7.4"/>
      <circle class="ew" cx="272.94" cy="102.86" r="7.41"/>
      <circle class="bg" cx="272.9" cy="102.82" r="7.42"/>
      <circle class="cv" cx="272.87" cy="102.79" r="7.43"/>
      <circle class="q" cx="272.83" cy="102.76" r="7.44"/>
      <circle class="de" cx="272.8" cy="102.72" r="7.45"/>
      <circle class="cw" cx="272.77" cy="102.69" r="7.46"/>
      <circle class="cq" cx="272.73" cy="102.65" r="7.47"/>
      <circle class="dd" cx="272.7" cy="102.62" r="7.48"/>
      <circle class="bl" cx="272.67" cy="102.59" r="7.49"/>
      <circle class="cr" cx="272.63" cy="102.55" r="7.5"/>
      <circle class="bj" cx="272.6" cy="102.52" r="7.51"/>
      <circle class="cf" cx="272.56" cy="102.49" r="7.52"/>
      <circle class="aj" cx="272.53" cy="102.45" r="7.53"/>
      <circle class="db" cx="272.5" cy="102.42" r="7.54"/>
      <circle class="dz" cx="272.46" cy="102.38" r="7.55"/>
      <circle class="dk" cx="272.43" cy="102.35" r="7.56"/>
      <circle class="dj" cx="272.4" cy="102.32" r="7.57"/>
      <circle class="cn" cx="272.36" cy="102.28" r="7.58"/>
      <circle class="eo" cx="272.33" cy="102.25" r="7.59"/>
      <circle class="ea" cx="272.29" cy="102.22" r="7.6"/>
      <circle class="cz" cx="272.26" cy="102.18" r="7.61"/>
      <circle class="bi" cx="272.23" cy="102.15" r="7.62"/>
      <circle class="bu" cx="272.19" cy="102.11" r="7.63"/>
      <circle class="ed" cx="272.16" cy="102.08" r="7.64"/>
      <circle class="dt" cx="272.13" cy="102.05" r="7.65"/>
      <circle class="ce" cx="272.09" cy="102.01" r="7.66"/>
      <circle class="ag" cx="272.06" cy="101.98" r="7.67"/>
      <circle class="bw" cx="272.02" cy="101.95" r="7.68"/>
      <circle class="bs" cx="271.99" cy="101.91" r="7.69"/>
      <circle class="dc" cx="271.96" cy="101.88" r="7.7"/>
      <circle class="n" cx="271.92" cy="101.84" r="7.71"/>
      <circle class="bq" cx="271.89" cy="101.81" r="7.72"/>
      <circle class="an" cx="271.86" cy="101.78" r="7.73"/>
      <circle class="ax" cx="271.82" cy="101.74" r="7.74"/>
      <circle class="cb" cx="271.79" cy="101.71" r="7.75"/>
      <circle class="cs" cx="271.75" cy="101.68" r="7.76"/>
      <circle class="ai" cx="271.72" cy="101.64" r="7.78"/>
      <circle class="w" cx="271.69" cy="101.61" r="7.79"/>
      <circle class="en" cx="271.65" cy="101.58" r="7.8"/>
      <circle class="aa" cx="271.62" cy="101.54" r="7.81"/>
      <circle class="ev" cx="271.59" cy="101.51" r="7.82"/>
      <circle class="ck" cx="271.55" cy="101.47" r="7.83"/>
      <circle class="cc" cx="271.52" cy="101.44" r="7.84"/>
      <circle class="do" cx="271.48" cy="101.41" r="7.85"/>
      <circle class="cg" cx="271.45" cy="101.37" r="7.86"/>
      <circle class="ba" cx="271.42" cy="101.34" r="7.87"/>
      <circle class="by" cx="271.38" cy="101.31" r="7.88"/>
      <circle class="al" cx="271.35" cy="101.27" r="7.89"/>
      <circle class="ac" cx="271.32" cy="101.24" r="7.9"/>
      <circle class="bp" cx="271.28" cy="101.2" r="7.91"/>
      <circle class="ef" cx="271.25" cy="101.17" r="7.92"/>
      <circle class="dr" cx="271.21" cy="101.14" r="7.93"/>
      <circle class="ap" cx="271.18" cy="101.1" r="7.94"/>
      <circle class="be" cx="271.15" cy="101.07" r="7.95"/>
      <circle class="ej" cx="271.11" cy="101.04" r="7.96"/>
      <circle class="br" cx="271.08" cy="101" r="7.97"/>
      <circle class="bm" cx="271.05" cy="100.97" r="7.98"/>
      <circle class="o" cx="271.01" cy="100.93" r="7.99"/>
      <circle class="ab" cx="270.98" cy="100.9" r="8"/>
      <circle class="er" cx="270.94" cy="100.87" r="8.01"/>
      <circle class="as" cx="270.91" cy="100.83" r="8.02"/>
      <circle class="da" cx="270.88" cy="100.8" r="8.03"/>
      <circle class="eq" cx="270.84" cy="100.77" r="8.04"/>
      <circle class="bn" cx="270.81" cy="100.73" r="8.05"/>
      <circle class="bh" cx="270.78" cy="100.7" r="8.06"/>
      <circle class="y" cx="270.74" cy="100.66" r="8.07"/>
      <circle class="bc" cx="270.71" cy="100.63" r="8.08"/>
      <circle class="dm" cx="270.67" cy="100.6" r="8.09"/>
      <circle class="dy" cx="270.64" cy="100.56" r="8.1"/>
      <circle class="cl" cx="270.61" cy="100.53" r="8.11"/>
      <circle class="dw" cx="270.57" cy="100.5" r="8.12"/>
      <circle class="ei" cx="270.54" cy="100.46" r="8.13"/>
      <circle class="eh" cx="270.51" cy="100.43" r="8.14"/>
      <circle class="aq" cx="270.47" cy="100.39" r="8.15"/>
      <circle class="eg" cx="270.44" cy="100.36" r="8.16"/>
      <circle class="dv" cx="270.4" cy="100.33" r="8.17"/>
      <circle class="cu" cx="270.37" cy="100.29" r="8.18"/>
      <circle class="cx" cx="270.34" cy="100.26" r="8.19"/>
      <circle class="co" cx="270.3" cy="100.23" r="8.2"/>
      <circle class="df" cx="270.27" cy="100.19" r="8.21"/>
      <circle class="dn" cx="270.24" cy="100.16" r="8.22"/>
      <circle class="ci" cx="270.2" cy="100.12" r="8.23"/>
      <circle class="di" cx="270.17" cy="100.09" r="8.24"/>
      <circle class="cm" cx="270.13" cy="100.06" r="8.25"/>
      <circle class="s" cx="270.1" cy="100.02" r="8.26"/>
      <circle class="m" cx="270.07" cy="99.99" r="8.27"/>
      <circle class="at" cx="270.03" cy="99.96" r="8.28"/>
      <circle class="cy" cx="270" cy="99.92" r="8.29"/>
      <circle class="ae" cx="269.97" cy="99.89" r="8.3"/>
      <circle class="dp" cx="269.93" cy="99.85" r="8.31"/>
      <circle class="cp" cx="269.9" cy="99.82" r="8.32"/>
      <circle class="du" cx="269.86" cy="99.79" r="8.33"/>
      <circle class="et" cx="269.83" cy="99.75" r="8.34"/>
      <circle class="v" cx="269.8" cy="99.72" r="8.35"/>
      <circle class="bd" cx="269.76" cy="99.69" r="8.36"/>
      <circle class="am" cx="269.73" cy="99.65" r="8.37"/>
      <circle class="p" cx="269.7" cy="99.62" r="8.38"/>
      <circle class="av" cx="269.66" cy="99.58" r="8.39"/>
      <circle class="el" cx="269.63" cy="99.55" r="8.4"/>
      <circle class="ad" cx="269.59" cy="99.52" r="8.41"/>
      <circle class="aw" cx="269.56" cy="99.48" r="8.42"/>
      <circle class="bv" cx="269.53" cy="99.45" r="8.43"/>
      <circle class="bt" cx="269.49" cy="99.42" r="8.44"/>
      <circle class="u" cx="269.46" cy="99.38" r="8.45"/>
      <circle class="x" cx="269.43" cy="99.35" r="8.46"/>
      <circle class="dh" cx="269.39" cy="99.31" r="8.47"/>
      <circle class="bz" cx="269.36" cy="99.28" r="8.48"/>
      <circle class="ay" cx="269.32" cy="99.25" r="8.49"/>
      <circle class="ct" cx="269.29" cy="99.21" r="8.5"/>
    </g>
    <g>
      <rect class="ds" x="316.06" y="96.14" width="10.39" height="15.59" rx="1.42" ry="1.42"/>
      <rect class="ca" x="316.07" y="96.12" width="10.4" height="15.6" rx="1.42" ry="1.42"/>
      <rect class="ao" x="316.08" y="96.11" width="10.41" height="15.61" rx="1.42" ry="1.42"/>
      <rect class="ak" x="316.09" y="96.09" width="10.41" height="15.62" rx="1.42" ry="1.42"/>
      <rect class="es" x="316.1" y="96.07" width="10.42" height="15.63" rx="1.42" ry="1.42"/>
      <rect class="az" x="316.11" y="96.05" width="10.43" height="15.64" rx="1.42" ry="1.42"/>
      <rect class="dl" x="316.12" y="96.03" width="10.43" height="15.65" rx="1.42" ry="1.42"/>
      <rect class="z" x="316.13" y="96.02" width="10.44" height="15.66" rx="1.42" ry="1.42"/>
      <rect class="dx" x="316.14" y="96" width="10.45" height="15.67" rx="1.42" ry="1.42"/>
      <rect class="bo" x="316.15" y="95.98" width="10.45" height="15.68" rx="1.42" ry="1.42"/>
      <rect class="ee" x="316.16" y="95.96" width="10.46" height="15.69" rx="1.42" ry="1.42"/>
      <rect class="bx" x="316.17" y="95.94" width="10.47" height="15.7" rx="1.42" ry="1.42"/>
      <rect class="bk" x="316.18" y="95.93" width="10.47" height="15.71" rx="1.42" ry="1.42"/>
      <rect class="bb" x="316.19" y="95.91" width="10.48" height="15.72" rx="1.42" ry="1.42"/>
      <rect class="r" x="316.2" y="95.89" width="10.49" height="15.73" rx="1.42" ry="1.42"/>
      <rect class="dg" x="316.2" y="95.87" width="10.49" height="15.74" rx="1.42" ry="1.42"/>
      <rect class="au" x="316.21" y="95.86" width="10.5" height="15.75" rx="1.42" ry="1.42"/>
      <rect class="em" x="316.22" y="95.84" width="10.51" height="15.76" rx="1.42" ry="1.42"/>
      <rect class="dq" x="316.23" y="95.82" width="10.52" height="15.77" rx="1.42" ry="1.42"/>
      <rect class="af" x="316.24" y="95.8" width="10.52" height="15.78" rx="1.42" ry="1.42"/>
      <rect class="ch" x="316.25" y="95.78" width="10.53" height="15.79" rx="1.42" ry="1.42"/>
      <rect class="ek" x="316.26" y="95.77" width="10.54" height="15.8" rx="1.42" ry="1.42"/>
      <rect class="ah" x="316.27" y="95.75" width="10.54" height="15.81" rx="1.42" ry="1.42"/>
      <rect class="bf" x="316.28" y="95.73" width="10.55" height="15.82" rx="1.42" ry="1.42"/>
      <rect class="eu" x="316.29" y="95.71" width="10.56" height="15.83" rx="1.42" ry="1.42"/>
      <rect class="cd" x="316.3" y="95.69" width="10.56" height="15.84" rx="1.42" ry="1.42"/>
      <rect class="eb" x="316.31" y="95.68" width="10.57" height="15.85" rx="1.42" ry="1.42"/>
      <rect class="t" x="316.32" y="95.66" width="10.58" height="15.86" rx="1.42" ry="1.42"/>
      <rect class="ec" x="316.33" y="95.64" width="10.58" height="15.87" rx="1.42" ry="1.42"/>
      <rect class="ep" x="316.34" y="95.62" width="10.59" height="15.88" rx="1.42" ry="1.42"/>
      <rect class="cj" x="316.35" y="95.6" width="10.6" height="15.89" rx="1.42" ry="1.42"/>
      <rect class="ar" x="316.36" y="95.59" width="10.6" height="15.9" rx="1.42" ry="1.42"/>
      <rect class="ew" x="316.37" y="95.57" width="10.61" height="15.91" rx="1.42" ry="1.42"/>
      <rect class="bg" x="316.38" y="95.55" width="10.62" height="15.92" rx="1.42" ry="1.42"/>
      <rect class="cv" x="316.38" y="95.53" width="10.62" height="15.93" rx="1.42" ry="1.42"/>
      <rect class="q" x="316.39" y="95.52" width="10.63" height="15.94" rx="1.42" ry="1.42"/>
      <rect class="de" x="316.4" y="95.5" width="10.64" height="15.96" rx="1.42" ry="1.42"/>
      <rect class="cw" x="316.41" y="95.48" width="10.64" height="15.97" rx="1.42" ry="1.42"/>
      <rect class="cq" x="316.42" y="95.46" width="10.65" height="15.98" rx="1.42" ry="1.42"/>
      <rect class="dd" x="316.43" y="95.44" width="10.66" height="15.99" rx="1.42" ry="1.42"/>
      <rect class="bl" x="316.44" y="95.43" width="10.66" height="16" rx="1.42" ry="1.42"/>
      <rect class="cr" x="316.45" y="95.41" width="10.67" height="16.01" rx="1.42" ry="1.42"/>
      <rect class="bj" x="316.46" y="95.39" width="10.68" height="16.02" rx="1.42" ry="1.42"/>
      <rect class="cf" x="316.47" y="95.37" width="10.68" height="16.03" rx="1.42" ry="1.42"/>
      <rect class="aj" x="316.48" y="95.35" width="10.69" height="16.04" rx="1.42" ry="1.42"/>
      <rect class="db" x="316.49" y="95.34" width="10.7" height="16.05" rx="1.42" ry="1.42"/>
      <rect class="dz" x="316.5" y="95.32" width="10.7" height="16.06" rx="1.42" ry="1.42"/>
      <rect class="dk" x="316.51" y="95.3" width="10.71" height="16.07" rx="1.42" ry="1.42"/>
      <rect class="dj" x="316.52" y="95.28" width="10.72" height="16.08" rx="1.42" ry="1.42"/>
      <rect class="cn" x="316.53" y="95.26" width="10.72" height="16.09" rx="1.42" ry="1.42"/>
      <rect class="eo" x="316.54" y="95.25" width="10.73" height="16.1" rx="1.42" ry="1.42"/>
      <rect class="ea" x="316.55" y="95.23" width="10.74" height="16.11" rx="1.42" ry="1.42"/>
      <rect class="cz" x="316.56" y="95.21" width="10.74" height="16.12" rx="1.42" ry="1.42"/>
      <rect class="bi" x="316.56" y="95.19" width="10.75" height="16.13" rx="1.42" ry="1.42"/>
      <rect class="bu" x="316.57" y="95.18" width="10.76" height="16.14" rx="1.42" ry="1.42"/>
      <rect class="ed" x="316.58" y="95.16" width="10.76" height="16.15" rx="1.42" ry="1.42"/>
      <rect class="dt" x="316.59" y="95.14" width="10.77" height="16.16" rx="1.42" ry="1.42"/>
      <rect class="ce" x="316.6" y="95.12" width="10.78" height="16.17" rx="1.42" ry="1.42"/>
      <rect class="ag" x="316.61" y="95.1" width="10.79" height="16.18" rx="1.42" ry="1.42"/>
      <rect class="bw" x="316.62" y="95.09" width="10.79" height="16.19" rx="1.42" ry="1.42"/>
      <rect class="bs" x="316.63" y="95.07" width="10.8" height="16.2" rx="1.42" ry="1.42"/>
      <rect class="dc" x="316.64" y="95.05" width="10.81" height="16.21" rx="1.42" ry="1.42"/>
      <rect class="n" x="316.65" y="95.03" width="10.81" height="16.22" rx="1.42" ry="1.42"/>
      <rect class="bq" x="316.66" y="95.01" width="10.82" height="16.23" rx="1.42" ry="1.42"/>
      <rect class="an" x="316.67" y="95" width="10.83" height="16.24" rx="1.42" ry="1.42"/>
      <rect class="ax" x="316.68" y="94.98" width="10.83" height="16.25" rx="1.42" ry="1.42"/>
      <rect class="cb" x="316.69" y="94.96" width="10.84" height="16.26" rx="1.42" ry="1.42"/>
      <rect class="cs" x="316.7" y="94.94" width="10.85" height="16.27" rx="1.42" ry="1.42"/>
      <rect class="ai" x="316.71" y="94.92" width="10.85" height="16.28" rx="1.42" ry="1.42"/>
      <rect class="w" x="316.72" y="94.91" width="10.86" height="16.29" rx="1.42" ry="1.42"/>
      <rect class="en" x="316.73" y="94.89" width="10.87" height="16.3" rx="1.42" ry="1.42"/>
      <rect class="aa" x="316.74" y="94.87" width="10.87" height="16.31" rx="1.42" ry="1.42"/>
      <rect class="ev" x="316.74" y="94.85" width="10.88" height="16.32" rx="1.42" ry="1.42"/>
      <rect class="ck" x="316.75" y="94.83" width="10.89" height="16.33" rx="1.42" ry="1.42"/>
      <rect class="cc" x="316.76" y="94.82" width="10.89" height="16.34" rx="1.42" ry="1.42"/>
      <rect class="do" x="316.77" y="94.8" width="10.9" height="16.35" rx="1.42" ry="1.42"/>
      <rect class="cg" x="316.78" y="94.78" width="10.91" height="16.36" rx="1.42" ry="1.42"/>
      <rect class="ba" x="316.79" y="94.76" width="10.91" height="16.37" rx="1.42" ry="1.42"/>
      <rect class="by" x="316.8" y="94.75" width="10.92" height="16.38" rx="1.42" ry="1.42"/>
      <rect class="al" x="316.81" y="94.73" width="10.93" height="16.39" rx="1.42" ry="1.42"/>
      <rect class="ac" x="316.82" y="94.71" width="10.93" height="16.4" rx="1.42" ry="1.42"/>
      <rect class="bp" x="316.83" y="94.69" width="10.94" height="16.41" rx="1.42" ry="1.42"/>
      <rect class="ef" x="316.84" y="94.67" width="10.95" height="16.42" rx="1.42" ry="1.42"/>
      <rect class="dr" x="316.85" y="94.66" width="10.95" height="16.43" rx="1.42" ry="1.42"/>
      <rect class="ap" x="316.86" y="94.64" width="10.96" height="16.44" rx="1.42" ry="1.42"/>
      <rect class="be" x="316.87" y="94.62" width="10.97" height="16.45" rx="1.42" ry="1.42"/>
      <rect class="ej" x="316.88" y="94.6" width="10.97" height="16.46" rx="1.42" ry="1.42"/>
      <rect class="br" x="316.89" y="94.58" width="10.98" height="16.47" rx="1.42" ry="1.42"/>
      <rect class="bm" x="316.9" y="94.57" width="10.99" height="16.48" rx="1.42" ry="1.42"/>
      <rect class="o" x="316.91" y="94.55" width="10.99" height="16.49" rx="1.42" ry="1.42"/>
      <rect class="ab" x="316.91" y="94.53" width="11" height="16.5" rx="1.42" ry="1.42"/>
      <rect class="er" x="316.92" y="94.51" width="11.01" height="16.51" rx="1.42" ry="1.42"/>
      <rect class="as" x="316.93" y="94.49" width="11.01" height="16.52" rx="1.42" ry="1.42"/>
      <rect class="da" x="316.94" y="94.48" width="11.02" height="16.53" rx="1.42" ry="1.42"/>
      <rect class="eq" x="316.95" y="94.46" width="11.03" height="16.54" rx="1.42" ry="1.42"/>
      <rect class="bn" x="316.96" y="94.44" width="11.03" height="16.55" rx="1.42" ry="1.42"/>
      <rect class="bh" x="316.97" y="94.42" width="11.04" height="16.56" rx="1.42" ry="1.42"/>
      <rect class="y" x="316.98" y="94.41" width="11.05" height="16.57" rx="1.42" ry="1.42"/>
      <rect class="bc" x="316.99" y="94.39" width="11.06" height="16.58" rx="1.42" ry="1.42"/>
      <rect class="dm" x="317" y="94.37" width="11.06" height="16.59" rx="1.42" ry="1.42"/>
      <rect class="dy" x="317.01" y="94.35" width="11.07" height="16.6" rx="1.42" ry="1.42"/>
      <rect class="cl" x="317.02" y="94.33" width="11.08" height="16.61" rx="1.42" ry="1.42"/>
      <rect class="dw" x="317.03" y="94.32" width="11.08" height="16.62" rx="1.42" ry="1.42"/>
      <rect class="ei" x="317.04" y="94.3" width="11.09" height="16.63" rx="1.42" ry="1.42"/>
      <rect class="eh" x="317.05" y="94.28" width="11.1" height="16.64" rx="1.42" ry="1.42"/>
      <rect class="aq" x="317.06" y="94.26" width="11.1" height="16.65" rx="1.42" ry="1.42"/>
      <rect class="eg" x="317.07" y="94.24" width="11.11" height="16.66" rx="1.42" ry="1.42"/>
      <rect class="dv" x="317.08" y="94.23" width="11.12" height="16.67" rx="1.42" ry="1.42"/>
      <rect class="cu" x="317.09" y="94.21" width="11.12" height="16.68" rx="1.42" ry="1.42"/>
      <rect class="cx" x="317.09" y="94.19" width="11.13" height="16.69" rx="1.42" ry="1.42"/>
      <rect class="co" x="317.1" y="94.17" width="11.14" height="16.7" rx="1.42" ry="1.42"/>
      <rect class="df" x="317.11" y="94.15" width="11.14" height="16.71" rx="1.42" ry="1.42"/>
      <rect class="dn" x="317.12" y="94.14" width="11.15" height="16.72" rx="1.42" ry="1.42"/>
      <rect class="ci" x="317.13" y="94.12" width="11.16" height="16.73" rx="1.42" ry="1.42"/>
      <rect class="di" x="317.14" y="94.1" width="11.16" height="16.74" rx="1.42" ry="1.42"/>
      <rect class="cm" x="317.15" y="94.08" width="11.17" height="16.75" rx="1.42" ry="1.42"/>
      <rect class="s" x="317.16" y="94.06" width="11.18" height="16.76" rx="1.42" ry="1.42"/>
      <rect class="m" x="317.17" y="94.05" width="11.18" height="16.78" rx="1.42" ry="1.42"/>
      <rect class="at" x="317.18" y="94.03" width="11.19" height="16.79" rx="1.42" ry="1.42"/>
      <rect class="cy" x="317.19" y="94.01" width="11.2" height="16.8" rx="1.42" ry="1.42"/>
      <rect class="ae" x="317.2" y="93.99" width="11.2" height="16.81" rx="1.42" ry="1.42"/>
      <rect class="dp" x="317.21" y="93.98" width="11.21" height="16.82" rx="1.42" ry="1.42"/>
      <rect class="cp" x="317.22" y="93.96" width="11.22" height="16.83" rx="1.42" ry="1.42"/>
      <rect class="du" x="317.23" y="93.94" width="11.22" height="16.84" rx="1.42" ry="1.42"/>
      <rect class="et" x="317.24" y="93.92" width="11.23" height="16.85" rx="1.42" ry="1.42"/>
      <rect class="v" x="317.25" y="93.9" width="11.24" height="16.86" rx="1.42" ry="1.42"/>
      <rect class="bd" x="317.26" y="93.89" width="11.24" height="16.87" rx="1.42" ry="1.42"/>
      <rect class="am" x="317.27" y="93.87" width="11.25" height="16.88" rx="1.42" ry="1.42"/>
      <rect class="p" x="317.27" y="93.85" width="11.26" height="16.89" rx="1.42" ry="1.42"/>
      <rect class="av" x="317.28" y="93.83" width="11.26" height="16.9" rx="1.42" ry="1.42"/>
      <rect class="el" x="317.29" y="93.81" width="11.27" height="16.91" rx="1.42" ry="1.42"/>
      <rect class="ad" x="317.3" y="93.8" width="11.28" height="16.92" rx="1.42" ry="1.42"/>
      <rect class="aw" x="317.31" y="93.78" width="11.28" height="16.93" rx="1.42" ry="1.42"/>
      <rect class="bv" x="317.32" y="93.76" width="11.29" height="16.94" rx="1.42" ry="1.42"/>
      <rect class="bt" x="317.33" y="93.74" width="11.3" height="16.95" rx="1.42" ry="1.42"/>
      <rect class="u" x="317.34" y="93.72" width="11.3" height="16.96" rx="1.42" ry="1.42"/>
      <rect class="x" x="317.35" y="93.71" width="11.31" height="16.97" rx="1.42" ry="1.42"/>
      <rect class="dh" x="317.36" y="93.69" width="11.32" height="16.98" rx="1.42" ry="1.42"/>
      <rect class="bz" x="317.37" y="93.67" width="11.33" height="16.99" rx="1.42" ry="1.42"/>
      <rect class="ay" x="317.38" y="93.65" width="11.33" height="17" rx="1.42" ry="1.42"/>
      <rect class="ct" x="317.39" y="93.64" width="11.34" height="17.01" rx="1.42" ry="1.42"/>
    </g>
  </g>
  <g>
    <path class="ex" d="M230.85,46.15v-8.59h1.17l4.51,6.74v-6.74h1.09v8.59h-1.17l-4.51-6.75v6.75h-1.09Z"/>
    <path class="ex" d="M239,43.04c0-1.15.32-2.01.96-2.56.54-.46,1.19-.69,1.96-.69.86,0,1.55.28,2.1.84s.81,1.33.81,2.32c0,.8-.12,1.43-.36,1.89s-.59.82-1.05,1.07-.96.38-1.5.38c-.87,0-1.58-.28-2.11-.84s-.81-1.36-.81-2.41ZM240.08,43.04c0,.8.17,1.39.52,1.79s.79.59,1.31.59.96-.2,1.31-.6.52-1.01.52-1.82c0-.77-.17-1.35-.52-1.75s-.78-.59-1.3-.59-.96.2-1.31.59-.52.99-.52,1.79Z"/>
    <path class="ex" d="M247.79,46.15l-2.37-6.22h1.11l1.34,3.73c.14.4.28.82.4,1.25.09-.33.22-.72.39-1.18l1.38-3.8h1.08l-2.36,6.22h-.98Z"/>
    <path class="ex" d="M256.33,44.15l1.09.13c-.17.64-.49,1.13-.96,1.48s-1.06.53-1.78.53c-.91,0-1.63-.28-2.17-.84s-.8-1.35-.8-2.36.27-1.86.81-2.44,1.24-.87,2.1-.87,1.51.28,2.04.85.79,1.36.79,2.39c0,.06,0,.16,0,.28h-4.64c.04.68.23,1.21.58,1.57s.78.54,1.3.54c.39,0,.72-.1.99-.3s.49-.53.65-.97ZM252.86,42.44h3.47c-.05-.52-.18-.92-.4-1.18-.34-.41-.77-.61-1.31-.61-.48,0-.89.16-1.22.49s-.51.76-.55,1.3Z"/>
    <path class="ex" d="M258.72,46.15v-8.59h1.05v8.59h-1.05Z"/>
    <path class="ex" d="M264.53,41.97c0-1.43.38-2.54,1.15-3.35s1.75-1.21,2.96-1.21c.79,0,1.51.19,2.14.57s1.12.91,1.46,1.58.5,1.45.5,2.31-.18,1.65-.53,2.34-.85,1.21-1.49,1.56-1.34.53-2.09.53c-.81,0-1.53-.2-2.17-.59s-1.12-.92-1.45-1.6-.49-1.39-.49-2.14ZM265.7,41.98c0,1.04.28,1.85.83,2.45s1.25.89,2.09.89,1.56-.3,2.11-.9.83-1.46.83-2.56c0-.7-.12-1.31-.35-1.83s-.58-.93-1.04-1.21-.97-.43-1.53-.43c-.8,0-1.5.28-2.08.83s-.87,1.48-.87,2.77Z"/>
    <path class="ex" d="M275.05,46.15h-.98v-8.59h1.05v3.06c.45-.56,1.01-.84,1.71-.84.38,0,.75.08,1.09.23s.62.37.84.65.39.62.52,1.01.19.82.19,1.27c0,1.07-.26,1.89-.79,2.47s-1.16.87-1.9.87-1.31-.31-1.73-.92v.78ZM275.04,42.99c0,.75.1,1.29.3,1.62.33.54.78.81,1.35.81.46,0,.86-.2,1.2-.6s.5-1,.5-1.79-.16-1.41-.48-1.8-.71-.58-1.17-.58-.86.2-1.2.6-.5.98-.5,1.74Z"/>
    <path class="ex" d="M279.41,48.56l.2-.9c.21.05.38.08.5.08.21,0,.38-.07.48-.21s.16-.5.16-1.07v-6.54h1.05v6.56c0,.77-.1,1.3-.3,1.6-.25.39-.68.59-1.27.59-.29,0-.56-.04-.83-.11ZM280.74,38.79v-1.22h1.05v1.22h-1.05Z"/>
    <path class="ex" d="M287.67,44.15l1.09.13c-.17.64-.49,1.13-.96,1.48s-1.06.53-1.78.53c-.91,0-1.63-.28-2.17-.84s-.8-1.35-.8-2.36.27-1.86.81-2.44,1.24-.87,2.1-.87,1.51.28,2.04.85.79,1.36.79,2.39c0,.06,0,.16,0,.28h-4.64c.04.68.23,1.21.58,1.57s.78.54,1.3.54c.39,0,.72-.1.99-.3s.49-.53.65-.97ZM284.21,42.44h3.47c-.05-.52-.18-.92-.4-1.18-.34-.41-.77-.61-1.31-.61-.48,0-.89.16-1.22.49s-.51.76-.55,1.3Z"/>
    <path class="ex" d="M294.15,43.87l1.04.13c-.11.71-.4,1.27-.87,1.68s-1.04.61-1.72.61c-.85,0-1.54-.28-2.05-.83s-.78-1.35-.78-2.39c0-.67.11-1.26.33-1.76s.56-.88,1.02-1.13.95-.38,1.49-.38c.68,0,1.23.17,1.66.51s.71.83.83,1.46l-1.03.16c-.1-.42-.27-.73-.52-.94s-.55-.32-.9-.32c-.53,0-.96.19-1.29.57s-.5.98-.5,1.81.16,1.44.48,1.82.74.57,1.25.57c.41,0,.76-.13,1.04-.38s.45-.64.53-1.17Z"/>
    <path class="ex" d="M298.39,45.21l.15.93c-.3.06-.56.09-.8.09-.38,0-.68-.06-.89-.18s-.36-.28-.45-.48-.13-.61-.13-1.25v-3.58h-.77v-.82h.77v-1.54l1.05-.63v2.17h1.06v.82h-1.06v3.64c0,.3.02.49.06.58s.1.15.18.21.2.08.36.08c.12,0,.27-.01.46-.04Z"/>
    <path class="ex" d="M302.91,46.15v-8.59h3.81c.77,0,1.35.08,1.75.23s.72.43.96.82.36.82.36,1.29c0,.61-.2,1.12-.59,1.54s-1,.68-1.83.8c.3.14.53.29.69.43.33.3.65.69.94,1.14l1.49,2.34h-1.43l-1.14-1.79c-.33-.52-.61-.91-.82-1.18s-.41-.46-.58-.57-.34-.19-.52-.23c-.13-.03-.34-.04-.63-.04h-1.32v3.81h-1.14ZM304.04,41.35h2.44c.52,0,.93-.05,1.22-.16s.52-.28.67-.52.23-.49.23-.77c0-.41-.15-.74-.44-1s-.76-.39-1.4-.39h-2.72v2.84Z"/>
    <path class="ex" d="M315.68,44.15l1.09.13c-.17.64-.49,1.13-.96,1.48s-1.06.53-1.78.53c-.91,0-1.63-.28-2.17-.84s-.8-1.35-.8-2.36.27-1.86.81-2.44,1.24-.87,2.1-.87,1.51.28,2.04.85.79,1.36.79,2.39c0,.06,0,.16,0,.28h-4.64c.04.68.23,1.21.58,1.57s.78.54,1.3.54c.39,0,.72-.1.99-.3s.49-.53.65-.97ZM312.22,42.44h3.47c-.05-.52-.18-.92-.4-1.18-.34-.41-.77-.61-1.31-.61-.48,0-.89.16-1.22.49s-.51.76-.55,1.3Z"/>
    <path class="ex" d="M322.16,43.87l1.04.13c-.11.71-.4,1.27-.87,1.68s-1.04.61-1.72.61c-.85,0-1.54-.28-2.05-.83s-.78-1.35-.78-2.39c0-.67.11-1.26.33-1.76s.56-.88,1.02-1.13.95-.38,1.49-.38c.68,0,1.23.17,1.66.51s.71.83.83,1.46l-1.03.16c-.1-.42-.27-.73-.52-.94s-.55-.32-.9-.32c-.53,0-.96.19-1.29.57s-.5.98-.5,1.81.16,1.44.48,1.82.74.57,1.25.57c.41,0,.76-.13,1.04-.38s.45-.64.53-1.17Z"/>
    <path class="ex" d="M323.7,43.04c0-1.15.32-2.01.96-2.56.54-.46,1.19-.69,1.96-.69.86,0,1.55.28,2.1.84s.81,1.33.81,2.32c0,.8-.12,1.43-.36,1.89s-.59.82-1.05,1.07-.96.38-1.5.38c-.87,0-1.58-.28-2.11-.84s-.81-1.36-.81-2.41ZM324.79,43.04c0,.8.17,1.39.52,1.79s.79.59,1.31.59.96-.2,1.31-.6.52-1.01.52-1.82c0-.77-.17-1.35-.52-1.75s-.78-.59-1.3-.59-.96.2-1.31.59-.52.99-.52,1.79Z"/>
    <path class="ex" d="M330.58,46.67l1.03.15c.04.32.16.55.36.69.26.2.62.29,1.07.29.49,0,.87-.1,1.13-.29s.45-.47.54-.82c.05-.21.08-.67.08-1.35-.46.54-1.04.81-1.72.81-.86,0-1.52-.31-1.99-.93s-.7-1.36-.7-2.22c0-.59.11-1.14.32-1.64s.53-.89.93-1.16.89-.41,1.44-.41c.73,0,1.34.3,1.82.89v-.75h.97v5.38c0,.97-.1,1.66-.3,2.06s-.51.72-.94.96-.95.35-1.58.35c-.74,0-1.34-.17-1.8-.5s-.68-.84-.66-1.51ZM331.45,42.93c0,.82.16,1.41.49,1.79s.73.56,1.22.56.89-.19,1.22-.56.49-.96.49-1.75-.17-1.34-.51-1.72-.75-.58-1.22-.58-.87.19-1.2.57-.49.95-.49,1.7Z"/>
    <path class="ex" d="M337.44,46.15v-6.22h.95v.88c.46-.68,1.12-1.03,1.98-1.03.38,0,.72.07,1.03.2s.55.31.71.53.27.48.33.78c.04.2.06.54.06,1.03v3.83h-1.05v-3.79c0-.43-.04-.75-.12-.96s-.23-.38-.44-.51-.45-.19-.74-.19c-.45,0-.84.14-1.16.43s-.49.83-.49,1.62v3.4h-1.05Z"/>
    <path class="ex" d="M344.12,38.77v-1.21h1.05v1.21h-1.05ZM344.12,46.15v-6.22h1.05v6.22h-1.05Z"/>
    <path class="ex" d="M349.09,45.21l.15.93c-.3.06-.56.09-.8.09-.38,0-.68-.06-.89-.18s-.36-.28-.45-.48-.13-.61-.13-1.25v-3.58h-.77v-.82h.77v-1.54l1.05-.63v2.17h1.06v.82h-1.06v3.64c0,.3.02.49.06.58s.1.15.18.21.2.08.36.08c.12,0,.27-.01.46-.04Z"/>
    <path class="ex" d="M350.12,38.77v-1.21h1.05v1.21h-1.05ZM350.12,46.15v-6.22h1.05v6.22h-1.05Z"/>
    <path class="ex" d="M352.39,43.04c0-1.15.32-2.01.96-2.56.54-.46,1.19-.69,1.96-.69.86,0,1.55.28,2.1.84s.81,1.33.81,2.32c0,.8-.12,1.43-.36,1.89s-.59.82-1.05,1.07-.96.38-1.5.38c-.87,0-1.58-.28-2.11-.84s-.81-1.36-.81-2.41ZM353.47,43.04c0,.8.17,1.39.52,1.79s.79.59,1.31.59.96-.2,1.31-.6.52-1.01.52-1.82c0-.77-.17-1.35-.52-1.75s-.78-.59-1.3-.59-.96.2-1.31.59-.52.99-.52,1.79Z"/>
    <path class="ex" d="M359.46,46.15v-6.22h.95v.88c.46-.68,1.12-1.03,1.98-1.03.38,0,.72.07,1.03.2s.55.31.71.53.27.48.33.78c.04.2.06.54.06,1.03v3.83h-1.05v-3.79c0-.43-.04-.75-.12-.96s-.23-.38-.44-.51-.45-.19-.74-.19c-.45,0-.84.14-1.16.43s-.49.83-.49,1.62v3.4h-1.05Z"/>
  </g>
  <g>
    <path class="ex" d="M77.4,20.82v-8.59h2.78c1.05,0,1.74.04,2.06.13.49.13.9.41,1.24.84s.5.99.5,1.67c0,.53-.1.97-.29,1.33s-.43.64-.73.85-.59.34-.9.41c-.41.08-1.01.12-1.8.12h-1.13v3.24h-1.73ZM79.14,13.68v2.44h.95c.68,0,1.14-.04,1.37-.13s.41-.23.54-.42.2-.41.2-.67c0-.31-.09-.57-.28-.77s-.42-.33-.7-.38c-.21-.04-.62-.06-1.25-.06h-.84Z"/>
    <path class="ex" d="M87.04,12.23v3.16c.53-.62,1.17-.93,1.9-.93.38,0,.72.07,1.03.21s.53.32.69.54.26.46.32.73.08.68.08,1.24v3.65h-1.65v-3.29c0-.65-.03-1.07-.09-1.24s-.17-.32-.33-.42-.36-.16-.59-.16c-.27,0-.52.07-.73.2s-.37.33-.47.6-.15.66-.15,1.19v3.12h-1.65v-8.59h1.65Z"/>
    <path class="ex" d="M93.96,16.49l-1.49-.27c.17-.6.46-1.05.87-1.34s1.02-.43,1.83-.43c.73,0,1.28.09,1.64.26s.61.39.76.66.22.76.22,1.47l-.02,1.92c0,.55.03.95.08,1.21s.15.54.3.83h-1.63c-.04-.11-.1-.27-.16-.49-.03-.1-.05-.16-.06-.19-.28.27-.58.48-.9.62s-.66.21-1.03.21c-.64,0-1.15-.17-1.51-.52s-.55-.79-.55-1.32c0-.35.08-.67.25-.94s.4-.49.71-.63.74-.27,1.31-.38c.77-.14,1.3-.28,1.6-.4v-.16c0-.32-.08-.54-.23-.68s-.45-.2-.88-.2c-.29,0-.52.06-.69.17s-.3.32-.4.61ZM96.16,17.83c-.21.07-.54.15-1,.25s-.76.19-.9.29c-.21.15-.32.35-.32.58s.09.43.26.6.39.25.66.25c.3,0,.58-.1.85-.29.2-.15.33-.33.39-.54.04-.14.06-.41.06-.8v-.33Z"/>
    <path class="ex" d="M98.82,19.04l1.65-.25c.07.32.21.56.43.73s.52.25.9.25c.43,0,.75-.08.96-.23.14-.11.22-.26.22-.44,0-.12-.04-.23-.12-.31-.08-.08-.27-.15-.55-.22-1.33-.29-2.17-.56-2.53-.8-.49-.34-.74-.8-.74-1.4,0-.54.21-.99.64-1.36s1.09-.55,1.98-.55,1.48.14,1.9.42.7.69.86,1.23l-1.55.29c-.07-.24-.19-.43-.38-.56s-.45-.19-.79-.19c-.43,0-.74.06-.93.18-.12.09-.19.2-.19.33,0,.12.05.22.16.3.15.11.66.26,1.54.46s1.49.44,1.84.73c.34.29.52.7.52,1.22,0,.57-.24,1.06-.71,1.47s-1.18.62-2.12.62c-.85,0-1.52-.17-2.01-.52s-.82-.81-.97-1.4Z"/>
    <path class="ex" d="M109.68,18.84l1.64.28c-.21.6-.54,1.06-1,1.37s-1.02.47-1.71.47c-1.08,0-1.88-.35-2.4-1.06-.41-.57-.62-1.28-.62-2.14,0-1.03.27-1.84.81-2.42s1.22-.88,2.04-.88c.93,0,1.66.31,2.19.92s.79,1.55.77,2.81h-4.12c.01.49.14.87.4,1.14s.57.41.95.41c.26,0,.47-.07.65-.21s.31-.37.4-.68ZM109.77,17.17c-.01-.48-.13-.84-.37-1.09s-.52-.37-.86-.37c-.36,0-.66.13-.89.39s-.35.62-.35,1.07h2.46Z"/>
    <path class="ex" d="M119.94,20.82h-1.65v-6.21c-.6.56-1.31.98-2.13,1.25v-1.49c.43-.14.9-.41,1.4-.8s.85-.85,1.04-1.37h1.34v8.62Z"/>
  </g>
  <g>
    <path class="ex" d="M375.04,20.82v-8.59h2.78c1.05,0,1.74.04,2.06.13.49.13.9.41,1.24.84s.5.99.5,1.67c0,.53-.1.97-.29,1.33s-.43.64-.73.85-.59.34-.9.41c-.41.08-1.01.12-1.8.12h-1.13v3.24h-1.73ZM376.78,13.68v2.44h.95c.68,0,1.14-.04,1.37-.13s.41-.23.54-.42.2-.41.2-.67c0-.31-.09-.57-.28-.77s-.42-.33-.7-.38c-.21-.04-.62-.06-1.25-.06h-.84Z"/>
    <path class="ex" d="M384.67,12.23v3.16c.53-.62,1.17-.93,1.9-.93.38,0,.72.07,1.03.21s.53.32.69.54.26.46.32.73.08.68.08,1.24v3.65h-1.65v-3.29c0-.65-.03-1.07-.09-1.24s-.17-.32-.33-.42-.36-.16-.59-.16c-.27,0-.52.07-.73.2s-.37.33-.47.6-.15.66-.15,1.19v3.12h-1.65v-8.59h1.65Z"/>
    <path class="ex" d="M391.59,16.49l-1.49-.27c.17-.6.46-1.05.87-1.34s1.02-.43,1.83-.43c.73,0,1.28.09,1.64.26s.61.39.76.66.22.76.22,1.47l-.02,1.92c0,.55.03.95.08,1.21s.15.54.3.83h-1.63c-.04-.11-.1-.27-.16-.49-.03-.1-.05-.16-.06-.19-.28.27-.58.48-.9.62s-.66.21-1.03.21c-.64,0-1.15-.17-1.51-.52s-.55-.79-.55-1.32c0-.35.08-.67.25-.94s.4-.49.71-.63.74-.27,1.31-.38c.77-.14,1.3-.28,1.6-.4v-.16c0-.32-.08-.54-.23-.68s-.45-.2-.88-.2c-.29,0-.52.06-.69.17s-.3.32-.4.61ZM393.8,17.83c-.21.07-.54.15-1,.25s-.76.19-.9.29c-.21.15-.32.35-.32.58s.09.43.26.6.39.25.66.25c.3,0,.58-.1.85-.29.2-.15.33-.33.39-.54.04-.14.06-.41.06-.8v-.33Z"/>
    <path class="ex" d="M396.46,19.04l1.65-.25c.07.32.21.56.43.73s.52.25.9.25c.43,0,.75-.08.96-.23.14-.11.22-.26.22-.44,0-.12-.04-.23-.12-.31-.08-.08-.27-.15-.55-.22-1.33-.29-2.17-.56-2.53-.8-.49-.34-.74-.8-.74-1.4,0-.54.21-.99.64-1.36s1.09-.55,1.98-.55,1.48.14,1.9.42.7.69.86,1.23l-1.55.29c-.07-.24-.19-.43-.38-.56s-.45-.19-.79-.19c-.43,0-.74.06-.93.18-.12.09-.19.2-.19.33,0,.12.05.22.16.3.15.11.66.26,1.54.46s1.49.44,1.84.73c.34.29.52.7.52,1.22,0,.57-.24,1.06-.71,1.47s-1.18.62-2.12.62c-.85,0-1.52-.17-2.01-.52s-.82-.81-.97-1.4Z"/>
    <path class="ex" d="M407.32,18.84l1.64.28c-.21.6-.54,1.06-1,1.37s-1.02.47-1.71.47c-1.08,0-1.88-.35-2.4-1.06-.41-.57-.62-1.28-.62-2.14,0-1.03.27-1.84.81-2.42s1.22-.88,2.04-.88c.93,0,1.66.31,2.19.92s.79,1.55.77,2.81h-4.12c.01.49.14.87.4,1.14s.57.41.95.41c.26,0,.47-.07.65-.21s.31-.37.4-.68ZM407.41,17.17c-.01-.48-.13-.84-.37-1.09s-.52-.37-.86-.37c-.36,0-.66.13-.89.39s-.35.62-.35,1.07h2.46Z"/>
    <path class="ex" d="M418.93,19.29v1.53h-5.77c.06-.58.25-1.13.56-1.64s.93-1.2,1.85-2.06c.74-.69,1.2-1.16,1.37-1.41.23-.34.34-.68.34-1.01,0-.37-.1-.65-.3-.85s-.47-.3-.82-.3-.62.1-.82.31-.32.55-.35,1.03l-1.64-.16c.1-.91.4-1.56.92-1.95s1.16-.59,1.93-.59c.85,0,1.51.23,2,.69s.73,1.03.73,1.71c0,.39-.07.75-.21,1.1s-.36.72-.66,1.1c-.2.25-.56.62-1.08,1.1s-.85.79-.99.95-.25.31-.34.46h3.27Z"/>
  </g>
</svg>