<?xml version="1.0" encoding="UTF-8"?>
<svg id="a" data-name="Layer 5" xmlns="http://www.w3.org/2000/svg" xmlns:xlink="http://www.w3.org/1999/xlink" viewBox="0 0 595.28 841.89">
  <defs>
    <style>
      .h, .i {
        fill: none;
      }

      .j, .k {
        fill: #9eda4b;
      }

      .i {
        stroke: #9eda4b;
        stroke-miterlimit: 10;
        stroke-width: 2px;
      }

      .l {
        fill: #1d1d1b;
      }

      .m {
        fill: #fff;
      }

      .n {
        fill: #666;
      }

      .o {
        clip-path: url(#e);
      }

      .p {
        clip-path: url(#d);
      }

      .q {
        clip-path: url(#c);
      }

      .r {
        clip-path: url(#b);
      }

      .s {
        fill: #7f7f7f;
      }

      .t {
        fill: #333;
      }

      .k {
        opacity: .5;
      }

      .u {
        fill: #222;
      }
    </style>
    <clipPath id="b">
      <rect class="h" x="325.98" y="42.52" width="141.73" height="141.73"/>
    </clipPath>
    <clipPath id="c">
      <polygon class="h" points="252.28 97.23 252.28 129.54 264.57 133.23 264.57 93.54 252.28 97.23"/>
    </clipPath>
    <clipPath id="d">
      <polygon class="h" points="182.27 59.53 214.58 59.53 218.27 47.24 178.58 47.24 182.27 59.53"/>
    </clipPath>
    <clipPath id="e">
      <polygon class="h" points="144.57 129.54 144.57 97.23 132.28 93.54 132.28 133.23 144.57 129.54"/>
    </clipPath>
    <image id="g" width="1920" height="1080" xlink:href="../SimBA/Hab_Dory_260129/project_folder/frames/output/path_plots_smoothed_center/Dory_OpenField_rat08_final_frame.png"/>
  </defs>
  <rect class="m" x="0" width="595.28" height="184.25"/>
  <g class="r">
    <use transform="translate(246.31 28.81) scale(.16)" xlink:href="#g"/>
    <use transform="translate(261.87 35.96) scale(.14)" xlink:href="#g"/>
  </g>
  <rect class="i" x="370.22" y="86.76" width="53.26" height="53.26" transform="translate(283.46 510.24) rotate(-90)"/>
  <rect class="k" x="370.22" y="86.76" width="53.26" height="53.26" transform="translate(283.46 510.24) rotate(-90)"/>
  <g>
    <path class="l" d="M346.05,25.75v-8.59h6.37v1.45h-4.63v1.9h4.31v1.45h-4.31v2.34h4.8v1.45h-6.53Z"/>
    <path class="l" d="M353.25,25.75l2.24-3.21-2.15-3.02h2.01l1.1,1.71,1.16-1.71h1.93l-2.11,2.95,2.3,3.28h-2.02l-1.27-1.93-1.28,1.93h-1.93Z"/>
    <path class="l" d="M361.95,21.42l-1.49-.27c.17-.6.46-1.05.87-1.34s1.02-.43,1.83-.43c.73,0,1.28.09,1.64.26s.61.39.76.66.22.76.22,1.47l-.02,1.92c0,.55.03.95.08,1.21s.15.54.3.83h-1.63c-.04-.11-.1-.27-.16-.49-.03-.1-.05-.16-.06-.19-.28.27-.58.48-.9.62s-.66.21-1.03.21c-.64,0-1.15-.17-1.51-.52s-.55-.79-.55-1.32c0-.35.08-.67.25-.94s.4-.49.71-.63.74-.27,1.31-.38c.77-.14,1.3-.28,1.6-.4v-.16c0-.32-.08-.54-.23-.68s-.45-.2-.88-.2c-.29,0-.52.06-.69.17s-.3.32-.4.61ZM364.15,22.76c-.21.07-.54.15-1,.25s-.76.19-.9.29c-.21.15-.32.35-.32.58s.09.43.26.6.39.25.66.25c.3,0,.58-.1.85-.29.2-.15.33-.33.39-.54.04-.14.06-.41.06-.8v-.33Z"/>
    <path class="l" d="M367.27,19.52h1.52v.85c.54-.66,1.19-.99,1.94-.99.4,0,.74.08,1.04.25s.53.41.72.74c.27-.33.57-.58.88-.74s.65-.25,1.01-.25c.46,0,.84.09,1.16.28s.55.46.71.82c.11.27.17.7.17,1.29v3.98h-1.65v-3.56c0-.62-.06-1.02-.17-1.2-.15-.23-.39-.35-.7-.35-.23,0-.45.07-.65.21s-.35.35-.44.62-.13.7-.13,1.29v2.99h-1.65v-3.41c0-.61-.03-1-.09-1.17s-.15-.31-.27-.39-.29-.13-.5-.13c-.25,0-.48.07-.69.21s-.35.33-.44.59-.13.69-.13,1.28v3.02h-1.65v-6.22Z"/>
    <path class="l" d="M378.01,19.52h1.54v.91c.2-.31.47-.57.81-.76s.72-.29,1.13-.29c.72,0,1.34.28,1.84.85s.76,1.36.76,2.37-.25,1.85-.76,2.42-1.12.86-1.85.86c-.34,0-.66-.07-.93-.21s-.57-.37-.88-.7v3.13h-1.65v-8.59ZM379.64,22.53c0,.7.14,1.22.42,1.55s.62.5,1.01.5.7-.15.96-.46.38-.81.38-1.51c0-.65-.13-1.14-.39-1.45s-.59-.47-.97-.47-.74.16-1,.47-.4.77-.4,1.38Z"/>
    <path class="l" d="M385.39,25.75v-8.59h1.65v8.59h-1.65Z"/>
    <path class="l" d="M392.33,23.77l1.64.28c-.21.6-.54,1.06-1,1.37s-1.02.47-1.71.47c-1.08,0-1.88-.35-2.4-1.06-.41-.57-.62-1.28-.62-2.14,0-1.03.27-1.84.81-2.42s1.22-.88,2.04-.88c.93,0,1.66.31,2.19.92s.79,1.55.77,2.81h-4.12c.01.49.14.87.4,1.14s.57.41.95.41c.26,0,.47-.07.65-.21s.31-.37.4-.68ZM392.42,22.1c-.01-.48-.13-.84-.37-1.09s-.52-.37-.86-.37c-.36,0-.66.13-.89.39s-.35.62-.35,1.07h2.46Z"/>
    <path class="l" d="M398.68,19.52h1.54v.91c.2-.31.47-.57.81-.76s.72-.29,1.13-.29c.72,0,1.34.28,1.84.85s.76,1.36.76,2.37-.25,1.85-.76,2.42-1.12.86-1.85.86c-.34,0-.66-.07-.93-.21s-.57-.37-.88-.7v3.13h-1.65v-8.59ZM400.31,22.53c0,.7.14,1.22.42,1.55s.62.5,1.01.5.7-.15.96-.46.38-.81.38-1.51c0-.65-.13-1.14-.39-1.45s-.59-.47-.97-.47-.74.16-1,.47-.4.77-.4,1.38Z"/>
    <path class="l" d="M407.29,21.42l-1.49-.27c.17-.6.46-1.05.87-1.34s1.02-.43,1.83-.43c.73,0,1.28.09,1.64.26s.61.39.76.66.22.76.22,1.47l-.02,1.92c0,.55.03.95.08,1.21s.15.54.3.83h-1.63c-.04-.11-.1-.27-.16-.49-.03-.1-.05-.16-.06-.19-.28.27-.58.48-.9.62s-.66.21-1.03.21c-.64,0-1.15-.17-1.51-.52s-.55-.79-.55-1.32c0-.35.08-.67.25-.94s.4-.49.71-.63.74-.27,1.31-.38c.77-.14,1.3-.28,1.6-.4v-.16c0-.32-.08-.54-.23-.68s-.45-.2-.88-.2c-.29,0-.52.06-.69.17s-.3.32-.4.61ZM409.5,22.76c-.21.07-.54.15-1,.25s-.76.19-.9.29c-.21.15-.32.35-.32.58s.09.43.26.6.39.25.66.25c.3,0,.58-.1.85-.29.2-.15.33-.33.39-.54.04-.14.06-.41.06-.8v-.33Z"/>
    <path class="l" d="M415.59,19.52v1.31h-1.12v2.51c0,.51.01.8.03.89s.07.15.15.21.17.08.28.08c.15,0,.37-.05.66-.16l.14,1.28c-.38.16-.82.25-1.3.25-.3,0-.56-.05-.8-.15s-.41-.23-.52-.39-.19-.37-.23-.64c-.04-.19-.05-.58-.05-1.16v-2.71h-.76v-1.31h.76v-1.24l1.65-.96v2.2h1.12Z"/>
    <path class="l" d="M418.37,17.16v3.16c.53-.62,1.17-.93,1.9-.93.38,0,.72.07,1.03.21s.53.32.69.54.26.46.32.73.08.68.08,1.24v3.65h-1.65v-3.29c0-.65-.03-1.07-.09-1.24s-.17-.32-.33-.42-.36-.16-.59-.16c-.27,0-.52.07-.73.2s-.37.33-.47.6-.15.66-.15,1.19v3.12h-1.65v-8.59h1.65Z"/>
    <path class="l" d="M427.35,19.52h1.54v.91c.2-.31.47-.57.81-.76s.72-.29,1.13-.29c.72,0,1.34.28,1.84.85s.76,1.36.76,2.37-.25,1.85-.76,2.42-1.12.86-1.85.86c-.34,0-.66-.07-.93-.21s-.57-.37-.88-.7v3.13h-1.65v-8.59ZM428.98,22.53c0,.7.14,1.22.42,1.55s.62.5,1.01.5.7-.15.96-.46.38-.81.38-1.51c0-.65-.13-1.14-.39-1.45s-.59-.47-.97-.47-.74.16-1,.47-.4.77-.4,1.38Z"/>
    <path class="l" d="M434.73,25.75v-8.59h1.65v8.59h-1.65Z"/>
    <path class="l" d="M437.68,22.55c0-.55.13-1.08.4-1.59s.65-.9,1.15-1.17,1.05-.4,1.66-.4c.94,0,1.71.31,2.31.92s.9,1.38.9,2.32-.3,1.72-.91,2.34-1.37.93-2.29.93c-.57,0-1.11-.13-1.63-.39s-.91-.64-1.18-1.13-.4-1.1-.4-1.82ZM439.37,22.64c0,.62.15,1.09.44,1.42s.65.49,1.08.49.79-.16,1.08-.49.44-.8.44-1.43-.15-1.08-.44-1.41-.65-.49-1.08-.49-.79.16-1.08.49-.44.8-.44,1.42Z"/>
    <path class="l" d="M448.24,19.52v1.31h-1.12v2.51c0,.51.01.8.03.89s.07.15.15.21.17.08.28.08c.15,0,.37-.05.66-.16l.14,1.28c-.38.16-.82.25-1.3.25-.3,0-.56-.05-.8-.15s-.41-.23-.52-.39-.19-.37-.23-.64c-.04-.19-.05-.58-.05-1.16v-2.71h-.76v-1.31h.76v-1.24l1.65-.96v2.2h1.12Z"/>
  </g>
  <g>
    <rect class="u" x="127.56" y="42.52" width="141.73" height="141.73"/>
    <polygon class="t" points="127.56 42.52 151.18 66.14 151.18 160.63 127.56 184.25 127.56 42.52"/>
    <polygon class="t" points="245.67 66.14 269.29 42.52 269.29 184.25 245.67 160.63 245.67 66.14"/>
    <rect class="s" x="151.18" y="66.14" width="94.49" height="94.49"/>
    <g>
      <polygon class="m" points="252.28 97.23 252.28 129.54 264.57 133.23 264.57 93.54 252.28 97.23"/>
      <g class="q">
        <g>
          <rect x="255.41" y="91.97" width="2.13" height="42.83"/>
          <rect x="256.68" y="92.54" width="2.13" height="25.81" transform="translate(-7.48 190.35) rotate(-40)"/>
          <rect x="257.13" y="108.62" width="2.13" height="24.45" transform="translate(138.08 -137.69) rotate(40)"/>
        </g>
      </g>
    </g>
    <g>
      <polygon class="m" points="182.27 59.53 214.58 59.53 218.27 47.24 178.58 47.24 182.27 59.53"/>
      <g class="p">
        <g>
          <rect x="193.01" y="41.16" width="2.13" height="25.81" transform="translate(277.41 237.48) rotate(-130)"/>
          <rect x="201.71" y="41.16" width="2.13" height="25.81" transform="translate(291.7 244.15) rotate(-130)"/>
          <rect x="210.4" y="41.16" width="2.13" height="25.81" transform="translate(305.98 250.81) rotate(-130)"/>
          <rect x="219.1" y="41.16" width="2.13" height="25.81" transform="translate(320.27 257.47) rotate(-130)"/>
          <rect x="184.32" y="41.16" width="2.13" height="25.81" transform="translate(263.13 230.82) rotate(-130)"/>
          <rect x="175.62" y="41.16" width="2.13" height="25.81" transform="translate(248.85 224.16) rotate(-130)"/>
        </g>
      </g>
    </g>
    <g>
      <polygon class="m" points="144.57 129.54 144.57 97.23 132.28 93.54 132.28 133.23 144.57 129.54"/>
      <g class="o">
        <rect x="137.74" y="91.97" width="2.13" height="42.83" transform="translate(277.61 226.77) rotate(-180)"/>
        <polygon points="144.57 114.41 144.57 112.36 132.28 112.12 132.28 114.65 144.57 114.41"/>
      </g>
    </g>
    <rect class="n" x="197.95" y="66.14" width=".94" height="94.49"/>
    <rect class="n" x="174.33" y="66.14" width=".94" height="94.49"/>
    <rect class="n" x="221.57" y="66.14" width=".94" height="94.49"/>
    <rect class="n" x="197.95" y="66.14" width=".94" height="94.49" transform="translate(85.04 311.81) rotate(-90)"/>
    <rect class="n" x="197.95" y="89.76" width=".94" height="94.49" transform="translate(61.42 335.43) rotate(-90)"/>
    <rect class="n" x="197.95" y="42.52" width=".94" height="94.49" transform="translate(108.66 288.19) rotate(-90)"/>
    <rect class="j" x="221.57" y="89.29" width=".94" height="48.19"/>
    <rect class="j" x="174.33" y="89.29" width=".94" height="48.19"/>
    <rect class="j" x="197.95" y="65.67" width=".94" height="48.19" transform="translate(108.66 288.19) rotate(-90)"/>
    <rect class="j" x="197.95" y="112.91" width=".94" height="48.19" transform="translate(61.42 335.43) rotate(-90)"/>
    <rect class="k" x="174.33" y="89.29" width="48.19" height="48.19" transform="translate(85.04 311.81) rotate(-90)"/>
    <g>
      <path class="l" d="M169.05,25.75v-8.59h1.73v8.59h-1.73Z"/>
      <path class="l" d="M178.09,25.75h-1.65v-3.18c0-.67-.04-1.11-.11-1.3s-.18-.35-.34-.46-.35-.16-.57-.16c-.29,0-.54.08-.77.23s-.38.36-.47.62-.13.73-.13,1.43v2.82h-1.65v-6.22h1.53v.91c.54-.7,1.23-1.05,2.05-1.05.36,0,.7.07,1,.2s.53.3.68.5.26.43.32.69.09.63.09,1.11v3.87Z"/>
      <path class="l" d="M185.42,25.75h-1.65v-3.18c0-.67-.04-1.11-.11-1.3s-.18-.35-.34-.46-.35-.16-.57-.16c-.29,0-.54.08-.77.23s-.38.36-.47.62-.13.73-.13,1.43v2.82h-1.65v-6.22h1.53v.91c.54-.7,1.23-1.05,2.05-1.05.36,0,.7.07,1,.2s.53.3.68.5.26.43.32.69.09.63.09,1.11v3.87Z"/>
      <path class="l" d="M190.69,23.77l1.64.28c-.21.6-.54,1.06-1,1.37s-1.02.47-1.71.47c-1.08,0-1.88-.35-2.4-1.06-.41-.57-.62-1.28-.62-2.14,0-1.03.27-1.84.81-2.42s1.22-.88,2.04-.88c.93,0,1.66.31,2.19.92s.79,1.55.77,2.81h-4.12c.01.49.14.87.4,1.14s.57.41.95.41c.26,0,.47-.07.65-.21s.31-.37.4-.68ZM190.78,22.1c-.01-.48-.13-.84-.37-1.09s-.52-.37-.86-.37c-.36,0-.66.13-.89.39s-.35.62-.35,1.07h2.46Z"/>
      <path class="l" d="M195.34,25.75h-1.65v-6.22h1.53v.88c.26-.42.5-.69.71-.83s.45-.2.71-.2c.38,0,.74.1,1.08.31l-.51,1.44c-.28-.18-.54-.27-.77-.27s-.43.06-.59.19-.29.36-.38.69-.14,1.03-.14,2.09v1.92Z"/>
      <path class="l" d="M201.03,25.75v-1.56l4.51-5.57h-4v-1.45h6.29v1.35l-4.71,5.79h4.89v1.45h-6.98Z"/>
      <path class="l" d="M208.71,22.55c0-.55.13-1.08.4-1.59s.65-.9,1.15-1.17,1.05-.4,1.66-.4c.94,0,1.71.31,2.31.92s.9,1.38.9,2.32-.3,1.72-.91,2.34-1.37.93-2.29.93c-.57,0-1.11-.13-1.63-.39s-.91-.64-1.18-1.13-.4-1.1-.4-1.82ZM210.4,22.64c0,.62.15,1.09.44,1.42s.65.49,1.08.49.79-.16,1.08-.49.44-.8.44-1.43-.15-1.08-.44-1.41-.65-.49-1.08-.49-.79.16-1.08.49-.44.8-.44,1.42Z"/>
      <path class="l" d="M222.08,25.75h-1.65v-3.18c0-.67-.04-1.11-.11-1.3s-.18-.35-.34-.46-.35-.16-.57-.16c-.29,0-.54.08-.77.23s-.38.36-.47.62-.13.73-.13,1.43v2.82h-1.65v-6.22h1.53v.91c.54-.7,1.23-1.05,2.05-1.05.36,0,.7.07,1,.2s.53.3.68.5.26.43.32.69.09.63.09,1.11v3.87Z"/>
      <path class="l" d="M227.36,23.77l1.64.28c-.21.6-.54,1.06-1,1.37s-1.02.47-1.71.47c-1.08,0-1.88-.35-2.4-1.06-.41-.57-.62-1.28-.62-2.14,0-1.03.27-1.84.81-2.42s1.22-.88,2.04-.88c.93,0,1.66.31,2.19.92s.79,1.55.77,2.81h-4.12c.01.49.14.87.4,1.14s.57.41.95.41c.26,0,.47-.07.65-.21s.31-.37.4-.68ZM227.45,22.1c-.01-.48-.13-.84-.37-1.09s-.52-.37-.86-.37c-.36,0-.66.13-.89.39s-.35.62-.35,1.07h2.46Z"/>
    </g>
    <path class="j" d="M220.52,91.29v44.19h-44.19v-44.19h44.19M222.52,89.29h-48.19v48.19h48.19v-48.19h0Z"/>
  </g>
</svg>